<?xml version="1.0" encoding="utf-8" standalone="no"?>
<!DOCTYPE svg PUBLIC "-//W3C//DTD SVG 1.1//EN"
  "http://www.w3.org/Graphics/SVG/1.1/DTD/svg11.dtd">
<svg height="248.518125pt" version="1.1" viewBox="0 0 368.925 248.518125" width="368.925pt" xmlns="http://www.w3.org/2000/svg" xmlns:xlink="http://www.w3.org/1999/xlink">
 <metadata>
  <rdf:RDF xmlns:cc="http://creativecommons.org/ns#" xmlns:dc="http://purl.org/dc/elements/1.1/" xmlns:rdf="http://www.w3.org/1999/02/22-rdf-syntax-ns#">
   <cc:Work>
    <dc:type rdf:resource="http://purl.org/dc/dcmitype/StillImage"/>
    <dc:date>2023-12-10T11:16:32.140679</dc:date>
    <dc:format>image/svg+xml</dc:format>
    <dc:creator>
     <cc:Agent>
      <dc:title>Matplotlib v3.4.3, https://matplotlib.org/</dc:title>
     </cc:Agent>
    </dc:creator>
   </cc:Work>
  </rdf:RDF>
 </metadata>
 <defs>
  <style type="text/css">*{stroke-linecap:butt;stroke-linejoin:round;}</style>
 </defs>
 <g id="figure_1">
  <g id="patch_1">
   <path d="M -0 248.518125 
L 368.925 248.518125 
L 368.925 0 
L -0 0 
z
" style="fill:none;"/>
  </g>
  <g id="axes_1">
   <g id="patch_2">
    <path d="M 26.925 224.64 
L 361.725 224.64 
L 361.725 7.2 
L 26.925 7.2 
z
" style="fill:#ffffff;"/>
   </g>
   <g id="PathCollection_1">
    <defs>
     <path d="M 0 1.581139 
C 0.419323 1.581139 0.821528 1.41454 1.118034 1.118034 
C 1.41454 0.821528 1.581139 0.419323 1.581139 0 
C 1.581139 -0.419323 1.41454 -0.821528 1.118034 -1.118034 
C 0.821528 -1.41454 0.419323 -1.581139 0 -1.581139 
C -0.419323 -1.581139 -0.821528 -1.41454 -1.118034 -1.118034 
C -1.41454 -0.821528 -1.581139 -0.419323 -1.581139 0 
C -1.581139 0.419323 -1.41454 0.821528 -1.118034 1.118034 
C -0.821528 1.41454 -0.419323 1.581139 0 1.581139 
z
" id="meacd15a6ca" style="stroke:#0000ff;"/>
    </defs>
    <g clip-path="url(#p8ce9691978)">
     <use style="fill:#0000ff;stroke:#0000ff;" x="42.143182" xlink:href="#meacd15a6ca" y="204.59435"/>
     <use style="fill:#0000ff;stroke:#0000ff;" x="45.217562" xlink:href="#meacd15a6ca" y="202.930091"/>
     <use style="fill:#0000ff;stroke:#0000ff;" x="48.291942" xlink:href="#meacd15a6ca" y="203.362377"/>
     <use style="fill:#0000ff;stroke:#0000ff;" x="51.366322" xlink:href="#meacd15a6ca" y="196.282299"/>
     <use style="fill:#0000ff;stroke:#0000ff;" x="54.440702" xlink:href="#meacd15a6ca" y="201.578138"/>
     <use style="fill:#0000ff;stroke:#0000ff;" x="57.515083" xlink:href="#meacd15a6ca" y="206.989194"/>
     <use style="fill:#0000ff;stroke:#0000ff;" x="60.589463" xlink:href="#meacd15a6ca" y="196.730129"/>
     <use style="fill:#0000ff;stroke:#0000ff;" x="63.663843" xlink:href="#meacd15a6ca" y="201.55001"/>
     <use style="fill:#0000ff;stroke:#0000ff;" x="66.738223" xlink:href="#meacd15a6ca" y="197.710004"/>
     <use style="fill:#0000ff;stroke:#0000ff;" x="69.812603" xlink:href="#meacd15a6ca" y="194.379273"/>
     <use style="fill:#0000ff;stroke:#0000ff;" x="72.886983" xlink:href="#meacd15a6ca" y="194.560834"/>
     <use style="fill:#0000ff;stroke:#0000ff;" x="75.961364" xlink:href="#meacd15a6ca" y="208.243112"/>
     <use style="fill:#0000ff;stroke:#0000ff;" x="79.035744" xlink:href="#meacd15a6ca" y="202.82438"/>
     <use style="fill:#0000ff;stroke:#0000ff;" x="82.110124" xlink:href="#meacd15a6ca" y="206.0599"/>
     <use style="fill:#0000ff;stroke:#0000ff;" x="85.184504" xlink:href="#meacd15a6ca" y="214.756364"/>
     <use style="fill:#0000ff;stroke:#0000ff;" x="88.258884" xlink:href="#meacd15a6ca" y="202.655214"/>
     <use style="fill:#0000ff;stroke:#0000ff;" x="91.333264" xlink:href="#meacd15a6ca" y="201.484179"/>
     <use style="fill:#0000ff;stroke:#0000ff;" x="94.407645" xlink:href="#meacd15a6ca" y="203.940681"/>
     <use style="fill:#0000ff;stroke:#0000ff;" x="97.482025" xlink:href="#meacd15a6ca" y="197.238495"/>
     <use style="fill:#0000ff;stroke:#0000ff;" x="100.556405" xlink:href="#meacd15a6ca" y="196.78345"/>
     <use style="fill:#0000ff;stroke:#0000ff;" x="103.630785" xlink:href="#meacd15a6ca" y="201.439959"/>
     <use style="fill:#0000ff;stroke:#0000ff;" x="106.705165" xlink:href="#meacd15a6ca" y="207.272128"/>
     <use style="fill:#0000ff;stroke:#0000ff;" x="109.779545" xlink:href="#meacd15a6ca" y="201.621427"/>
     <use style="fill:#0000ff;stroke:#0000ff;" x="112.853926" xlink:href="#meacd15a6ca" y="202.303623"/>
     <use style="fill:#0000ff;stroke:#0000ff;" x="115.928306" xlink:href="#meacd15a6ca" y="202.262679"/>
     <use style="fill:#0000ff;stroke:#0000ff;" x="119.002686" xlink:href="#meacd15a6ca" y="206.763925"/>
     <use style="fill:#0000ff;stroke:#0000ff;" x="122.077066" xlink:href="#meacd15a6ca" y="206.775473"/>
     <use style="fill:#0000ff;stroke:#0000ff;" x="125.151446" xlink:href="#meacd15a6ca" y="200.764233"/>
     <use style="fill:#0000ff;stroke:#0000ff;" x="128.225826" xlink:href="#meacd15a6ca" y="204.160514"/>
     <use style="fill:#0000ff;stroke:#0000ff;" x="131.300207" xlink:href="#meacd15a6ca" y="203.543967"/>
     <use style="fill:#0000ff;stroke:#0000ff;" x="134.374587" xlink:href="#meacd15a6ca" y="206.533469"/>
     <use style="fill:#0000ff;stroke:#0000ff;" x="137.448967" xlink:href="#meacd15a6ca" y="210.257217"/>
     <use style="fill:#0000ff;stroke:#0000ff;" x="140.523347" xlink:href="#meacd15a6ca" y="202.699229"/>
     <use style="fill:#0000ff;stroke:#0000ff;" x="143.597727" xlink:href="#meacd15a6ca" y="205.900756"/>
     <use style="fill:#0000ff;stroke:#0000ff;" x="146.672107" xlink:href="#meacd15a6ca" y="201.651621"/>
     <use style="fill:#0000ff;stroke:#0000ff;" x="149.746488" xlink:href="#meacd15a6ca" y="17.083636"/>
     <use style="fill:#0000ff;stroke:#0000ff;" x="152.820868" xlink:href="#meacd15a6ca" y="199.280385"/>
     <use style="fill:#0000ff;stroke:#0000ff;" x="155.895248" xlink:href="#meacd15a6ca" y="198.827402"/>
     <use style="fill:#0000ff;stroke:#0000ff;" x="158.969628" xlink:href="#meacd15a6ca" y="201.899589"/>
     <use style="fill:#0000ff;stroke:#0000ff;" x="162.044008" xlink:href="#meacd15a6ca" y="210.051657"/>
     <use style="fill:#0000ff;stroke:#0000ff;" x="165.118388" xlink:href="#meacd15a6ca" y="207.885453"/>
     <use style="fill:#0000ff;stroke:#0000ff;" x="168.192769" xlink:href="#meacd15a6ca" y="203.042758"/>
     <use style="fill:#0000ff;stroke:#0000ff;" x="171.267149" xlink:href="#meacd15a6ca" y="197.330297"/>
     <use style="fill:#0000ff;stroke:#0000ff;" x="174.341529" xlink:href="#meacd15a6ca" y="206.172818"/>
     <use style="fill:#0000ff;stroke:#0000ff;" x="177.415909" xlink:href="#meacd15a6ca" y="210.631461"/>
     <use style="fill:#0000ff;stroke:#0000ff;" x="180.490289" xlink:href="#meacd15a6ca" y="195.306038"/>
     <use style="fill:#0000ff;stroke:#0000ff;" x="183.564669" xlink:href="#meacd15a6ca" y="206.610548"/>
     <use style="fill:#0000ff;stroke:#0000ff;" x="186.63905" xlink:href="#meacd15a6ca" y="211.247702"/>
     <use style="fill:#0000ff;stroke:#0000ff;" x="189.71343" xlink:href="#meacd15a6ca" y="207.577901"/>
     <use style="fill:#0000ff;stroke:#0000ff;" x="192.78781" xlink:href="#meacd15a6ca" y="209.460597"/>
     <use style="fill:#0000ff;stroke:#0000ff;" x="195.86219" xlink:href="#meacd15a6ca" y="205.795066"/>
     <use style="fill:#0000ff;stroke:#0000ff;" x="198.93657" xlink:href="#meacd15a6ca" y="205.117943"/>
     <use style="fill:#0000ff;stroke:#0000ff;" x="202.01095" xlink:href="#meacd15a6ca" y="207.679737"/>
     <use style="fill:#0000ff;stroke:#0000ff;" x="205.085331" xlink:href="#meacd15a6ca" y="205.23643"/>
     <use style="fill:#0000ff;stroke:#0000ff;" x="208.159711" xlink:href="#meacd15a6ca" y="202.113481"/>
     <use style="fill:#0000ff;stroke:#0000ff;" x="211.234091" xlink:href="#meacd15a6ca" y="195.987416"/>
     <use style="fill:#0000ff;stroke:#0000ff;" x="214.308471" xlink:href="#meacd15a6ca" y="206.262035"/>
     <use style="fill:#0000ff;stroke:#0000ff;" x="217.382851" xlink:href="#meacd15a6ca" y="202.251305"/>
     <use style="fill:#0000ff;stroke:#0000ff;" x="220.457231" xlink:href="#meacd15a6ca" y="211.595473"/>
     <use style="fill:#0000ff;stroke:#0000ff;" x="223.531612" xlink:href="#meacd15a6ca" y="210.501053"/>
     <use style="fill:#0000ff;stroke:#0000ff;" x="226.605992" xlink:href="#meacd15a6ca" y="209.599956"/>
     <use style="fill:#0000ff;stroke:#0000ff;" x="229.680372" xlink:href="#meacd15a6ca" y="199.060376"/>
     <use style="fill:#0000ff;stroke:#0000ff;" x="232.754752" xlink:href="#meacd15a6ca" y="197.816532"/>
     <use style="fill:#0000ff;stroke:#0000ff;" x="235.829132" xlink:href="#meacd15a6ca" y="198.317681"/>
     <use style="fill:#0000ff;stroke:#0000ff;" x="238.903512" xlink:href="#meacd15a6ca" y="205.062917"/>
     <use style="fill:#0000ff;stroke:#0000ff;" x="241.977893" xlink:href="#meacd15a6ca" y="204.243295"/>
     <use style="fill:#0000ff;stroke:#0000ff;" x="245.052273" xlink:href="#meacd15a6ca" y="202.1907"/>
     <use style="fill:#0000ff;stroke:#0000ff;" x="248.126653" xlink:href="#meacd15a6ca" y="204.624003"/>
     <use style="fill:#0000ff;stroke:#0000ff;" x="251.201033" xlink:href="#meacd15a6ca" y="204.067688"/>
     <use style="fill:#0000ff;stroke:#0000ff;" x="254.275413" xlink:href="#meacd15a6ca" y="199.250932"/>
     <use style="fill:#0000ff;stroke:#0000ff;" x="257.349793" xlink:href="#meacd15a6ca" y="202.166022"/>
     <use style="fill:#0000ff;stroke:#0000ff;" x="260.424174" xlink:href="#meacd15a6ca" y="208.893769"/>
     <use style="fill:#0000ff;stroke:#0000ff;" x="263.498554" xlink:href="#meacd15a6ca" y="210.846868"/>
     <use style="fill:#0000ff;stroke:#0000ff;" x="266.572934" xlink:href="#meacd15a6ca" y="208.153251"/>
     <use style="fill:#0000ff;stroke:#0000ff;" x="269.647314" xlink:href="#meacd15a6ca" y="208.944247"/>
     <use style="fill:#0000ff;stroke:#0000ff;" x="272.721694" xlink:href="#meacd15a6ca" y="208.181892"/>
     <use style="fill:#0000ff;stroke:#0000ff;" x="275.796074" xlink:href="#meacd15a6ca" y="204.354065"/>
     <use style="fill:#0000ff;stroke:#0000ff;" x="278.870455" xlink:href="#meacd15a6ca" y="211.646541"/>
     <use style="fill:#0000ff;stroke:#0000ff;" x="281.944835" xlink:href="#meacd15a6ca" y="200.759763"/>
     <use style="fill:#0000ff;stroke:#0000ff;" x="285.019215" xlink:href="#meacd15a6ca" y="207.564071"/>
     <use style="fill:#0000ff;stroke:#0000ff;" x="288.093595" xlink:href="#meacd15a6ca" y="205.414311"/>
     <use style="fill:#0000ff;stroke:#0000ff;" x="291.167975" xlink:href="#meacd15a6ca" y="213.434505"/>
     <use style="fill:#0000ff;stroke:#0000ff;" x="294.242355" xlink:href="#meacd15a6ca" y="202.837408"/>
     <use style="fill:#0000ff;stroke:#0000ff;" x="297.316736" xlink:href="#meacd15a6ca" y="210.299354"/>
     <use style="fill:#0000ff;stroke:#0000ff;" x="300.391116" xlink:href="#meacd15a6ca" y="207.122864"/>
     <use style="fill:#0000ff;stroke:#0000ff;" x="303.465496" xlink:href="#meacd15a6ca" y="209.728023"/>
     <use style="fill:#0000ff;stroke:#0000ff;" x="306.539876" xlink:href="#meacd15a6ca" y="207.019411"/>
     <use style="fill:#0000ff;stroke:#0000ff;" x="309.614256" xlink:href="#meacd15a6ca" y="205.40655"/>
     <use style="fill:#0000ff;stroke:#0000ff;" x="312.688636" xlink:href="#meacd15a6ca" y="201.962264"/>
     <use style="fill:#0000ff;stroke:#0000ff;" x="315.763017" xlink:href="#meacd15a6ca" y="202.81773"/>
     <use style="fill:#0000ff;stroke:#0000ff;" x="318.837397" xlink:href="#meacd15a6ca" y="213.905562"/>
     <use style="fill:#0000ff;stroke:#0000ff;" x="321.911777" xlink:href="#meacd15a6ca" y="206.86257"/>
     <use style="fill:#0000ff;stroke:#0000ff;" x="324.986157" xlink:href="#meacd15a6ca" y="203.222772"/>
     <use style="fill:#0000ff;stroke:#0000ff;" x="328.060537" xlink:href="#meacd15a6ca" y="206.274948"/>
     <use style="fill:#0000ff;stroke:#0000ff;" x="331.134917" xlink:href="#meacd15a6ca" y="204.012731"/>
     <use style="fill:#0000ff;stroke:#0000ff;" x="334.209298" xlink:href="#meacd15a6ca" y="211.007155"/>
     <use style="fill:#0000ff;stroke:#0000ff;" x="337.283678" xlink:href="#meacd15a6ca" y="211.963094"/>
     <use style="fill:#0000ff;stroke:#0000ff;" x="340.358058" xlink:href="#meacd15a6ca" y="210.268351"/>
     <use style="fill:#0000ff;stroke:#0000ff;" x="343.432438" xlink:href="#meacd15a6ca" y="206.648925"/>
     <use style="fill:#0000ff;stroke:#0000ff;" x="346.506818" xlink:href="#meacd15a6ca" y="200.941291"/>
    </g>
   </g>
   <g id="matplotlib.axis_1">
    <g id="xtick_1">
     <g id="line2d_1">
      <path clip-path="url(#p8ce9691978)" d="M 42.143182 224.64 
L 42.143182 7.2 
" style="fill:none;stroke:#b0b0b0;stroke-dasharray:0.8,1.32;stroke-dashoffset:0;stroke-width:0.8;"/>
     </g>
     <g id="line2d_2">
      <defs>
       <path d="M 0 0 
L 0 3.5 
" id="m0e0083621e" style="stroke:#000000;stroke-width:0.8;"/>
      </defs>
      <g>
       <use style="stroke:#000000;stroke-width:0.8;" x="42.143182" xlink:href="#m0e0083621e" y="224.64"/>
      </g>
     </g>
     <g id="text_1">
      <!-- 0.0 -->
      <g transform="translate(34.191619 239.238437)scale(0.1 -0.1)">
       <defs>
        <path d="M 2034 4250 
Q 1547 4250 1301 3770 
Q 1056 3291 1056 2328 
Q 1056 1369 1301 889 
Q 1547 409 2034 409 
Q 2525 409 2770 889 
Q 3016 1369 3016 2328 
Q 3016 3291 2770 3770 
Q 2525 4250 2034 4250 
z
M 2034 4750 
Q 2819 4750 3233 4129 
Q 3647 3509 3647 2328 
Q 3647 1150 3233 529 
Q 2819 -91 2034 -91 
Q 1250 -91 836 529 
Q 422 1150 422 2328 
Q 422 3509 836 4129 
Q 1250 4750 2034 4750 
z
" id="DejaVuSans-30" transform="scale(0.015625)"/>
        <path d="M 684 794 
L 1344 794 
L 1344 0 
L 684 0 
L 684 794 
z
" id="DejaVuSans-2e" transform="scale(0.015625)"/>
       </defs>
       <use xlink:href="#DejaVuSans-30"/>
       <use x="63.623047" xlink:href="#DejaVuSans-2e"/>
       <use x="95.410156" xlink:href="#DejaVuSans-30"/>
      </g>
     </g>
    </g>
    <g id="xtick_2">
     <g id="line2d_3">
      <path clip-path="url(#p8ce9691978)" d="M 103.630785 224.64 
L 103.630785 7.2 
" style="fill:none;stroke:#b0b0b0;stroke-dasharray:0.8,1.32;stroke-dashoffset:0;stroke-width:0.8;"/>
     </g>
     <g id="line2d_4">
      <g>
       <use style="stroke:#000000;stroke-width:0.8;" x="103.630785" xlink:href="#m0e0083621e" y="224.64"/>
      </g>
     </g>
     <g id="text_2">
      <!-- 0.2 -->
      <g transform="translate(95.679223 239.238437)scale(0.1 -0.1)">
       <defs>
        <path d="M 1228 531 
L 3431 531 
L 3431 0 
L 469 0 
L 469 531 
Q 828 903 1448 1529 
Q 2069 2156 2228 2338 
Q 2531 2678 2651 2914 
Q 2772 3150 2772 3378 
Q 2772 3750 2511 3984 
Q 2250 4219 1831 4219 
Q 1534 4219 1204 4116 
Q 875 4013 500 3803 
L 500 4441 
Q 881 4594 1212 4672 
Q 1544 4750 1819 4750 
Q 2544 4750 2975 4387 
Q 3406 4025 3406 3419 
Q 3406 3131 3298 2873 
Q 3191 2616 2906 2266 
Q 2828 2175 2409 1742 
Q 1991 1309 1228 531 
z
" id="DejaVuSans-32" transform="scale(0.015625)"/>
       </defs>
       <use xlink:href="#DejaVuSans-30"/>
       <use x="63.623047" xlink:href="#DejaVuSans-2e"/>
       <use x="95.410156" xlink:href="#DejaVuSans-32"/>
      </g>
     </g>
    </g>
    <g id="xtick_3">
     <g id="line2d_5">
      <path clip-path="url(#p8ce9691978)" d="M 165.118388 224.64 
L 165.118388 7.2 
" style="fill:none;stroke:#b0b0b0;stroke-dasharray:0.8,1.32;stroke-dashoffset:0;stroke-width:0.8;"/>
     </g>
     <g id="line2d_6">
      <g>
       <use style="stroke:#000000;stroke-width:0.8;" x="165.118388" xlink:href="#m0e0083621e" y="224.64"/>
      </g>
     </g>
     <g id="text_3">
      <!-- 0.4 -->
      <g transform="translate(157.166826 239.238437)scale(0.1 -0.1)">
       <defs>
        <path d="M 2419 4116 
L 825 1625 
L 2419 1625 
L 2419 4116 
z
M 2253 4666 
L 3047 4666 
L 3047 1625 
L 3713 1625 
L 3713 1100 
L 3047 1100 
L 3047 0 
L 2419 0 
L 2419 1100 
L 313 1100 
L 313 1709 
L 2253 4666 
z
" id="DejaVuSans-34" transform="scale(0.015625)"/>
       </defs>
       <use xlink:href="#DejaVuSans-30"/>
       <use x="63.623047" xlink:href="#DejaVuSans-2e"/>
       <use x="95.410156" xlink:href="#DejaVuSans-34"/>
      </g>
     </g>
    </g>
    <g id="xtick_4">
     <g id="line2d_7">
      <path clip-path="url(#p8ce9691978)" d="M 226.605992 224.64 
L 226.605992 7.2 
" style="fill:none;stroke:#b0b0b0;stroke-dasharray:0.8,1.32;stroke-dashoffset:0;stroke-width:0.8;"/>
     </g>
     <g id="line2d_8">
      <g>
       <use style="stroke:#000000;stroke-width:0.8;" x="226.605992" xlink:href="#m0e0083621e" y="224.64"/>
      </g>
     </g>
     <g id="text_4">
      <!-- 0.6 -->
      <g transform="translate(218.654429 239.238437)scale(0.1 -0.1)">
       <defs>
        <path d="M 2113 2584 
Q 1688 2584 1439 2293 
Q 1191 2003 1191 1497 
Q 1191 994 1439 701 
Q 1688 409 2113 409 
Q 2538 409 2786 701 
Q 3034 994 3034 1497 
Q 3034 2003 2786 2293 
Q 2538 2584 2113 2584 
z
M 3366 4563 
L 3366 3988 
Q 3128 4100 2886 4159 
Q 2644 4219 2406 4219 
Q 1781 4219 1451 3797 
Q 1122 3375 1075 2522 
Q 1259 2794 1537 2939 
Q 1816 3084 2150 3084 
Q 2853 3084 3261 2657 
Q 3669 2231 3669 1497 
Q 3669 778 3244 343 
Q 2819 -91 2113 -91 
Q 1303 -91 875 529 
Q 447 1150 447 2328 
Q 447 3434 972 4092 
Q 1497 4750 2381 4750 
Q 2619 4750 2861 4703 
Q 3103 4656 3366 4563 
z
" id="DejaVuSans-36" transform="scale(0.015625)"/>
       </defs>
       <use xlink:href="#DejaVuSans-30"/>
       <use x="63.623047" xlink:href="#DejaVuSans-2e"/>
       <use x="95.410156" xlink:href="#DejaVuSans-36"/>
      </g>
     </g>
    </g>
    <g id="xtick_5">
     <g id="line2d_9">
      <path clip-path="url(#p8ce9691978)" d="M 288.093595 224.64 
L 288.093595 7.2 
" style="fill:none;stroke:#b0b0b0;stroke-dasharray:0.8,1.32;stroke-dashoffset:0;stroke-width:0.8;"/>
     </g>
     <g id="line2d_10">
      <g>
       <use style="stroke:#000000;stroke-width:0.8;" x="288.093595" xlink:href="#m0e0083621e" y="224.64"/>
      </g>
     </g>
     <g id="text_5">
      <!-- 0.8 -->
      <g transform="translate(280.142033 239.238437)scale(0.1 -0.1)">
       <defs>
        <path d="M 2034 2216 
Q 1584 2216 1326 1975 
Q 1069 1734 1069 1313 
Q 1069 891 1326 650 
Q 1584 409 2034 409 
Q 2484 409 2743 651 
Q 3003 894 3003 1313 
Q 3003 1734 2745 1975 
Q 2488 2216 2034 2216 
z
M 1403 2484 
Q 997 2584 770 2862 
Q 544 3141 544 3541 
Q 544 4100 942 4425 
Q 1341 4750 2034 4750 
Q 2731 4750 3128 4425 
Q 3525 4100 3525 3541 
Q 3525 3141 3298 2862 
Q 3072 2584 2669 2484 
Q 3125 2378 3379 2068 
Q 3634 1759 3634 1313 
Q 3634 634 3220 271 
Q 2806 -91 2034 -91 
Q 1263 -91 848 271 
Q 434 634 434 1313 
Q 434 1759 690 2068 
Q 947 2378 1403 2484 
z
M 1172 3481 
Q 1172 3119 1398 2916 
Q 1625 2713 2034 2713 
Q 2441 2713 2670 2916 
Q 2900 3119 2900 3481 
Q 2900 3844 2670 4047 
Q 2441 4250 2034 4250 
Q 1625 4250 1398 4047 
Q 1172 3844 1172 3481 
z
" id="DejaVuSans-38" transform="scale(0.015625)"/>
       </defs>
       <use xlink:href="#DejaVuSans-30"/>
       <use x="63.623047" xlink:href="#DejaVuSans-2e"/>
       <use x="95.410156" xlink:href="#DejaVuSans-38"/>
      </g>
     </g>
    </g>
    <g id="xtick_6">
     <g id="line2d_11">
      <path clip-path="url(#p8ce9691978)" d="M 349.581198 224.64 
L 349.581198 7.2 
" style="fill:none;stroke:#b0b0b0;stroke-dasharray:0.8,1.32;stroke-dashoffset:0;stroke-width:0.8;"/>
     </g>
     <g id="line2d_12">
      <g>
       <use style="stroke:#000000;stroke-width:0.8;" x="349.581198" xlink:href="#m0e0083621e" y="224.64"/>
      </g>
     </g>
     <g id="text_6">
      <!-- 1.0 -->
      <g transform="translate(341.629636 239.238437)scale(0.1 -0.1)">
       <defs>
        <path d="M 794 531 
L 1825 531 
L 1825 4091 
L 703 3866 
L 703 4441 
L 1819 4666 
L 2450 4666 
L 2450 531 
L 3481 531 
L 3481 0 
L 794 0 
L 794 531 
z
" id="DejaVuSans-31" transform="scale(0.015625)"/>
       </defs>
       <use xlink:href="#DejaVuSans-31"/>
       <use x="63.623047" xlink:href="#DejaVuSans-2e"/>
       <use x="95.410156" xlink:href="#DejaVuSans-30"/>
      </g>
     </g>
    </g>
   </g>
   <g id="matplotlib.axis_2">
    <g id="ytick_1">
     <g id="line2d_13">
      <path clip-path="url(#p8ce9691978)" d="M 26.925 219.175753 
L 361.725 219.175753 
" style="fill:none;stroke:#b0b0b0;stroke-dasharray:0.8,1.32;stroke-dashoffset:0;stroke-width:0.8;"/>
     </g>
     <g id="line2d_14">
      <defs>
       <path d="M 0 0 
L -3.5 0 
" id="m9df86940f6" style="stroke:#000000;stroke-width:0.8;"/>
      </defs>
      <g>
       <use style="stroke:#000000;stroke-width:0.8;" x="26.925" xlink:href="#m9df86940f6" y="219.175753"/>
      </g>
     </g>
     <g id="text_7">
      <!-- 0 -->
      <g transform="translate(13.5625 222.974972)scale(0.1 -0.1)">
       <use xlink:href="#DejaVuSans-30"/>
      </g>
     </g>
    </g>
    <g id="ytick_2">
     <g id="line2d_15">
      <path clip-path="url(#p8ce9691978)" d="M 26.925 172.359211 
L 361.725 172.359211 
" style="fill:none;stroke:#b0b0b0;stroke-dasharray:0.8,1.32;stroke-dashoffset:0;stroke-width:0.8;"/>
     </g>
     <g id="line2d_16">
      <g>
       <use style="stroke:#000000;stroke-width:0.8;" x="26.925" xlink:href="#m9df86940f6" y="172.359211"/>
      </g>
     </g>
     <g id="text_8">
      <!-- 5 -->
      <g transform="translate(13.5625 176.15843)scale(0.1 -0.1)">
       <defs>
        <path d="M 691 4666 
L 3169 4666 
L 3169 4134 
L 1269 4134 
L 1269 2991 
Q 1406 3038 1543 3061 
Q 1681 3084 1819 3084 
Q 2600 3084 3056 2656 
Q 3513 2228 3513 1497 
Q 3513 744 3044 326 
Q 2575 -91 1722 -91 
Q 1428 -91 1123 -41 
Q 819 9 494 109 
L 494 744 
Q 775 591 1075 516 
Q 1375 441 1709 441 
Q 2250 441 2565 725 
Q 2881 1009 2881 1497 
Q 2881 1984 2565 2268 
Q 2250 2553 1709 2553 
Q 1456 2553 1204 2497 
Q 953 2441 691 2322 
L 691 4666 
z
" id="DejaVuSans-35" transform="scale(0.015625)"/>
       </defs>
       <use xlink:href="#DejaVuSans-35"/>
      </g>
     </g>
    </g>
    <g id="ytick_3">
     <g id="line2d_17">
      <path clip-path="url(#p8ce9691978)" d="M 26.925 125.54267 
L 361.725 125.54267 
" style="fill:none;stroke:#b0b0b0;stroke-dasharray:0.8,1.32;stroke-dashoffset:0;stroke-width:0.8;"/>
     </g>
     <g id="line2d_18">
      <g>
       <use style="stroke:#000000;stroke-width:0.8;" x="26.925" xlink:href="#m9df86940f6" y="125.54267"/>
      </g>
     </g>
     <g id="text_9">
      <!-- 10 -->
      <g transform="translate(7.2 129.341889)scale(0.1 -0.1)">
       <use xlink:href="#DejaVuSans-31"/>
       <use x="63.623047" xlink:href="#DejaVuSans-30"/>
      </g>
     </g>
    </g>
    <g id="ytick_4">
     <g id="line2d_19">
      <path clip-path="url(#p8ce9691978)" d="M 26.925 78.726129 
L 361.725 78.726129 
" style="fill:none;stroke:#b0b0b0;stroke-dasharray:0.8,1.32;stroke-dashoffset:0;stroke-width:0.8;"/>
     </g>
     <g id="line2d_20">
      <g>
       <use style="stroke:#000000;stroke-width:0.8;" x="26.925" xlink:href="#m9df86940f6" y="78.726129"/>
      </g>
     </g>
     <g id="text_10">
      <!-- 15 -->
      <g transform="translate(7.2 82.525347)scale(0.1 -0.1)">
       <use xlink:href="#DejaVuSans-31"/>
       <use x="63.623047" xlink:href="#DejaVuSans-35"/>
      </g>
     </g>
    </g>
    <g id="ytick_5">
     <g id="line2d_21">
      <path clip-path="url(#p8ce9691978)" d="M 26.925 31.909587 
L 361.725 31.909587 
" style="fill:none;stroke:#b0b0b0;stroke-dasharray:0.8,1.32;stroke-dashoffset:0;stroke-width:0.8;"/>
     </g>
     <g id="line2d_22">
      <g>
       <use style="stroke:#000000;stroke-width:0.8;" x="26.925" xlink:href="#m9df86940f6" y="31.909587"/>
      </g>
     </g>
     <g id="text_11">
      <!-- 20 -->
      <g transform="translate(7.2 35.708806)scale(0.1 -0.1)">
       <use xlink:href="#DejaVuSans-32"/>
       <use x="63.623047" xlink:href="#DejaVuSans-30"/>
      </g>
     </g>
    </g>
   </g>
   <g id="line2d_23">
    <path clip-path="url(#p8ce9691978)" d="M 42.143182 203.258129 
L 45.217562 203.304945 
L 48.291942 203.351762 
L 51.366322 203.398578 
L 54.440702 203.445395 
L 57.515083 203.492211 
L 60.589463 203.539028 
L 63.663843 203.585845 
L 66.738223 203.632661 
L 69.812603 203.679478 
L 72.886983 203.726294 
L 75.961364 203.773111 
L 79.035744 203.819927 
L 82.110124 203.866744 
L 85.184504 203.91356 
L 88.258884 203.960377 
L 91.333264 204.007193 
L 94.407645 204.05401 
L 97.482025 204.100826 
L 100.556405 204.147643 
L 103.630785 204.19446 
L 106.705165 204.241276 
L 109.779545 204.288093 
L 112.853926 204.334909 
L 115.928306 204.381726 
L 119.002686 204.428542 
L 122.077066 204.475359 
L 125.151446 204.522175 
L 128.225826 204.568992 
L 131.300207 204.615808 
L 134.374587 204.662625 
L 137.448967 204.709442 
L 140.523347 204.756258 
L 143.597727 204.803075 
L 146.672107 204.849891 
L 149.746488 204.896708 
L 152.820868 204.943524 
L 155.895248 204.990341 
L 158.969628 205.037157 
L 162.044008 205.083974 
L 165.118388 205.13079 
L 168.192769 205.177607 
L 171.267149 205.224423 
L 174.341529 205.27124 
L 177.415909 205.318057 
L 180.490289 205.364873 
L 183.564669 205.41169 
L 186.63905 205.458506 
L 189.71343 205.505323 
L 192.78781 205.552139 
L 195.86219 205.598956 
L 198.93657 205.645772 
L 202.01095 205.692589 
L 205.085331 205.739405 
L 208.159711 205.786222 
L 211.234091 205.833039 
L 214.308471 205.879855 
L 217.382851 205.926672 
L 220.457231 205.973488 
L 223.531612 206.020305 
L 226.605992 206.067121 
L 229.680372 206.113938 
L 232.754752 206.160754 
L 235.829132 206.207571 
L 238.903512 206.254387 
L 241.977893 206.301204 
L 245.052273 206.34802 
L 248.126653 206.394837 
L 251.201033 206.441654 
L 254.275413 206.48847 
L 257.349793 206.535287 
L 260.424174 206.582103 
L 263.498554 206.62892 
L 266.572934 206.675736 
L 269.647314 206.722553 
L 272.721694 206.769369 
L 275.796074 206.816186 
L 278.870455 206.863002 
L 281.944835 206.909819 
L 285.019215 206.956636 
L 288.093595 207.003452 
L 291.167975 207.050269 
L 294.242355 207.097085 
L 297.316736 207.143902 
L 300.391116 207.190718 
L 303.465496 207.237535 
L 306.539876 207.284351 
L 309.614256 207.331168 
L 312.688636 207.377984 
L 315.763017 207.424801 
L 318.837397 207.471617 
L 321.911777 207.518434 
L 324.986157 207.565251 
L 328.060537 207.612067 
L 331.134917 207.658884 
L 334.209298 207.7057 
L 337.283678 207.752517 
L 340.358058 207.799333 
L 343.432438 207.84615 
L 346.506818 207.892966 
" style="fill:none;stroke:#ff0000;stroke-linecap:square;stroke-width:2;"/>
   </g>
   <g id="patch_3">
    <path d="M 26.925 224.64 
L 26.925 7.2 
" style="fill:none;stroke:#000000;stroke-linecap:square;stroke-linejoin:miter;stroke-width:0.8;"/>
   </g>
   <g id="patch_4">
    <path d="M 361.725 224.64 
L 361.725 7.2 
" style="fill:none;stroke:#000000;stroke-linecap:square;stroke-linejoin:miter;stroke-width:0.8;"/>
   </g>
   <g id="patch_5">
    <path d="M 26.925 224.64 
L 361.725 224.64 
" style="fill:none;stroke:#000000;stroke-linecap:square;stroke-linejoin:miter;stroke-width:0.8;"/>
   </g>
   <g id="patch_6">
    <path d="M 26.925 7.2 
L 361.725 7.2 
" style="fill:none;stroke:#000000;stroke-linecap:square;stroke-linejoin:miter;stroke-width:0.8;"/>
   </g>
   <g id="legend_1">
    <g id="patch_7">
     <path d="M 258.14375 44.55625 
L 354.725 44.55625 
Q 356.725 44.55625 356.725 42.55625 
L 356.725 14.2 
Q 356.725 12.2 354.725 12.2 
L 258.14375 12.2 
Q 256.14375 12.2 256.14375 14.2 
L 256.14375 42.55625 
Q 256.14375 44.55625 258.14375 44.55625 
z
" style="fill:#ffffff;opacity:0.8;stroke:#cccccc;stroke-linejoin:miter;"/>
    </g>
    <g id="line2d_24">
     <path d="M 260.14375 20.298437 
L 280.14375 20.298437 
" style="fill:none;stroke:#ff0000;stroke-linecap:square;stroke-width:2;"/>
    </g>
    <g id="line2d_25"/>
    <g id="text_12">
     <!-- Ground truth -->
     <g transform="translate(288.14375 23.798437)scale(0.1 -0.1)">
      <defs>
       <path d="M 3809 666 
L 3809 1919 
L 2778 1919 
L 2778 2438 
L 4434 2438 
L 4434 434 
Q 4069 175 3628 42 
Q 3188 -91 2688 -91 
Q 1594 -91 976 548 
Q 359 1188 359 2328 
Q 359 3472 976 4111 
Q 1594 4750 2688 4750 
Q 3144 4750 3555 4637 
Q 3966 4525 4313 4306 
L 4313 3634 
Q 3963 3931 3569 4081 
Q 3175 4231 2741 4231 
Q 1884 4231 1454 3753 
Q 1025 3275 1025 2328 
Q 1025 1384 1454 906 
Q 1884 428 2741 428 
Q 3075 428 3337 486 
Q 3600 544 3809 666 
z
" id="DejaVuSans-47" transform="scale(0.015625)"/>
       <path d="M 2631 2963 
Q 2534 3019 2420 3045 
Q 2306 3072 2169 3072 
Q 1681 3072 1420 2755 
Q 1159 2438 1159 1844 
L 1159 0 
L 581 0 
L 581 3500 
L 1159 3500 
L 1159 2956 
Q 1341 3275 1631 3429 
Q 1922 3584 2338 3584 
Q 2397 3584 2469 3576 
Q 2541 3569 2628 3553 
L 2631 2963 
z
" id="DejaVuSans-72" transform="scale(0.015625)"/>
       <path d="M 1959 3097 
Q 1497 3097 1228 2736 
Q 959 2375 959 1747 
Q 959 1119 1226 758 
Q 1494 397 1959 397 
Q 2419 397 2687 759 
Q 2956 1122 2956 1747 
Q 2956 2369 2687 2733 
Q 2419 3097 1959 3097 
z
M 1959 3584 
Q 2709 3584 3137 3096 
Q 3566 2609 3566 1747 
Q 3566 888 3137 398 
Q 2709 -91 1959 -91 
Q 1206 -91 779 398 
Q 353 888 353 1747 
Q 353 2609 779 3096 
Q 1206 3584 1959 3584 
z
" id="DejaVuSans-6f" transform="scale(0.015625)"/>
       <path d="M 544 1381 
L 544 3500 
L 1119 3500 
L 1119 1403 
Q 1119 906 1312 657 
Q 1506 409 1894 409 
Q 2359 409 2629 706 
Q 2900 1003 2900 1516 
L 2900 3500 
L 3475 3500 
L 3475 0 
L 2900 0 
L 2900 538 
Q 2691 219 2414 64 
Q 2138 -91 1772 -91 
Q 1169 -91 856 284 
Q 544 659 544 1381 
z
M 1991 3584 
L 1991 3584 
z
" id="DejaVuSans-75" transform="scale(0.015625)"/>
       <path d="M 3513 2113 
L 3513 0 
L 2938 0 
L 2938 2094 
Q 2938 2591 2744 2837 
Q 2550 3084 2163 3084 
Q 1697 3084 1428 2787 
Q 1159 2491 1159 1978 
L 1159 0 
L 581 0 
L 581 3500 
L 1159 3500 
L 1159 2956 
Q 1366 3272 1645 3428 
Q 1925 3584 2291 3584 
Q 2894 3584 3203 3211 
Q 3513 2838 3513 2113 
z
" id="DejaVuSans-6e" transform="scale(0.015625)"/>
       <path d="M 2906 2969 
L 2906 4863 
L 3481 4863 
L 3481 0 
L 2906 0 
L 2906 525 
Q 2725 213 2448 61 
Q 2172 -91 1784 -91 
Q 1150 -91 751 415 
Q 353 922 353 1747 
Q 353 2572 751 3078 
Q 1150 3584 1784 3584 
Q 2172 3584 2448 3432 
Q 2725 3281 2906 2969 
z
M 947 1747 
Q 947 1113 1208 752 
Q 1469 391 1925 391 
Q 2381 391 2643 752 
Q 2906 1113 2906 1747 
Q 2906 2381 2643 2742 
Q 2381 3103 1925 3103 
Q 1469 3103 1208 2742 
Q 947 2381 947 1747 
z
" id="DejaVuSans-64" transform="scale(0.015625)"/>
       <path id="DejaVuSans-20" transform="scale(0.015625)"/>
       <path d="M 1172 4494 
L 1172 3500 
L 2356 3500 
L 2356 3053 
L 1172 3053 
L 1172 1153 
Q 1172 725 1289 603 
Q 1406 481 1766 481 
L 2356 481 
L 2356 0 
L 1766 0 
Q 1100 0 847 248 
Q 594 497 594 1153 
L 594 3053 
L 172 3053 
L 172 3500 
L 594 3500 
L 594 4494 
L 1172 4494 
z
" id="DejaVuSans-74" transform="scale(0.015625)"/>
       <path d="M 3513 2113 
L 3513 0 
L 2938 0 
L 2938 2094 
Q 2938 2591 2744 2837 
Q 2550 3084 2163 3084 
Q 1697 3084 1428 2787 
Q 1159 2491 1159 1978 
L 1159 0 
L 581 0 
L 581 4863 
L 1159 4863 
L 1159 2956 
Q 1366 3272 1645 3428 
Q 1925 3584 2291 3584 
Q 2894 3584 3203 3211 
Q 3513 2838 3513 2113 
z
" id="DejaVuSans-68" transform="scale(0.015625)"/>
      </defs>
      <use xlink:href="#DejaVuSans-47"/>
      <use x="77.490234" xlink:href="#DejaVuSans-72"/>
      <use x="116.353516" xlink:href="#DejaVuSans-6f"/>
      <use x="177.535156" xlink:href="#DejaVuSans-75"/>
      <use x="240.914062" xlink:href="#DejaVuSans-6e"/>
      <use x="304.292969" xlink:href="#DejaVuSans-64"/>
      <use x="367.769531" xlink:href="#DejaVuSans-20"/>
      <use x="399.556641" xlink:href="#DejaVuSans-74"/>
      <use x="438.765625" xlink:href="#DejaVuSans-72"/>
      <use x="479.878906" xlink:href="#DejaVuSans-75"/>
      <use x="543.257812" xlink:href="#DejaVuSans-74"/>
      <use x="582.466797" xlink:href="#DejaVuSans-68"/>
     </g>
    </g>
    <g id="PathCollection_2">
     <g>
      <use style="fill:#0000ff;stroke:#0000ff;" x="270.14375" xlink:href="#meacd15a6ca" y="35.851562"/>
     </g>
    </g>
    <g id="text_13">
     <!-- Data -->
     <g transform="translate(288.14375 38.476562)scale(0.1 -0.1)">
      <defs>
       <path d="M 1259 4147 
L 1259 519 
L 2022 519 
Q 2988 519 3436 956 
Q 3884 1394 3884 2338 
Q 3884 3275 3436 3711 
Q 2988 4147 2022 4147 
L 1259 4147 
z
M 628 4666 
L 1925 4666 
Q 3281 4666 3915 4102 
Q 4550 3538 4550 2338 
Q 4550 1131 3912 565 
Q 3275 0 1925 0 
L 628 0 
L 628 4666 
z
" id="DejaVuSans-44" transform="scale(0.015625)"/>
       <path d="M 2194 1759 
Q 1497 1759 1228 1600 
Q 959 1441 959 1056 
Q 959 750 1161 570 
Q 1363 391 1709 391 
Q 2188 391 2477 730 
Q 2766 1069 2766 1631 
L 2766 1759 
L 2194 1759 
z
M 3341 1997 
L 3341 0 
L 2766 0 
L 2766 531 
Q 2569 213 2275 61 
Q 1981 -91 1556 -91 
Q 1019 -91 701 211 
Q 384 513 384 1019 
Q 384 1609 779 1909 
Q 1175 2209 1959 2209 
L 2766 2209 
L 2766 2266 
Q 2766 2663 2505 2880 
Q 2244 3097 1772 3097 
Q 1472 3097 1187 3025 
Q 903 2953 641 2809 
L 641 3341 
Q 956 3463 1253 3523 
Q 1550 3584 1831 3584 
Q 2591 3584 2966 3190 
Q 3341 2797 3341 1997 
z
" id="DejaVuSans-61" transform="scale(0.015625)"/>
      </defs>
      <use xlink:href="#DejaVuSans-44"/>
      <use x="77.001953" xlink:href="#DejaVuSans-61"/>
      <use x="138.28125" xlink:href="#DejaVuSans-74"/>
      <use x="177.490234" xlink:href="#DejaVuSans-61"/>
     </g>
    </g>
   </g>
  </g>
 </g>
 <defs>
  <clipPath id="p8ce9691978">
   <rect height="217.44" width="334.8" x="26.925" y="7.2"/>
  </clipPath>
 </defs>
</svg>