<?xml version="1.0" encoding="utf-8" standalone="no"?>
<!DOCTYPE svg PUBLIC "-//W3C//DTD SVG 1.1//EN"
  "http://www.w3.org/Graphics/SVG/1.1/DTD/svg11.dtd">
<svg height="331.995585pt" version="1.1" viewBox="0 0 606.109668 331.995585" width="606.109668pt" xmlns="http://www.w3.org/2000/svg" xmlns:xlink="http://www.w3.org/1999/xlink">
 <metadata>
  <rdf:RDF xmlns:cc="http://creativecommons.org/ns#" xmlns:dc="http://purl.org/dc/elements/1.1/" xmlns:rdf="http://www.w3.org/1999/02/22-rdf-syntax-ns#">
   <cc:Work>
    <dc:type rdf:resource="http://purl.org/dc/dcmitype/StillImage"/>
    <dc:date>2023-12-10T11:19:26.917034</dc:date>
    <dc:format>image/svg+xml</dc:format>
    <dc:creator>
     <cc:Agent>
      <dc:title>Matplotlib v3.4.3, https://matplotlib.org/</dc:title>
     </cc:Agent>
    </dc:creator>
   </cc:Work>
  </rdf:RDF>
 </metadata>
 <defs>
  <style type="text/css">*{stroke-linecap:butt;stroke-linejoin:round;}</style>
 </defs>
 <g id="figure_1">
  <g id="patch_1">
   <path d="M 0 331.995585 
L 606.109668 331.995585 
L 606.109668 0 
L 0 0 
z
" style="fill:none;"/>
  </g>
  <g id="axes_1">
   <g id="patch_2">
    <path d="M 39.65 279 
L 597.65 279 
L 597.65 7.2 
L 39.65 7.2 
z
" style="fill:#ffffff;"/>
   </g>
   <g id="patch_3">
    <path clip-path="url(#pab13fc895f)" d="M 45.23 279 
L 56.39 279 
L 56.39 279 
L 45.23 279 
z
" style="fill:#1f77b4;"/>
   </g>
   <g id="patch_4">
    <path clip-path="url(#pab13fc895f)" d="M 67.55 279 
L 78.71 279 
L 78.71 279 
L 67.55 279 
z
" style="fill:#1f77b4;"/>
   </g>
   <g id="patch_5">
    <path clip-path="url(#pab13fc895f)" d="M 89.87 279 
L 101.03 279 
L 101.03 278.994706 
L 89.87 278.994706 
z
" style="fill:#1f77b4;"/>
   </g>
   <g id="patch_6">
    <path clip-path="url(#pab13fc895f)" d="M 112.19 279 
L 123.35 279 
L 123.35 278.896774 
L 112.19 278.896774 
z
" style="fill:#1f77b4;"/>
   </g>
   <g id="patch_7">
    <path clip-path="url(#pab13fc895f)" d="M 134.51 279 
L 145.67 279 
L 145.67 276.906359 
L 134.51 276.906359 
z
" style="fill:#1f77b4;"/>
   </g>
   <g id="patch_8">
    <path clip-path="url(#pab13fc895f)" d="M 156.83 279 
L 167.99 279 
L 167.99 274.939766 
L 156.83 274.939766 
z
" style="fill:#1f77b4;"/>
   </g>
   <g id="patch_9">
    <path clip-path="url(#pab13fc895f)" d="M 179.15 279 
L 190.31 279 
L 190.31 274.201301 
L 179.15 274.201301 
z
" style="fill:#1f77b4;"/>
   </g>
   <g id="patch_10">
    <path clip-path="url(#pab13fc895f)" d="M 201.47 279 
L 212.63 279 
L 212.63 272.827597 
L 201.47 272.827597 
z
" style="fill:#1f77b4;"/>
   </g>
   <g id="patch_11">
    <path clip-path="url(#pab13fc895f)" d="M 223.79 279 
L 234.95 279 
L 234.95 268.587378 
L 223.79 268.587378 
z
" style="fill:#1f77b4;"/>
   </g>
   <g id="patch_12">
    <path clip-path="url(#pab13fc895f)" d="M 246.11 279 
L 257.27 279 
L 257.27 242.124391 
L 246.11 242.124391 
z
" style="fill:#1f77b4;"/>
   </g>
   <g id="patch_13">
    <path clip-path="url(#pab13fc895f)" d="M 268.43 279 
L 279.59 279 
L 279.59 235.655543 
L 268.43 235.655543 
z
" style="fill:#1f77b4;"/>
   </g>
   <g id="patch_14">
    <path clip-path="url(#pab13fc895f)" d="M 290.75 279 
L 301.91 279 
L 301.91 241.129183 
L 290.75 241.129183 
z
" style="fill:#1f77b4;"/>
   </g>
   <g id="patch_15">
    <path clip-path="url(#pab13fc895f)" d="M 313.07 279 
L 324.23 279 
L 324.23 232.976953 
L 313.07 232.976953 
z
" style="fill:#1f77b4;"/>
   </g>
   <g id="patch_16">
    <path clip-path="url(#pab13fc895f)" d="M 335.39 279 
L 346.55 279 
L 346.55 231.846757 
L 335.39 231.846757 
z
" style="fill:#1f77b4;"/>
   </g>
   <g id="patch_17">
    <path clip-path="url(#pab13fc895f)" d="M 357.71 279 
L 368.87 279 
L 368.87 219.263736 
L 357.71 219.263736 
z
" style="fill:#1f77b4;"/>
   </g>
   <g id="patch_18">
    <path clip-path="url(#pab13fc895f)" d="M 380.03 279 
L 391.19 279 
L 391.19 216.638083 
L 380.03 216.638083 
z
" style="fill:#1f77b4;"/>
   </g>
   <g id="patch_19">
    <path clip-path="url(#pab13fc895f)" d="M 402.35 279 
L 413.51 279 
L 413.51 211.17503 
L 402.35 211.17503 
z
" style="fill:#1f77b4;"/>
   </g>
   <g id="patch_20">
    <path clip-path="url(#pab13fc895f)" d="M 424.67 279 
L 435.83 279 
L 435.83 217.667699 
L 424.67 217.667699 
z
" style="fill:#1f77b4;"/>
   </g>
   <g id="patch_21">
    <path clip-path="url(#pab13fc895f)" d="M 446.99 279 
L 458.15 279 
L 458.15 222.559037 
L 446.99 222.559037 
z
" style="fill:#1f77b4;"/>
   </g>
   <g id="patch_22">
    <path clip-path="url(#pab13fc895f)" d="M 469.31 279 
L 480.47 279 
L 480.47 228.546162 
L 469.31 228.546162 
z
" style="fill:#1f77b4;"/>
   </g>
   <g id="patch_23">
    <path clip-path="url(#pab13fc895f)" d="M 491.63 279 
L 502.79 279 
L 502.79 243.548384 
L 491.63 243.548384 
z
" style="fill:#1f77b4;"/>
   </g>
   <g id="patch_24">
    <path clip-path="url(#pab13fc895f)" d="M 513.95 279 
L 525.11 279 
L 525.11 247.002495 
L 513.95 247.002495 
z
" style="fill:#1f77b4;"/>
   </g>
   <g id="patch_25">
    <path clip-path="url(#pab13fc895f)" d="M 536.27 279 
L 547.43 279 
L 547.43 257.989478 
L 536.27 257.989478 
z
" style="fill:#1f77b4;"/>
   </g>
   <g id="patch_26">
    <path clip-path="url(#pab13fc895f)" d="M 558.59 279 
L 569.75 279 
L 569.75 261.041271 
L 558.59 261.041271 
z
" style="fill:#1f77b4;"/>
   </g>
   <g id="patch_27">
    <path clip-path="url(#pab13fc895f)" d="M 580.91 279 
L 592.07 279 
L 592.07 269.863149 
L 580.91 269.863149 
z
" style="fill:#1f77b4;"/>
   </g>
   <g id="patch_28">
    <path clip-path="url(#pab13fc895f)" d="M 45.23 279 
L 56.39 279 
L 56.39 278.99206 
L 45.23 278.99206 
z
" style="fill:#ff7f0e;"/>
   </g>
   <g id="patch_29">
    <path clip-path="url(#pab13fc895f)" d="M 67.55 279 
L 78.71 279 
L 78.71 278.994706 
L 67.55 278.994706 
z
" style="fill:#ff7f0e;"/>
   </g>
   <g id="patch_30">
    <path clip-path="url(#pab13fc895f)" d="M 89.87 279 
L 101.03 279 
L 101.03 279 
L 89.87 279 
z
" style="fill:#ff7f0e;"/>
   </g>
   <g id="patch_31">
    <path clip-path="url(#pab13fc895f)" d="M 112.19 278.896774 
L 123.35 278.896774 
L 123.35 278.827956 
L 112.19 278.827956 
z
" style="fill:#ff7f0e;"/>
   </g>
   <g id="patch_32">
    <path clip-path="url(#pab13fc895f)" d="M 134.51 276.906359 
L 145.67 276.906359 
L 145.67 275.085341 
L 134.51 275.085341 
z
" style="fill:#ff7f0e;"/>
   </g>
   <g id="patch_33">
    <path clip-path="url(#pab13fc895f)" d="M 156.83 274.939766 
L 167.99 274.939766 
L 167.99 272.644966 
L 156.83 272.644966 
z
" style="fill:#ff7f0e;"/>
   </g>
   <g id="patch_34">
    <path clip-path="url(#pab13fc895f)" d="M 179.15 274.201301 
L 190.31 274.201301 
L 190.31 270.990698 
L 179.15 270.990698 
z
" style="fill:#ff7f0e;"/>
   </g>
   <g id="patch_35">
    <path clip-path="url(#pab13fc895f)" d="M 201.47 272.827597 
L 212.63 272.827597 
L 212.63 268.674724 
L 201.47 268.674724 
z
" style="fill:#ff7f0e;"/>
   </g>
   <g id="patch_36">
    <path clip-path="url(#pab13fc895f)" d="M 223.79 268.587378 
L 234.95 268.587378 
L 234.95 261.917371 
L 223.79 261.917371 
z
" style="fill:#ff7f0e;"/>
   </g>
   <g id="patch_37">
    <path clip-path="url(#pab13fc895f)" d="M 246.11 242.124391 
L 257.27 242.124391 
L 257.27 222.842248 
L 246.11 222.842248 
z
" style="fill:#ff7f0e;"/>
   </g>
   <g id="patch_38">
    <path clip-path="url(#pab13fc895f)" d="M 268.43 235.655543 
L 279.59 235.655543 
L 279.59 213.414246 
L 268.43 213.414246 
z
" style="fill:#ff7f0e;"/>
   </g>
   <g id="patch_39">
    <path clip-path="url(#pab13fc895f)" d="M 290.75 241.129183 
L 301.91 241.129183 
L 301.91 221.235623 
L 290.75 221.235623 
z
" style="fill:#ff7f0e;"/>
   </g>
   <g id="patch_40">
    <path clip-path="url(#pab13fc895f)" d="M 313.07 232.976953 
L 324.23 232.976953 
L 324.23 211.005633 
L 313.07 211.005633 
z
" style="fill:#ff7f0e;"/>
   </g>
   <g id="patch_41">
    <path clip-path="url(#pab13fc895f)" d="M 335.39 231.846757 
L 346.55 231.846757 
L 346.55 208.898757 
L 335.39 208.898757 
z
" style="fill:#ff7f0e;"/>
   </g>
   <g id="patch_42">
    <path clip-path="url(#pab13fc895f)" d="M 357.71 219.263736 
L 368.87 219.263736 
L 368.87 191.596442 
L 357.71 191.596442 
z
" style="fill:#ff7f0e;"/>
   </g>
   <g id="patch_43">
    <path clip-path="url(#pab13fc895f)" d="M 380.03 216.638083 
L 391.19 216.638083 
L 391.19 183.629489 
L 380.03 183.629489 
z
" style="fill:#ff7f0e;"/>
   </g>
   <g id="patch_44">
    <path clip-path="url(#pab13fc895f)" d="M 402.35 211.17503 
L 413.51 211.17503 
L 413.51 174.831433 
L 402.35 174.831433 
z
" style="fill:#ff7f0e;"/>
   </g>
   <g id="patch_45">
    <path clip-path="url(#pab13fc895f)" d="M 424.67 217.667699 
L 435.83 217.667699 
L 435.83 179.669834 
L 424.67 179.669834 
z
" style="fill:#ff7f0e;"/>
   </g>
   <g id="patch_46">
    <path clip-path="url(#pab13fc895f)" d="M 446.99 222.559037 
L 458.15 222.559037 
L 458.15 188.115863 
L 446.99 188.115863 
z
" style="fill:#ff7f0e;"/>
   </g>
   <g id="patch_47">
    <path clip-path="url(#pab13fc895f)" d="M 469.31 228.546162 
L 480.47 228.546162 
L 480.47 194.703818 
L 469.31 194.703818 
z
" style="fill:#ff7f0e;"/>
   </g>
   <g id="patch_48">
    <path clip-path="url(#pab13fc895f)" d="M 491.63 243.548384 
L 502.79 243.548384 
L 502.79 217.323611 
L 491.63 217.323611 
z
" style="fill:#ff7f0e;"/>
   </g>
   <g id="patch_49">
    <path clip-path="url(#pab13fc895f)" d="M 513.95 247.002495 
L 525.11 247.002495 
L 525.11 221.714699 
L 513.95 221.714699 
z
" style="fill:#ff7f0e;"/>
   </g>
   <g id="patch_50">
    <path clip-path="url(#pab13fc895f)" d="M 536.27 257.989478 
L 547.43 257.989478 
L 547.43 237.762418 
L 536.27 237.762418 
z
" style="fill:#ff7f0e;"/>
   </g>
   <g id="patch_51">
    <path clip-path="url(#pab13fc895f)" d="M 558.59 261.041271 
L 569.75 261.041271 
L 569.75 245.025314 
L 558.59 245.025314 
z
" style="fill:#ff7f0e;"/>
   </g>
   <g id="patch_52">
    <path clip-path="url(#pab13fc895f)" d="M 580.91 269.863149 
L 592.07 269.863149 
L 592.07 259.003214 
L 580.91 259.003214 
z
" style="fill:#ff7f0e;"/>
   </g>
   <g id="patch_53">
    <path clip-path="url(#pab13fc895f)" d="M 45.23 279 
L 56.39 279 
L 56.39 279 
L 45.23 279 
z
" style="fill:#2ca02c;"/>
   </g>
   <g id="patch_54">
    <path clip-path="url(#pab13fc895f)" d="M 67.55 279 
L 78.71 279 
L 78.71 279 
L 67.55 279 
z
" style="fill:#2ca02c;"/>
   </g>
   <g id="patch_55">
    <path clip-path="url(#pab13fc895f)" d="M 89.87 279 
L 101.03 279 
L 101.03 279 
L 89.87 279 
z
" style="fill:#2ca02c;"/>
   </g>
   <g id="patch_56">
    <path clip-path="url(#pab13fc895f)" d="M 112.19 278.827956 
L 123.35 278.827956 
L 123.35 278.687674 
L 112.19 278.687674 
z
" style="fill:#2ca02c;"/>
   </g>
   <g id="patch_57">
    <path clip-path="url(#pab13fc895f)" d="M 134.51 275.085341 
L 145.67 275.085341 
L 145.67 274.010729 
L 134.51 274.010729 
z
" style="fill:#2ca02c;"/>
   </g>
   <g id="patch_58">
    <path clip-path="url(#pab13fc895f)" d="M 156.83 272.644966 
L 167.99 272.644966 
L 167.99 270.260174 
L 156.83 270.260174 
z
" style="fill:#2ca02c;"/>
   </g>
   <g id="patch_59">
    <path clip-path="url(#pab13fc895f)" d="M 179.15 270.990698 
L 190.31 270.990698 
L 190.31 268.129477 
L 179.15 268.129477 
z
" style="fill:#2ca02c;"/>
   </g>
   <g id="patch_60">
    <path clip-path="url(#pab13fc895f)" d="M 201.47 268.674724 
L 212.63 268.674724 
L 212.63 266.115241 
L 201.47 266.115241 
z
" style="fill:#2ca02c;"/>
   </g>
   <g id="patch_61">
    <path clip-path="url(#pab13fc895f)" d="M 223.79 261.917371 
L 234.95 261.917371 
L 234.95 258.934396 
L 223.79 258.934396 
z
" style="fill:#2ca02c;"/>
   </g>
   <g id="patch_62">
    <path clip-path="url(#pab13fc895f)" d="M 246.11 222.842248 
L 257.27 222.842248 
L 257.27 216.603674 
L 246.11 216.603674 
z
" style="fill:#2ca02c;"/>
   </g>
   <g id="patch_63">
    <path clip-path="url(#pab13fc895f)" d="M 268.43 213.414246 
L 279.59 213.414246 
L 279.59 208.488499 
L 268.43 208.488499 
z
" style="fill:#2ca02c;"/>
   </g>
   <g id="patch_64">
    <path clip-path="url(#pab13fc895f)" d="M 290.75 221.235623 
L 301.91 221.235623 
L 301.91 216.672492 
L 290.75 216.672492 
z
" style="fill:#2ca02c;"/>
   </g>
   <g id="patch_65">
    <path clip-path="url(#pab13fc895f)" d="M 313.07 211.005633 
L 324.23 211.005633 
L 324.23 204.986745 
L 313.07 204.986745 
z
" style="fill:#2ca02c;"/>
   </g>
   <g id="patch_66">
    <path clip-path="url(#pab13fc895f)" d="M 335.39 208.898757 
L 346.55 208.898757 
L 346.55 198.779933 
L 335.39 198.779933 
z
" style="fill:#2ca02c;"/>
   </g>
   <g id="patch_67">
    <path clip-path="url(#pab13fc895f)" d="M 357.71 191.596442 
L 368.87 191.596442 
L 368.87 180.895316 
L 357.71 180.895316 
z
" style="fill:#2ca02c;"/>
   </g>
   <g id="patch_68">
    <path clip-path="url(#pab13fc895f)" d="M 380.03 183.629489 
L 391.19 183.629489 
L 391.19 174.355004 
L 380.03 174.355004 
z
" style="fill:#2ca02c;"/>
   </g>
   <g id="patch_69">
    <path clip-path="url(#pab13fc895f)" d="M 402.35 174.831433 
L 413.51 174.831433 
L 413.51 164.927002 
L 402.35 164.927002 
z
" style="fill:#2ca02c;"/>
   </g>
   <g id="patch_70">
    <path clip-path="url(#pab13fc895f)" d="M 424.67 179.669834 
L 435.83 179.669834 
L 435.83 170.596508 
L 424.67 170.596508 
z
" style="fill:#2ca02c;"/>
   </g>
   <g id="patch_71">
    <path clip-path="url(#pab13fc895f)" d="M 446.99 188.115863 
L 458.15 188.115863 
L 458.15 181.448503 
L 446.99 181.448503 
z
" style="fill:#2ca02c;"/>
   </g>
   <g id="patch_72">
    <path clip-path="url(#pab13fc895f)" d="M 469.31 194.703818 
L 480.47 194.703818 
L 480.47 188.573764 
L 469.31 188.573764 
z
" style="fill:#2ca02c;"/>
   </g>
   <g id="patch_73">
    <path clip-path="url(#pab13fc895f)" d="M 491.63 217.323611 
L 502.79 217.323611 
L 502.79 210.08189 
L 491.63 210.08189 
z
" style="fill:#2ca02c;"/>
   </g>
   <g id="patch_74">
    <path clip-path="url(#pab13fc895f)" d="M 513.95 221.714699 
L 525.11 221.714699 
L 525.11 216.672492 
L 513.95 216.672492 
z
" style="fill:#2ca02c;"/>
   </g>
   <g id="patch_75">
    <path clip-path="url(#pab13fc895f)" d="M 536.27 237.762418 
L 547.43 237.762418 
L 547.43 234.051565 
L 536.27 234.051565 
z
" style="fill:#2ca02c;"/>
   </g>
   <g id="patch_76">
    <path clip-path="url(#pab13fc895f)" d="M 558.59 245.025314 
L 569.75 245.025314 
L 569.75 241.888823 
L 558.59 241.888823 
z
" style="fill:#2ca02c;"/>
   </g>
   <g id="patch_77">
    <path clip-path="url(#pab13fc895f)" d="M 580.91 259.003214 
L 592.07 259.003214 
L 592.07 257.85449 
L 580.91 257.85449 
z
" style="fill:#2ca02c;"/>
   </g>
   <g id="patch_78">
    <path clip-path="url(#pab13fc895f)" d="M 45.23 278.99206 
L 56.39 278.99206 
L 56.39 278.989413 
L 45.23 278.989413 
z
" style="fill:#d62728;"/>
   </g>
   <g id="patch_79">
    <path clip-path="url(#pab13fc895f)" d="M 67.55 278.994706 
L 78.71 278.994706 
L 78.71 278.99206 
L 67.55 278.99206 
z
" style="fill:#d62728;"/>
   </g>
   <g id="patch_80">
    <path clip-path="url(#pab13fc895f)" d="M 89.87 279 
L 101.03 279 
L 101.03 279 
L 89.87 279 
z
" style="fill:#d62728;"/>
   </g>
   <g id="patch_81">
    <path clip-path="url(#pab13fc895f)" d="M 112.19 278.687674 
L 123.35 278.687674 
L 123.35 278.6665 
L 112.19 278.6665 
z
" style="fill:#d62728;"/>
   </g>
   <g id="patch_82">
    <path clip-path="url(#pab13fc895f)" d="M 134.51 274.010729 
L 145.67 274.010729 
L 145.67 273.682522 
L 134.51 273.682522 
z
" style="fill:#d62728;"/>
   </g>
   <g id="patch_83">
    <path clip-path="url(#pab13fc895f)" d="M 156.83 270.260174 
L 167.99 270.260174 
L 167.99 269.725514 
L 156.83 269.725514 
z
" style="fill:#d62728;"/>
   </g>
   <g id="patch_84">
    <path clip-path="url(#pab13fc895f)" d="M 179.15 268.129477 
L 190.31 268.129477 
L 190.31 267.563056 
L 179.15 267.563056 
z
" style="fill:#d62728;"/>
   </g>
   <g id="patch_85">
    <path clip-path="url(#pab13fc895f)" d="M 201.47 266.115241 
L 212.63 266.115241 
L 212.63 265.466768 
L 201.47 265.466768 
z
" style="fill:#d62728;"/>
   </g>
   <g id="patch_86">
    <path clip-path="url(#pab13fc895f)" d="M 223.79 258.934396 
L 234.95 258.934396 
L 234.95 257.481287 
L 223.79 257.481287 
z
" style="fill:#d62728;"/>
   </g>
   <g id="patch_87">
    <path clip-path="url(#pab13fc895f)" d="M 246.11 216.603674 
L 257.27 216.603674 
L 257.27 211.770566 
L 246.11 211.770566 
z
" style="fill:#d62728;"/>
   </g>
   <g id="patch_88">
    <path clip-path="url(#pab13fc895f)" d="M 268.43 208.488499 
L 279.59 208.488499 
L 279.59 202.586072 
L 268.43 202.586072 
z
" style="fill:#d62728;"/>
   </g>
   <g id="patch_89">
    <path clip-path="url(#pab13fc895f)" d="M 290.75 216.672492 
L 301.91 216.672492 
L 301.91 211.463534 
L 290.75 211.463534 
z
" style="fill:#d62728;"/>
   </g>
   <g id="patch_90">
    <path clip-path="url(#pab13fc895f)" d="M 313.07 204.986745 
L 324.23 204.986745 
L 324.23 193.833012 
L 313.07 193.833012 
z
" style="fill:#d62728;"/>
   </g>
   <g id="patch_91">
    <path clip-path="url(#pab13fc895f)" d="M 335.39 198.779933 
L 346.55 198.779933 
L 346.55 190.561532 
L 335.39 190.561532 
z
" style="fill:#d62728;"/>
   </g>
   <g id="patch_92">
    <path clip-path="url(#pab13fc895f)" d="M 357.71 180.895316 
L 368.87 180.895316 
L 368.87 168.746375 
L 357.71 168.746375 
z
" style="fill:#d62728;"/>
   </g>
   <g id="patch_93">
    <path clip-path="url(#pab13fc895f)" d="M 380.03 174.355004 
L 391.19 174.355004 
L 391.19 158.309932 
L 380.03 158.309932 
z
" style="fill:#d62728;"/>
   </g>
   <g id="patch_94">
    <path clip-path="url(#pab13fc895f)" d="M 402.35 164.927002 
L 413.51 164.927002 
L 413.51 149.604514 
L 402.35 149.604514 
z
" style="fill:#d62728;"/>
   </g>
   <g id="patch_95">
    <path clip-path="url(#pab13fc895f)" d="M 424.67 170.596508 
L 435.83 170.596508 
L 435.83 157.296196 
L 424.67 157.296196 
z
" style="fill:#d62728;"/>
   </g>
   <g id="patch_96">
    <path clip-path="url(#pab13fc895f)" d="M 446.99 181.448503 
L 458.15 181.448503 
L 458.15 169.738935 
L 446.99 169.738935 
z
" style="fill:#d62728;"/>
   </g>
   <g id="patch_97">
    <path clip-path="url(#pab13fc895f)" d="M 469.31 188.573764 
L 480.47 188.573764 
L 480.47 177.430618 
L 469.31 177.430618 
z
" style="fill:#d62728;"/>
   </g>
   <g id="patch_98">
    <path clip-path="url(#pab13fc895f)" d="M 491.63 210.08189 
L 502.79 210.08189 
L 502.79 201.725853 
L 491.63 201.725853 
z
" style="fill:#d62728;"/>
   </g>
   <g id="patch_99">
    <path clip-path="url(#pab13fc895f)" d="M 513.95 216.672492 
L 525.11 216.672492 
L 525.11 208.255578 
L 513.95 208.255578 
z
" style="fill:#d62728;"/>
   </g>
   <g id="patch_100">
    <path clip-path="url(#pab13fc895f)" d="M 536.27 234.051565 
L 547.43 234.051565 
L 547.43 228.075027 
L 536.27 228.075027 
z
" style="fill:#d62728;"/>
   </g>
   <g id="patch_101">
    <path clip-path="url(#pab13fc895f)" d="M 558.59 241.888823 
L 569.75 241.888823 
L 569.75 236.896905 
L 558.59 236.896905 
z
" style="fill:#d62728;"/>
   </g>
   <g id="patch_102">
    <path clip-path="url(#pab13fc895f)" d="M 580.91 257.85449 
L 592.07 257.85449 
L 592.07 254.786816 
L 580.91 254.786816 
z
" style="fill:#d62728;"/>
   </g>
   <g id="patch_103">
    <path clip-path="url(#pab13fc895f)" d="M 45.23 278.989413 
L 56.39 278.989413 
L 56.39 278.981472 
L 45.23 278.981472 
z
" style="fill:#9467bd;"/>
   </g>
   <g id="patch_104">
    <path clip-path="url(#pab13fc895f)" d="M 67.55 278.99206 
L 78.71 278.99206 
L 78.71 278.984119 
L 67.55 278.984119 
z
" style="fill:#9467bd;"/>
   </g>
   <g id="patch_105">
    <path clip-path="url(#pab13fc895f)" d="M 89.87 278.994706 
L 101.03 278.994706 
L 101.03 278.986766 
L 89.87 278.986766 
z
" style="fill:#9467bd;"/>
   </g>
   <g id="patch_106">
    <path clip-path="url(#pab13fc895f)" d="M 112.19 278.6665 
L 123.35 278.6665 
L 123.35 278.330352 
L 112.19 278.330352 
z
" style="fill:#9467bd;"/>
   </g>
   <g id="patch_107">
    <path clip-path="url(#pab13fc895f)" d="M 134.51 273.682522 
L 145.67 273.682522 
L 145.67 268.362398 
L 134.51 268.362398 
z
" style="fill:#9467bd;"/>
   </g>
   <g id="patch_108">
    <path clip-path="url(#pab13fc895f)" d="M 156.83 269.725514 
L 167.99 269.725514 
L 167.99 260.458969 
L 156.83 260.458969 
z
" style="fill:#9467bd;"/>
   </g>
   <g id="patch_109">
    <path clip-path="url(#pab13fc895f)" d="M 179.15 267.563056 
L 190.31 267.563056 
L 190.31 256.134052 
L 179.15 256.134052 
z
" style="fill:#9467bd;"/>
   </g>
   <g id="patch_110">
    <path clip-path="url(#pab13fc895f)" d="M 201.47 265.466768 
L 212.63 265.466768 
L 212.63 251.922948 
L 201.47 251.922948 
z
" style="fill:#9467bd;"/>
   </g>
   <g id="patch_111">
    <path clip-path="url(#pab13fc895f)" d="M 223.79 257.481287 
L 234.95 257.481287 
L 234.95 235.978456 
L 223.79 235.978456 
z
" style="fill:#9467bd;"/>
   </g>
   <g id="patch_112">
    <path clip-path="url(#pab13fc895f)" d="M 246.11 211.770566 
L 257.27 211.770566 
L 257.27 144.572894 
L 246.11 144.572894 
z
" style="fill:#9467bd;"/>
   </g>
   <g id="patch_113">
    <path clip-path="url(#pab13fc895f)" d="M 268.43 202.586072 
L 279.59 202.586072 
L 279.59 126.135089 
L 268.43 126.135089 
z
" style="fill:#9467bd;"/>
   </g>
   <g id="patch_114">
    <path clip-path="url(#pab13fc895f)" d="M 290.75 211.463534 
L 301.91 211.463534 
L 301.91 143.876778 
L 290.75 143.876778 
z
" style="fill:#9467bd;"/>
   </g>
   <g id="patch_115">
    <path clip-path="url(#pab13fc895f)" d="M 313.07 193.833012 
L 324.23 193.833012 
L 324.23 108.663377 
L 313.07 108.663377 
z
" style="fill:#9467bd;"/>
   </g>
   <g id="patch_116">
    <path clip-path="url(#pab13fc895f)" d="M 335.39 190.561532 
L 346.55 190.561532 
L 346.55 102.072775 
L 335.39 102.072775 
z
" style="fill:#9467bd;"/>
   </g>
   <g id="patch_117">
    <path clip-path="url(#pab13fc895f)" d="M 357.71 168.746375 
L 368.87 168.746375 
L 368.87 58.447754 
L 357.71 58.447754 
z
" style="fill:#9467bd;"/>
   </g>
   <g id="patch_118">
    <path clip-path="url(#pab13fc895f)" d="M 380.03 158.309932 
L 391.19 158.309932 
L 391.19 37.553692 
L 380.03 37.553692 
z
" style="fill:#9467bd;"/>
   </g>
   <g id="patch_119">
    <path clip-path="url(#pab13fc895f)" d="M 402.35 149.604514 
L 413.51 149.604514 
L 413.51 20.142857 
L 402.35 20.142857 
z
" style="fill:#9467bd;"/>
   </g>
   <g id="patch_120">
    <path clip-path="url(#pab13fc895f)" d="M 424.67 157.296196 
L 435.83 157.296196 
L 435.83 35.581806 
L 424.67 35.581806 
z
" style="fill:#9467bd;"/>
   </g>
   <g id="patch_121">
    <path clip-path="url(#pab13fc895f)" d="M 446.99 169.738935 
L 458.15 169.738935 
L 458.15 60.435522 
L 446.99 60.435522 
z
" style="fill:#9467bd;"/>
   </g>
   <g id="patch_122">
    <path clip-path="url(#pab13fc895f)" d="M 469.31 177.430618 
L 480.47 177.430618 
L 480.47 75.87447 
L 469.31 75.87447 
z
" style="fill:#9467bd;"/>
   </g>
   <g id="patch_123">
    <path clip-path="url(#pab13fc895f)" d="M 491.63 201.725853 
L 502.79 201.725853 
L 502.79 124.457 
L 491.63 124.457 
z
" style="fill:#9467bd;"/>
   </g>
   <g id="patch_124">
    <path clip-path="url(#pab13fc895f)" d="M 513.95 208.255578 
L 525.11 208.255578 
L 525.11 137.540271 
L 513.95 137.540271 
z
" style="fill:#9467bd;"/>
   </g>
   <g id="patch_125">
    <path clip-path="url(#pab13fc895f)" d="M 536.27 228.075027 
L 547.43 228.075027 
L 547.43 177.142114 
L 536.27 177.142114 
z
" style="fill:#9467bd;"/>
   </g>
   <g id="patch_126">
    <path clip-path="url(#pab13fc895f)" d="M 558.59 236.896905 
L 569.75 236.896905 
L 569.75 194.769989 
L 558.59 194.769989 
z
" style="fill:#9467bd;"/>
   </g>
   <g id="patch_127">
    <path clip-path="url(#pab13fc895f)" d="M 580.91 254.786816 
L 592.07 254.786816 
L 592.07 230.552458 
L 580.91 230.552458 
z
" style="fill:#9467bd;"/>
   </g>
   <g id="matplotlib.axis_1">
    <g id="xtick_1">
     <g id="line2d_1">
      <defs>
       <path d="M 0 0 
L 0 3.5 
" id="m478fe01c60" style="stroke:#000000;stroke-width:0.8;"/>
      </defs>
      <g>
       <use style="stroke:#000000;stroke-width:0.8;" x="50.81" xlink:href="#m478fe01c60" y="279"/>
      </g>
     </g>
     <g id="text_1">
      <!-- 1985 -->
      <g transform="translate(43.763239 309.368774)rotate(-45)scale(0.1 -0.1)">
       <defs>
        <path d="M 794 531 
L 1825 531 
L 1825 4091 
L 703 3866 
L 703 4441 
L 1819 4666 
L 2450 4666 
L 2450 531 
L 3481 531 
L 3481 0 
L 794 0 
L 794 531 
z
" id="DejaVuSans-31" transform="scale(0.015625)"/>
        <path d="M 703 97 
L 703 672 
Q 941 559 1184 500 
Q 1428 441 1663 441 
Q 2288 441 2617 861 
Q 2947 1281 2994 2138 
Q 2813 1869 2534 1725 
Q 2256 1581 1919 1581 
Q 1219 1581 811 2004 
Q 403 2428 403 3163 
Q 403 3881 828 4315 
Q 1253 4750 1959 4750 
Q 2769 4750 3195 4129 
Q 3622 3509 3622 2328 
Q 3622 1225 3098 567 
Q 2575 -91 1691 -91 
Q 1453 -91 1209 -44 
Q 966 3 703 97 
z
M 1959 2075 
Q 2384 2075 2632 2365 
Q 2881 2656 2881 3163 
Q 2881 3666 2632 3958 
Q 2384 4250 1959 4250 
Q 1534 4250 1286 3958 
Q 1038 3666 1038 3163 
Q 1038 2656 1286 2365 
Q 1534 2075 1959 2075 
z
" id="DejaVuSans-39" transform="scale(0.015625)"/>
        <path d="M 2034 2216 
Q 1584 2216 1326 1975 
Q 1069 1734 1069 1313 
Q 1069 891 1326 650 
Q 1584 409 2034 409 
Q 2484 409 2743 651 
Q 3003 894 3003 1313 
Q 3003 1734 2745 1975 
Q 2488 2216 2034 2216 
z
M 1403 2484 
Q 997 2584 770 2862 
Q 544 3141 544 3541 
Q 544 4100 942 4425 
Q 1341 4750 2034 4750 
Q 2731 4750 3128 4425 
Q 3525 4100 3525 3541 
Q 3525 3141 3298 2862 
Q 3072 2584 2669 2484 
Q 3125 2378 3379 2068 
Q 3634 1759 3634 1313 
Q 3634 634 3220 271 
Q 2806 -91 2034 -91 
Q 1263 -91 848 271 
Q 434 634 434 1313 
Q 434 1759 690 2068 
Q 947 2378 1403 2484 
z
M 1172 3481 
Q 1172 3119 1398 2916 
Q 1625 2713 2034 2713 
Q 2441 2713 2670 2916 
Q 2900 3119 2900 3481 
Q 2900 3844 2670 4047 
Q 2441 4250 2034 4250 
Q 1625 4250 1398 4047 
Q 1172 3844 1172 3481 
z
" id="DejaVuSans-38" transform="scale(0.015625)"/>
        <path d="M 691 4666 
L 3169 4666 
L 3169 4134 
L 1269 4134 
L 1269 2991 
Q 1406 3038 1543 3061 
Q 1681 3084 1819 3084 
Q 2600 3084 3056 2656 
Q 3513 2228 3513 1497 
Q 3513 744 3044 326 
Q 2575 -91 1722 -91 
Q 1428 -91 1123 -41 
Q 819 9 494 109 
L 494 744 
Q 775 591 1075 516 
Q 1375 441 1709 441 
Q 2250 441 2565 725 
Q 2881 1009 2881 1497 
Q 2881 1984 2565 2268 
Q 2250 2553 1709 2553 
Q 1456 2553 1204 2497 
Q 953 2441 691 2322 
L 691 4666 
z
" id="DejaVuSans-35" transform="scale(0.015625)"/>
       </defs>
       <use xlink:href="#DejaVuSans-31"/>
       <use x="63.623047" xlink:href="#DejaVuSans-39"/>
       <use x="127.246094" xlink:href="#DejaVuSans-38"/>
       <use x="190.869141" xlink:href="#DejaVuSans-35"/>
      </g>
     </g>
    </g>
    <g id="xtick_2">
     <g id="line2d_2">
      <g>
       <use style="stroke:#000000;stroke-width:0.8;" x="73.13" xlink:href="#m478fe01c60" y="279"/>
      </g>
     </g>
     <g id="text_2">
      <!-- 1988 -->
      <g transform="translate(66.083239 309.368774)rotate(-45)scale(0.1 -0.1)">
       <use xlink:href="#DejaVuSans-31"/>
       <use x="63.623047" xlink:href="#DejaVuSans-39"/>
       <use x="127.246094" xlink:href="#DejaVuSans-38"/>
       <use x="190.869141" xlink:href="#DejaVuSans-38"/>
      </g>
     </g>
    </g>
    <g id="xtick_3">
     <g id="line2d_3">
      <g>
       <use style="stroke:#000000;stroke-width:0.8;" x="95.45" xlink:href="#m478fe01c60" y="279"/>
      </g>
     </g>
     <g id="text_3">
      <!-- 1992 -->
      <g transform="translate(88.403239 309.368774)rotate(-45)scale(0.1 -0.1)">
       <defs>
        <path d="M 1228 531 
L 3431 531 
L 3431 0 
L 469 0 
L 469 531 
Q 828 903 1448 1529 
Q 2069 2156 2228 2338 
Q 2531 2678 2651 2914 
Q 2772 3150 2772 3378 
Q 2772 3750 2511 3984 
Q 2250 4219 1831 4219 
Q 1534 4219 1204 4116 
Q 875 4013 500 3803 
L 500 4441 
Q 881 4594 1212 4672 
Q 1544 4750 1819 4750 
Q 2544 4750 2975 4387 
Q 3406 4025 3406 3419 
Q 3406 3131 3298 2873 
Q 3191 2616 2906 2266 
Q 2828 2175 2409 1742 
Q 1991 1309 1228 531 
z
" id="DejaVuSans-32" transform="scale(0.015625)"/>
       </defs>
       <use xlink:href="#DejaVuSans-31"/>
       <use x="63.623047" xlink:href="#DejaVuSans-39"/>
       <use x="127.246094" xlink:href="#DejaVuSans-39"/>
       <use x="190.869141" xlink:href="#DejaVuSans-32"/>
      </g>
     </g>
    </g>
    <g id="xtick_4">
     <g id="line2d_4">
      <g>
       <use style="stroke:#000000;stroke-width:0.8;" x="117.77" xlink:href="#m478fe01c60" y="279"/>
      </g>
     </g>
     <g id="text_4">
      <!-- 1994 -->
      <g transform="translate(110.723239 309.368774)rotate(-45)scale(0.1 -0.1)">
       <defs>
        <path d="M 2419 4116 
L 825 1625 
L 2419 1625 
L 2419 4116 
z
M 2253 4666 
L 3047 4666 
L 3047 1625 
L 3713 1625 
L 3713 1100 
L 3047 1100 
L 3047 0 
L 2419 0 
L 2419 1100 
L 313 1100 
L 313 1709 
L 2253 4666 
z
" id="DejaVuSans-34" transform="scale(0.015625)"/>
       </defs>
       <use xlink:href="#DejaVuSans-31"/>
       <use x="63.623047" xlink:href="#DejaVuSans-39"/>
       <use x="127.246094" xlink:href="#DejaVuSans-39"/>
       <use x="190.869141" xlink:href="#DejaVuSans-34"/>
      </g>
     </g>
    </g>
    <g id="xtick_5">
     <g id="line2d_5">
      <g>
       <use style="stroke:#000000;stroke-width:0.8;" x="140.09" xlink:href="#m478fe01c60" y="279"/>
      </g>
     </g>
     <g id="text_5">
      <!-- 1996 -->
      <g transform="translate(133.043239 309.368774)rotate(-45)scale(0.1 -0.1)">
       <defs>
        <path d="M 2113 2584 
Q 1688 2584 1439 2293 
Q 1191 2003 1191 1497 
Q 1191 994 1439 701 
Q 1688 409 2113 409 
Q 2538 409 2786 701 
Q 3034 994 3034 1497 
Q 3034 2003 2786 2293 
Q 2538 2584 2113 2584 
z
M 3366 4563 
L 3366 3988 
Q 3128 4100 2886 4159 
Q 2644 4219 2406 4219 
Q 1781 4219 1451 3797 
Q 1122 3375 1075 2522 
Q 1259 2794 1537 2939 
Q 1816 3084 2150 3084 
Q 2853 3084 3261 2657 
Q 3669 2231 3669 1497 
Q 3669 778 3244 343 
Q 2819 -91 2113 -91 
Q 1303 -91 875 529 
Q 447 1150 447 2328 
Q 447 3434 972 4092 
Q 1497 4750 2381 4750 
Q 2619 4750 2861 4703 
Q 3103 4656 3366 4563 
z
" id="DejaVuSans-36" transform="scale(0.015625)"/>
       </defs>
       <use xlink:href="#DejaVuSans-31"/>
       <use x="63.623047" xlink:href="#DejaVuSans-39"/>
       <use x="127.246094" xlink:href="#DejaVuSans-39"/>
       <use x="190.869141" xlink:href="#DejaVuSans-36"/>
      </g>
     </g>
    </g>
    <g id="xtick_6">
     <g id="line2d_6">
      <g>
       <use style="stroke:#000000;stroke-width:0.8;" x="162.41" xlink:href="#m478fe01c60" y="279"/>
      </g>
     </g>
     <g id="text_6">
      <!-- 1997 -->
      <g transform="translate(155.363239 309.368774)rotate(-45)scale(0.1 -0.1)">
       <defs>
        <path d="M 525 4666 
L 3525 4666 
L 3525 4397 
L 1831 0 
L 1172 0 
L 2766 4134 
L 525 4134 
L 525 4666 
z
" id="DejaVuSans-37" transform="scale(0.015625)"/>
       </defs>
       <use xlink:href="#DejaVuSans-31"/>
       <use x="63.623047" xlink:href="#DejaVuSans-39"/>
       <use x="127.246094" xlink:href="#DejaVuSans-39"/>
       <use x="190.869141" xlink:href="#DejaVuSans-37"/>
      </g>
     </g>
    </g>
    <g id="xtick_7">
     <g id="line2d_7">
      <g>
       <use style="stroke:#000000;stroke-width:0.8;" x="184.73" xlink:href="#m478fe01c60" y="279"/>
      </g>
     </g>
     <g id="text_7">
      <!-- 1998 -->
      <g transform="translate(177.683239 309.368774)rotate(-45)scale(0.1 -0.1)">
       <use xlink:href="#DejaVuSans-31"/>
       <use x="63.623047" xlink:href="#DejaVuSans-39"/>
       <use x="127.246094" xlink:href="#DejaVuSans-39"/>
       <use x="190.869141" xlink:href="#DejaVuSans-38"/>
      </g>
     </g>
    </g>
    <g id="xtick_8">
     <g id="line2d_8">
      <g>
       <use style="stroke:#000000;stroke-width:0.8;" x="207.05" xlink:href="#m478fe01c60" y="279"/>
      </g>
     </g>
     <g id="text_8">
      <!-- 1999 -->
      <g transform="translate(200.003239 309.368774)rotate(-45)scale(0.1 -0.1)">
       <use xlink:href="#DejaVuSans-31"/>
       <use x="63.623047" xlink:href="#DejaVuSans-39"/>
       <use x="127.246094" xlink:href="#DejaVuSans-39"/>
       <use x="190.869141" xlink:href="#DejaVuSans-39"/>
      </g>
     </g>
    </g>
    <g id="xtick_9">
     <g id="line2d_9">
      <g>
       <use style="stroke:#000000;stroke-width:0.8;" x="229.37" xlink:href="#m478fe01c60" y="279"/>
      </g>
     </g>
     <g id="text_9">
      <!-- 2000 -->
      <g transform="translate(222.323239 309.368774)rotate(-45)scale(0.1 -0.1)">
       <defs>
        <path d="M 2034 4250 
Q 1547 4250 1301 3770 
Q 1056 3291 1056 2328 
Q 1056 1369 1301 889 
Q 1547 409 2034 409 
Q 2525 409 2770 889 
Q 3016 1369 3016 2328 
Q 3016 3291 2770 3770 
Q 2525 4250 2034 4250 
z
M 2034 4750 
Q 2819 4750 3233 4129 
Q 3647 3509 3647 2328 
Q 3647 1150 3233 529 
Q 2819 -91 2034 -91 
Q 1250 -91 836 529 
Q 422 1150 422 2328 
Q 422 3509 836 4129 
Q 1250 4750 2034 4750 
z
" id="DejaVuSans-30" transform="scale(0.015625)"/>
       </defs>
       <use xlink:href="#DejaVuSans-32"/>
       <use x="63.623047" xlink:href="#DejaVuSans-30"/>
       <use x="127.246094" xlink:href="#DejaVuSans-30"/>
       <use x="190.869141" xlink:href="#DejaVuSans-30"/>
      </g>
     </g>
    </g>
    <g id="xtick_10">
     <g id="line2d_10">
      <g>
       <use style="stroke:#000000;stroke-width:0.8;" x="251.69" xlink:href="#m478fe01c60" y="279"/>
      </g>
     </g>
     <g id="text_10">
      <!-- 2001 -->
      <g transform="translate(244.643239 309.368774)rotate(-45)scale(0.1 -0.1)">
       <use xlink:href="#DejaVuSans-32"/>
       <use x="63.623047" xlink:href="#DejaVuSans-30"/>
       <use x="127.246094" xlink:href="#DejaVuSans-30"/>
       <use x="190.869141" xlink:href="#DejaVuSans-31"/>
      </g>
     </g>
    </g>
    <g id="xtick_11">
     <g id="line2d_11">
      <g>
       <use style="stroke:#000000;stroke-width:0.8;" x="274.01" xlink:href="#m478fe01c60" y="279"/>
      </g>
     </g>
     <g id="text_11">
      <!-- 2002 -->
      <g transform="translate(266.963239 309.368774)rotate(-45)scale(0.1 -0.1)">
       <use xlink:href="#DejaVuSans-32"/>
       <use x="63.623047" xlink:href="#DejaVuSans-30"/>
       <use x="127.246094" xlink:href="#DejaVuSans-30"/>
       <use x="190.869141" xlink:href="#DejaVuSans-32"/>
      </g>
     </g>
    </g>
    <g id="xtick_12">
     <g id="line2d_12">
      <g>
       <use style="stroke:#000000;stroke-width:0.8;" x="296.33" xlink:href="#m478fe01c60" y="279"/>
      </g>
     </g>
     <g id="text_12">
      <!-- 2003 -->
      <g transform="translate(289.283239 309.368774)rotate(-45)scale(0.1 -0.1)">
       <defs>
        <path d="M 2597 2516 
Q 3050 2419 3304 2112 
Q 3559 1806 3559 1356 
Q 3559 666 3084 287 
Q 2609 -91 1734 -91 
Q 1441 -91 1130 -33 
Q 819 25 488 141 
L 488 750 
Q 750 597 1062 519 
Q 1375 441 1716 441 
Q 2309 441 2620 675 
Q 2931 909 2931 1356 
Q 2931 1769 2642 2001 
Q 2353 2234 1838 2234 
L 1294 2234 
L 1294 2753 
L 1863 2753 
Q 2328 2753 2575 2939 
Q 2822 3125 2822 3475 
Q 2822 3834 2567 4026 
Q 2313 4219 1838 4219 
Q 1578 4219 1281 4162 
Q 984 4106 628 3988 
L 628 4550 
Q 988 4650 1302 4700 
Q 1616 4750 1894 4750 
Q 2613 4750 3031 4423 
Q 3450 4097 3450 3541 
Q 3450 3153 3228 2886 
Q 3006 2619 2597 2516 
z
" id="DejaVuSans-33" transform="scale(0.015625)"/>
       </defs>
       <use xlink:href="#DejaVuSans-32"/>
       <use x="63.623047" xlink:href="#DejaVuSans-30"/>
       <use x="127.246094" xlink:href="#DejaVuSans-30"/>
       <use x="190.869141" xlink:href="#DejaVuSans-33"/>
      </g>
     </g>
    </g>
    <g id="xtick_13">
     <g id="line2d_13">
      <g>
       <use style="stroke:#000000;stroke-width:0.8;" x="318.65" xlink:href="#m478fe01c60" y="279"/>
      </g>
     </g>
     <g id="text_13">
      <!-- 2004 -->
      <g transform="translate(311.603239 309.368774)rotate(-45)scale(0.1 -0.1)">
       <use xlink:href="#DejaVuSans-32"/>
       <use x="63.623047" xlink:href="#DejaVuSans-30"/>
       <use x="127.246094" xlink:href="#DejaVuSans-30"/>
       <use x="190.869141" xlink:href="#DejaVuSans-34"/>
      </g>
     </g>
    </g>
    <g id="xtick_14">
     <g id="line2d_14">
      <g>
       <use style="stroke:#000000;stroke-width:0.8;" x="340.97" xlink:href="#m478fe01c60" y="279"/>
      </g>
     </g>
     <g id="text_14">
      <!-- 2005 -->
      <g transform="translate(333.923239 309.368774)rotate(-45)scale(0.1 -0.1)">
       <use xlink:href="#DejaVuSans-32"/>
       <use x="63.623047" xlink:href="#DejaVuSans-30"/>
       <use x="127.246094" xlink:href="#DejaVuSans-30"/>
       <use x="190.869141" xlink:href="#DejaVuSans-35"/>
      </g>
     </g>
    </g>
    <g id="xtick_15">
     <g id="line2d_15">
      <g>
       <use style="stroke:#000000;stroke-width:0.8;" x="363.29" xlink:href="#m478fe01c60" y="279"/>
      </g>
     </g>
     <g id="text_15">
      <!-- 2006 -->
      <g transform="translate(356.243239 309.368774)rotate(-45)scale(0.1 -0.1)">
       <use xlink:href="#DejaVuSans-32"/>
       <use x="63.623047" xlink:href="#DejaVuSans-30"/>
       <use x="127.246094" xlink:href="#DejaVuSans-30"/>
       <use x="190.869141" xlink:href="#DejaVuSans-36"/>
      </g>
     </g>
    </g>
    <g id="xtick_16">
     <g id="line2d_16">
      <g>
       <use style="stroke:#000000;stroke-width:0.8;" x="385.61" xlink:href="#m478fe01c60" y="279"/>
      </g>
     </g>
     <g id="text_16">
      <!-- 2007 -->
      <g transform="translate(378.563239 309.368774)rotate(-45)scale(0.1 -0.1)">
       <use xlink:href="#DejaVuSans-32"/>
       <use x="63.623047" xlink:href="#DejaVuSans-30"/>
       <use x="127.246094" xlink:href="#DejaVuSans-30"/>
       <use x="190.869141" xlink:href="#DejaVuSans-37"/>
      </g>
     </g>
    </g>
    <g id="xtick_17">
     <g id="line2d_17">
      <g>
       <use style="stroke:#000000;stroke-width:0.8;" x="407.93" xlink:href="#m478fe01c60" y="279"/>
      </g>
     </g>
     <g id="text_17">
      <!-- 2008 -->
      <g transform="translate(400.883239 309.368774)rotate(-45)scale(0.1 -0.1)">
       <use xlink:href="#DejaVuSans-32"/>
       <use x="63.623047" xlink:href="#DejaVuSans-30"/>
       <use x="127.246094" xlink:href="#DejaVuSans-30"/>
       <use x="190.869141" xlink:href="#DejaVuSans-38"/>
      </g>
     </g>
    </g>
    <g id="xtick_18">
     <g id="line2d_18">
      <g>
       <use style="stroke:#000000;stroke-width:0.8;" x="430.25" xlink:href="#m478fe01c60" y="279"/>
      </g>
     </g>
     <g id="text_18">
      <!-- 2009 -->
      <g transform="translate(423.203239 309.368774)rotate(-45)scale(0.1 -0.1)">
       <use xlink:href="#DejaVuSans-32"/>
       <use x="63.623047" xlink:href="#DejaVuSans-30"/>
       <use x="127.246094" xlink:href="#DejaVuSans-30"/>
       <use x="190.869141" xlink:href="#DejaVuSans-39"/>
      </g>
     </g>
    </g>
    <g id="xtick_19">
     <g id="line2d_19">
      <g>
       <use style="stroke:#000000;stroke-width:0.8;" x="452.57" xlink:href="#m478fe01c60" y="279"/>
      </g>
     </g>
     <g id="text_19">
      <!-- 2010 -->
      <g transform="translate(445.523239 309.368774)rotate(-45)scale(0.1 -0.1)">
       <use xlink:href="#DejaVuSans-32"/>
       <use x="63.623047" xlink:href="#DejaVuSans-30"/>
       <use x="127.246094" xlink:href="#DejaVuSans-31"/>
       <use x="190.869141" xlink:href="#DejaVuSans-30"/>
      </g>
     </g>
    </g>
    <g id="xtick_20">
     <g id="line2d_20">
      <g>
       <use style="stroke:#000000;stroke-width:0.8;" x="474.89" xlink:href="#m478fe01c60" y="279"/>
      </g>
     </g>
     <g id="text_20">
      <!-- 2011 -->
      <g transform="translate(467.843239 309.368774)rotate(-45)scale(0.1 -0.1)">
       <use xlink:href="#DejaVuSans-32"/>
       <use x="63.623047" xlink:href="#DejaVuSans-30"/>
       <use x="127.246094" xlink:href="#DejaVuSans-31"/>
       <use x="190.869141" xlink:href="#DejaVuSans-31"/>
      </g>
     </g>
    </g>
    <g id="xtick_21">
     <g id="line2d_21">
      <g>
       <use style="stroke:#000000;stroke-width:0.8;" x="497.21" xlink:href="#m478fe01c60" y="279"/>
      </g>
     </g>
     <g id="text_21">
      <!-- 2012 -->
      <g transform="translate(490.163239 309.368774)rotate(-45)scale(0.1 -0.1)">
       <use xlink:href="#DejaVuSans-32"/>
       <use x="63.623047" xlink:href="#DejaVuSans-30"/>
       <use x="127.246094" xlink:href="#DejaVuSans-31"/>
       <use x="190.869141" xlink:href="#DejaVuSans-32"/>
      </g>
     </g>
    </g>
    <g id="xtick_22">
     <g id="line2d_22">
      <g>
       <use style="stroke:#000000;stroke-width:0.8;" x="519.53" xlink:href="#m478fe01c60" y="279"/>
      </g>
     </g>
     <g id="text_22">
      <!-- 2013 -->
      <g transform="translate(512.483239 309.368774)rotate(-45)scale(0.1 -0.1)">
       <use xlink:href="#DejaVuSans-32"/>
       <use x="63.623047" xlink:href="#DejaVuSans-30"/>
       <use x="127.246094" xlink:href="#DejaVuSans-31"/>
       <use x="190.869141" xlink:href="#DejaVuSans-33"/>
      </g>
     </g>
    </g>
    <g id="xtick_23">
     <g id="line2d_23">
      <g>
       <use style="stroke:#000000;stroke-width:0.8;" x="541.85" xlink:href="#m478fe01c60" y="279"/>
      </g>
     </g>
     <g id="text_23">
      <!-- 2014 -->
      <g transform="translate(534.803239 309.368774)rotate(-45)scale(0.1 -0.1)">
       <use xlink:href="#DejaVuSans-32"/>
       <use x="63.623047" xlink:href="#DejaVuSans-30"/>
       <use x="127.246094" xlink:href="#DejaVuSans-31"/>
       <use x="190.869141" xlink:href="#DejaVuSans-34"/>
      </g>
     </g>
    </g>
    <g id="xtick_24">
     <g id="line2d_24">
      <g>
       <use style="stroke:#000000;stroke-width:0.8;" x="564.17" xlink:href="#m478fe01c60" y="279"/>
      </g>
     </g>
     <g id="text_24">
      <!-- 2015 -->
      <g transform="translate(557.123239 309.368774)rotate(-45)scale(0.1 -0.1)">
       <use xlink:href="#DejaVuSans-32"/>
       <use x="63.623047" xlink:href="#DejaVuSans-30"/>
       <use x="127.246094" xlink:href="#DejaVuSans-31"/>
       <use x="190.869141" xlink:href="#DejaVuSans-35"/>
      </g>
     </g>
    </g>
    <g id="xtick_25">
     <g id="line2d_25">
      <g>
       <use style="stroke:#000000;stroke-width:0.8;" x="586.49" xlink:href="#m478fe01c60" y="279"/>
      </g>
     </g>
     <g id="text_25">
      <!-- 2016 -->
      <g transform="translate(579.443239 309.368774)rotate(-45)scale(0.1 -0.1)">
       <use xlink:href="#DejaVuSans-32"/>
       <use x="63.623047" xlink:href="#DejaVuSans-30"/>
       <use x="127.246094" xlink:href="#DejaVuSans-31"/>
       <use x="190.869141" xlink:href="#DejaVuSans-36"/>
      </g>
     </g>
    </g>
    <g id="text_26">
     <!-- Year_of_Release -->
     <g transform="translate(278.70625 322.437773)scale(0.1 -0.1)">
      <defs>
       <path d="M -13 4666 
L 666 4666 
L 1959 2747 
L 3244 4666 
L 3922 4666 
L 2272 2222 
L 2272 0 
L 1638 0 
L 1638 2222 
L -13 4666 
z
" id="DejaVuSans-59" transform="scale(0.015625)"/>
       <path d="M 3597 1894 
L 3597 1613 
L 953 1613 
Q 991 1019 1311 708 
Q 1631 397 2203 397 
Q 2534 397 2845 478 
Q 3156 559 3463 722 
L 3463 178 
Q 3153 47 2828 -22 
Q 2503 -91 2169 -91 
Q 1331 -91 842 396 
Q 353 884 353 1716 
Q 353 2575 817 3079 
Q 1281 3584 2069 3584 
Q 2775 3584 3186 3129 
Q 3597 2675 3597 1894 
z
M 3022 2063 
Q 3016 2534 2758 2815 
Q 2500 3097 2075 3097 
Q 1594 3097 1305 2825 
Q 1016 2553 972 2059 
L 3022 2063 
z
" id="DejaVuSans-65" transform="scale(0.015625)"/>
       <path d="M 2194 1759 
Q 1497 1759 1228 1600 
Q 959 1441 959 1056 
Q 959 750 1161 570 
Q 1363 391 1709 391 
Q 2188 391 2477 730 
Q 2766 1069 2766 1631 
L 2766 1759 
L 2194 1759 
z
M 3341 1997 
L 3341 0 
L 2766 0 
L 2766 531 
Q 2569 213 2275 61 
Q 1981 -91 1556 -91 
Q 1019 -91 701 211 
Q 384 513 384 1019 
Q 384 1609 779 1909 
Q 1175 2209 1959 2209 
L 2766 2209 
L 2766 2266 
Q 2766 2663 2505 2880 
Q 2244 3097 1772 3097 
Q 1472 3097 1187 3025 
Q 903 2953 641 2809 
L 641 3341 
Q 956 3463 1253 3523 
Q 1550 3584 1831 3584 
Q 2591 3584 2966 3190 
Q 3341 2797 3341 1997 
z
" id="DejaVuSans-61" transform="scale(0.015625)"/>
       <path d="M 2631 2963 
Q 2534 3019 2420 3045 
Q 2306 3072 2169 3072 
Q 1681 3072 1420 2755 
Q 1159 2438 1159 1844 
L 1159 0 
L 581 0 
L 581 3500 
L 1159 3500 
L 1159 2956 
Q 1341 3275 1631 3429 
Q 1922 3584 2338 3584 
Q 2397 3584 2469 3576 
Q 2541 3569 2628 3553 
L 2631 2963 
z
" id="DejaVuSans-72" transform="scale(0.015625)"/>
       <path d="M 3263 -1063 
L 3263 -1509 
L -63 -1509 
L -63 -1063 
L 3263 -1063 
z
" id="DejaVuSans-5f" transform="scale(0.015625)"/>
       <path d="M 1959 3097 
Q 1497 3097 1228 2736 
Q 959 2375 959 1747 
Q 959 1119 1226 758 
Q 1494 397 1959 397 
Q 2419 397 2687 759 
Q 2956 1122 2956 1747 
Q 2956 2369 2687 2733 
Q 2419 3097 1959 3097 
z
M 1959 3584 
Q 2709 3584 3137 3096 
Q 3566 2609 3566 1747 
Q 3566 888 3137 398 
Q 2709 -91 1959 -91 
Q 1206 -91 779 398 
Q 353 888 353 1747 
Q 353 2609 779 3096 
Q 1206 3584 1959 3584 
z
" id="DejaVuSans-6f" transform="scale(0.015625)"/>
       <path d="M 2375 4863 
L 2375 4384 
L 1825 4384 
Q 1516 4384 1395 4259 
Q 1275 4134 1275 3809 
L 1275 3500 
L 2222 3500 
L 2222 3053 
L 1275 3053 
L 1275 0 
L 697 0 
L 697 3053 
L 147 3053 
L 147 3500 
L 697 3500 
L 697 3744 
Q 697 4328 969 4595 
Q 1241 4863 1831 4863 
L 2375 4863 
z
" id="DejaVuSans-66" transform="scale(0.015625)"/>
       <path d="M 2841 2188 
Q 3044 2119 3236 1894 
Q 3428 1669 3622 1275 
L 4263 0 
L 3584 0 
L 2988 1197 
Q 2756 1666 2539 1819 
Q 2322 1972 1947 1972 
L 1259 1972 
L 1259 0 
L 628 0 
L 628 4666 
L 2053 4666 
Q 2853 4666 3247 4331 
Q 3641 3997 3641 3322 
Q 3641 2881 3436 2590 
Q 3231 2300 2841 2188 
z
M 1259 4147 
L 1259 2491 
L 2053 2491 
Q 2509 2491 2742 2702 
Q 2975 2913 2975 3322 
Q 2975 3731 2742 3939 
Q 2509 4147 2053 4147 
L 1259 4147 
z
" id="DejaVuSans-52" transform="scale(0.015625)"/>
       <path d="M 603 4863 
L 1178 4863 
L 1178 0 
L 603 0 
L 603 4863 
z
" id="DejaVuSans-6c" transform="scale(0.015625)"/>
       <path d="M 2834 3397 
L 2834 2853 
Q 2591 2978 2328 3040 
Q 2066 3103 1784 3103 
Q 1356 3103 1142 2972 
Q 928 2841 928 2578 
Q 928 2378 1081 2264 
Q 1234 2150 1697 2047 
L 1894 2003 
Q 2506 1872 2764 1633 
Q 3022 1394 3022 966 
Q 3022 478 2636 193 
Q 2250 -91 1575 -91 
Q 1294 -91 989 -36 
Q 684 19 347 128 
L 347 722 
Q 666 556 975 473 
Q 1284 391 1588 391 
Q 1994 391 2212 530 
Q 2431 669 2431 922 
Q 2431 1156 2273 1281 
Q 2116 1406 1581 1522 
L 1381 1569 
Q 847 1681 609 1914 
Q 372 2147 372 2553 
Q 372 3047 722 3315 
Q 1072 3584 1716 3584 
Q 2034 3584 2315 3537 
Q 2597 3491 2834 3397 
z
" id="DejaVuSans-73" transform="scale(0.015625)"/>
      </defs>
      <use xlink:href="#DejaVuSans-59"/>
      <use x="47.833984" xlink:href="#DejaVuSans-65"/>
      <use x="109.357422" xlink:href="#DejaVuSans-61"/>
      <use x="170.636719" xlink:href="#DejaVuSans-72"/>
      <use x="211.75" xlink:href="#DejaVuSans-5f"/>
      <use x="261.75" xlink:href="#DejaVuSans-6f"/>
      <use x="322.931641" xlink:href="#DejaVuSans-66"/>
      <use x="358.136719" xlink:href="#DejaVuSans-5f"/>
      <use x="408.136719" xlink:href="#DejaVuSans-52"/>
      <use x="473.119141" xlink:href="#DejaVuSans-65"/>
      <use x="534.642578" xlink:href="#DejaVuSans-6c"/>
      <use x="562.425781" xlink:href="#DejaVuSans-65"/>
      <use x="623.949219" xlink:href="#DejaVuSans-61"/>
      <use x="685.228516" xlink:href="#DejaVuSans-73"/>
      <use x="737.328125" xlink:href="#DejaVuSans-65"/>
     </g>
    </g>
   </g>
   <g id="matplotlib.axis_2">
    <g id="ytick_1">
     <g id="line2d_26">
      <defs>
       <path d="M 0 0 
L -3.5 0 
" id="m83c895c493" style="stroke:#000000;stroke-width:0.8;"/>
      </defs>
      <g>
       <use style="stroke:#000000;stroke-width:0.8;" x="39.65" xlink:href="#m83c895c493" y="279"/>
      </g>
     </g>
     <g id="text_27">
      <!-- 0 -->
      <g transform="translate(26.2875 282.799219)scale(0.1 -0.1)">
       <use xlink:href="#DejaVuSans-30"/>
      </g>
     </g>
    </g>
    <g id="ytick_2">
     <g id="line2d_27">
      <g>
       <use style="stroke:#000000;stroke-width:0.8;" x="39.65" xlink:href="#m83c895c493" y="226.063438"/>
      </g>
     </g>
     <g id="text_28">
      <!-- 200 -->
      <g transform="translate(13.5625 229.862656)scale(0.1 -0.1)">
       <use xlink:href="#DejaVuSans-32"/>
       <use x="63.623047" xlink:href="#DejaVuSans-30"/>
       <use x="127.246094" xlink:href="#DejaVuSans-30"/>
      </g>
     </g>
    </g>
    <g id="ytick_3">
     <g id="line2d_28">
      <g>
       <use style="stroke:#000000;stroke-width:0.8;" x="39.65" xlink:href="#m83c895c493" y="173.126875"/>
      </g>
     </g>
     <g id="text_29">
      <!-- 400 -->
      <g transform="translate(13.5625 176.926094)scale(0.1 -0.1)">
       <use xlink:href="#DejaVuSans-34"/>
       <use x="63.623047" xlink:href="#DejaVuSans-30"/>
       <use x="127.246094" xlink:href="#DejaVuSans-30"/>
      </g>
     </g>
    </g>
    <g id="ytick_4">
     <g id="line2d_29">
      <g>
       <use style="stroke:#000000;stroke-width:0.8;" x="39.65" xlink:href="#m83c895c493" y="120.190313"/>
      </g>
     </g>
     <g id="text_30">
      <!-- 600 -->
      <g transform="translate(13.5625 123.989532)scale(0.1 -0.1)">
       <use xlink:href="#DejaVuSans-36"/>
       <use x="63.623047" xlink:href="#DejaVuSans-30"/>
       <use x="127.246094" xlink:href="#DejaVuSans-30"/>
      </g>
     </g>
    </g>
    <g id="ytick_5">
     <g id="line2d_30">
      <g>
       <use style="stroke:#000000;stroke-width:0.8;" x="39.65" xlink:href="#m83c895c493" y="67.253751"/>
      </g>
     </g>
     <g id="text_31">
      <!-- 800 -->
      <g transform="translate(13.5625 71.05297)scale(0.1 -0.1)">
       <use xlink:href="#DejaVuSans-38"/>
       <use x="63.623047" xlink:href="#DejaVuSans-30"/>
       <use x="127.246094" xlink:href="#DejaVuSans-30"/>
      </g>
     </g>
    </g>
    <g id="ytick_6">
     <g id="line2d_31">
      <g>
       <use style="stroke:#000000;stroke-width:0.8;" x="39.65" xlink:href="#m83c895c493" y="14.317188"/>
      </g>
     </g>
     <g id="text_32">
      <!-- 1000 -->
      <g transform="translate(7.2 18.116407)scale(0.1 -0.1)">
       <use xlink:href="#DejaVuSans-31"/>
       <use x="63.623047" xlink:href="#DejaVuSans-30"/>
       <use x="127.246094" xlink:href="#DejaVuSans-30"/>
       <use x="190.869141" xlink:href="#DejaVuSans-30"/>
      </g>
     </g>
    </g>
   </g>
   <g id="patch_128">
    <path d="M 39.65 279 
L 39.65 7.2 
" style="fill:none;stroke:#000000;stroke-linecap:square;stroke-linejoin:miter;stroke-width:0.8;"/>
   </g>
   <g id="patch_129">
    <path d="M 597.65 279 
L 597.65 7.2 
" style="fill:none;stroke:#000000;stroke-linecap:square;stroke-linejoin:miter;stroke-width:0.8;"/>
   </g>
   <g id="patch_130">
    <path d="M 39.65 279 
L 597.65 279 
" style="fill:none;stroke:#000000;stroke-linecap:square;stroke-linejoin:miter;stroke-width:0.8;"/>
   </g>
   <g id="patch_131">
    <path d="M 39.65 7.2 
L 597.65 7.2 
" style="fill:none;stroke:#000000;stroke-linecap:square;stroke-linejoin:miter;stroke-width:0.8;"/>
   </g>
   <g id="legend_1">
    <g id="patch_132">
     <path d="M 495.132812 89.98125 
L 590.65 89.98125 
Q 592.65 89.98125 592.65 87.98125 
L 592.65 14.2 
Q 592.65 12.2 590.65 12.2 
L 495.132812 12.2 
Q 493.132812 12.2 493.132812 14.2 
L 493.132812 87.98125 
Q 493.132812 89.98125 495.132812 89.98125 
z
" style="fill:#ffffff;opacity:0.8;stroke:#cccccc;stroke-linejoin:miter;"/>
    </g>
    <g id="patch_133">
     <path d="M 497.132812 23.798437 
L 517.132812 23.798437 
L 517.132812 16.798437 
L 497.132812 16.798437 
z
" style="fill:#1f77b4;"/>
    </g>
    <g id="text_33">
     <!-- NA_Sales -->
     <g transform="translate(525.132812 23.798437)scale(0.1 -0.1)">
      <defs>
       <path d="M 628 4666 
L 1478 4666 
L 3547 763 
L 3547 4666 
L 4159 4666 
L 4159 0 
L 3309 0 
L 1241 3903 
L 1241 0 
L 628 0 
L 628 4666 
z
" id="DejaVuSans-4e" transform="scale(0.015625)"/>
       <path d="M 2188 4044 
L 1331 1722 
L 3047 1722 
L 2188 4044 
z
M 1831 4666 
L 2547 4666 
L 4325 0 
L 3669 0 
L 3244 1197 
L 1141 1197 
L 716 0 
L 50 0 
L 1831 4666 
z
" id="DejaVuSans-41" transform="scale(0.015625)"/>
       <path d="M 3425 4513 
L 3425 3897 
Q 3066 4069 2747 4153 
Q 2428 4238 2131 4238 
Q 1616 4238 1336 4038 
Q 1056 3838 1056 3469 
Q 1056 3159 1242 3001 
Q 1428 2844 1947 2747 
L 2328 2669 
Q 3034 2534 3370 2195 
Q 3706 1856 3706 1288 
Q 3706 609 3251 259 
Q 2797 -91 1919 -91 
Q 1588 -91 1214 -16 
Q 841 59 441 206 
L 441 856 
Q 825 641 1194 531 
Q 1563 422 1919 422 
Q 2459 422 2753 634 
Q 3047 847 3047 1241 
Q 3047 1584 2836 1778 
Q 2625 1972 2144 2069 
L 1759 2144 
Q 1053 2284 737 2584 
Q 422 2884 422 3419 
Q 422 4038 858 4394 
Q 1294 4750 2059 4750 
Q 2388 4750 2728 4690 
Q 3069 4631 3425 4513 
z
" id="DejaVuSans-53" transform="scale(0.015625)"/>
      </defs>
      <use xlink:href="#DejaVuSans-4e"/>
      <use x="74.804688" xlink:href="#DejaVuSans-41"/>
      <use x="143.212891" xlink:href="#DejaVuSans-5f"/>
      <use x="193.212891" xlink:href="#DejaVuSans-53"/>
      <use x="256.689453" xlink:href="#DejaVuSans-61"/>
      <use x="317.96875" xlink:href="#DejaVuSans-6c"/>
      <use x="345.751953" xlink:href="#DejaVuSans-65"/>
      <use x="407.275391" xlink:href="#DejaVuSans-73"/>
     </g>
    </g>
    <g id="patch_134">
     <path d="M 497.132812 38.754687 
L 517.132812 38.754687 
L 517.132812 31.754687 
L 497.132812 31.754687 
z
" style="fill:#ff7f0e;"/>
    </g>
    <g id="text_34">
     <!-- EU_Sales -->
     <g transform="translate(525.132812 38.754687)scale(0.1 -0.1)">
      <defs>
       <path d="M 628 4666 
L 3578 4666 
L 3578 4134 
L 1259 4134 
L 1259 2753 
L 3481 2753 
L 3481 2222 
L 1259 2222 
L 1259 531 
L 3634 531 
L 3634 0 
L 628 0 
L 628 4666 
z
" id="DejaVuSans-45" transform="scale(0.015625)"/>
       <path d="M 556 4666 
L 1191 4666 
L 1191 1831 
Q 1191 1081 1462 751 
Q 1734 422 2344 422 
Q 2950 422 3222 751 
Q 3494 1081 3494 1831 
L 3494 4666 
L 4128 4666 
L 4128 1753 
Q 4128 841 3676 375 
Q 3225 -91 2344 -91 
Q 1459 -91 1007 375 
Q 556 841 556 1753 
L 556 4666 
z
" id="DejaVuSans-55" transform="scale(0.015625)"/>
      </defs>
      <use xlink:href="#DejaVuSans-45"/>
      <use x="63.183594" xlink:href="#DejaVuSans-55"/>
      <use x="136.376953" xlink:href="#DejaVuSans-5f"/>
      <use x="186.376953" xlink:href="#DejaVuSans-53"/>
      <use x="249.853516" xlink:href="#DejaVuSans-61"/>
      <use x="311.132812" xlink:href="#DejaVuSans-6c"/>
      <use x="338.916016" xlink:href="#DejaVuSans-65"/>
      <use x="400.439453" xlink:href="#DejaVuSans-73"/>
     </g>
    </g>
    <g id="patch_135">
     <path d="M 497.132812 53.710938 
L 517.132812 53.710938 
L 517.132812 46.710938 
L 497.132812 46.710938 
z
" style="fill:#2ca02c;"/>
    </g>
    <g id="text_35">
     <!-- JP_Sales -->
     <g transform="translate(525.132812 53.710938)scale(0.1 -0.1)">
      <defs>
       <path d="M 628 4666 
L 1259 4666 
L 1259 325 
Q 1259 -519 939 -900 
Q 619 -1281 -91 -1281 
L -331 -1281 
L -331 -750 
L -134 -750 
Q 284 -750 456 -515 
Q 628 -281 628 325 
L 628 4666 
z
" id="DejaVuSans-4a" transform="scale(0.015625)"/>
       <path d="M 1259 4147 
L 1259 2394 
L 2053 2394 
Q 2494 2394 2734 2622 
Q 2975 2850 2975 3272 
Q 2975 3691 2734 3919 
Q 2494 4147 2053 4147 
L 1259 4147 
z
M 628 4666 
L 2053 4666 
Q 2838 4666 3239 4311 
Q 3641 3956 3641 3272 
Q 3641 2581 3239 2228 
Q 2838 1875 2053 1875 
L 1259 1875 
L 1259 0 
L 628 0 
L 628 4666 
z
" id="DejaVuSans-50" transform="scale(0.015625)"/>
      </defs>
      <use xlink:href="#DejaVuSans-4a"/>
      <use x="29.492188" xlink:href="#DejaVuSans-50"/>
      <use x="89.794922" xlink:href="#DejaVuSans-5f"/>
      <use x="139.794922" xlink:href="#DejaVuSans-53"/>
      <use x="203.271484" xlink:href="#DejaVuSans-61"/>
      <use x="264.550781" xlink:href="#DejaVuSans-6c"/>
      <use x="292.333984" xlink:href="#DejaVuSans-65"/>
      <use x="353.857422" xlink:href="#DejaVuSans-73"/>
     </g>
    </g>
    <g id="patch_136">
     <path d="M 497.132812 68.667187 
L 517.132812 68.667187 
L 517.132812 61.667187 
L 497.132812 61.667187 
z
" style="fill:#d62728;"/>
    </g>
    <g id="text_36">
     <!-- Other_Sales -->
     <g transform="translate(525.132812 68.667187)scale(0.1 -0.1)">
      <defs>
       <path d="M 2522 4238 
Q 1834 4238 1429 3725 
Q 1025 3213 1025 2328 
Q 1025 1447 1429 934 
Q 1834 422 2522 422 
Q 3209 422 3611 934 
Q 4013 1447 4013 2328 
Q 4013 3213 3611 3725 
Q 3209 4238 2522 4238 
z
M 2522 4750 
Q 3503 4750 4090 4092 
Q 4678 3434 4678 2328 
Q 4678 1225 4090 567 
Q 3503 -91 2522 -91 
Q 1538 -91 948 565 
Q 359 1222 359 2328 
Q 359 3434 948 4092 
Q 1538 4750 2522 4750 
z
" id="DejaVuSans-4f" transform="scale(0.015625)"/>
       <path d="M 1172 4494 
L 1172 3500 
L 2356 3500 
L 2356 3053 
L 1172 3053 
L 1172 1153 
Q 1172 725 1289 603 
Q 1406 481 1766 481 
L 2356 481 
L 2356 0 
L 1766 0 
Q 1100 0 847 248 
Q 594 497 594 1153 
L 594 3053 
L 172 3053 
L 172 3500 
L 594 3500 
L 594 4494 
L 1172 4494 
z
" id="DejaVuSans-74" transform="scale(0.015625)"/>
       <path d="M 3513 2113 
L 3513 0 
L 2938 0 
L 2938 2094 
Q 2938 2591 2744 2837 
Q 2550 3084 2163 3084 
Q 1697 3084 1428 2787 
Q 1159 2491 1159 1978 
L 1159 0 
L 581 0 
L 581 4863 
L 1159 4863 
L 1159 2956 
Q 1366 3272 1645 3428 
Q 1925 3584 2291 3584 
Q 2894 3584 3203 3211 
Q 3513 2838 3513 2113 
z
" id="DejaVuSans-68" transform="scale(0.015625)"/>
      </defs>
      <use xlink:href="#DejaVuSans-4f"/>
      <use x="78.710938" xlink:href="#DejaVuSans-74"/>
      <use x="117.919922" xlink:href="#DejaVuSans-68"/>
      <use x="181.298828" xlink:href="#DejaVuSans-65"/>
      <use x="242.822266" xlink:href="#DejaVuSans-72"/>
      <use x="283.935547" xlink:href="#DejaVuSans-5f"/>
      <use x="333.935547" xlink:href="#DejaVuSans-53"/>
      <use x="397.412109" xlink:href="#DejaVuSans-61"/>
      <use x="458.691406" xlink:href="#DejaVuSans-6c"/>
      <use x="486.474609" xlink:href="#DejaVuSans-65"/>
      <use x="547.998047" xlink:href="#DejaVuSans-73"/>
     </g>
    </g>
    <g id="patch_137">
     <path d="M 497.132812 83.623437 
L 517.132812 83.623437 
L 517.132812 76.623437 
L 497.132812 76.623437 
z
" style="fill:#9467bd;"/>
    </g>
    <g id="text_37">
     <!-- Global_Sales -->
     <g transform="translate(525.132812 83.623437)scale(0.1 -0.1)">
      <defs>
       <path d="M 3809 666 
L 3809 1919 
L 2778 1919 
L 2778 2438 
L 4434 2438 
L 4434 434 
Q 4069 175 3628 42 
Q 3188 -91 2688 -91 
Q 1594 -91 976 548 
Q 359 1188 359 2328 
Q 359 3472 976 4111 
Q 1594 4750 2688 4750 
Q 3144 4750 3555 4637 
Q 3966 4525 4313 4306 
L 4313 3634 
Q 3963 3931 3569 4081 
Q 3175 4231 2741 4231 
Q 1884 4231 1454 3753 
Q 1025 3275 1025 2328 
Q 1025 1384 1454 906 
Q 1884 428 2741 428 
Q 3075 428 3337 486 
Q 3600 544 3809 666 
z
" id="DejaVuSans-47" transform="scale(0.015625)"/>
       <path d="M 3116 1747 
Q 3116 2381 2855 2742 
Q 2594 3103 2138 3103 
Q 1681 3103 1420 2742 
Q 1159 2381 1159 1747 
Q 1159 1113 1420 752 
Q 1681 391 2138 391 
Q 2594 391 2855 752 
Q 3116 1113 3116 1747 
z
M 1159 2969 
Q 1341 3281 1617 3432 
Q 1894 3584 2278 3584 
Q 2916 3584 3314 3078 
Q 3713 2572 3713 1747 
Q 3713 922 3314 415 
Q 2916 -91 2278 -91 
Q 1894 -91 1617 61 
Q 1341 213 1159 525 
L 1159 0 
L 581 0 
L 581 4863 
L 1159 4863 
L 1159 2969 
z
" id="DejaVuSans-62" transform="scale(0.015625)"/>
      </defs>
      <use xlink:href="#DejaVuSans-47"/>
      <use x="77.490234" xlink:href="#DejaVuSans-6c"/>
      <use x="105.273438" xlink:href="#DejaVuSans-6f"/>
      <use x="166.455078" xlink:href="#DejaVuSans-62"/>
      <use x="229.931641" xlink:href="#DejaVuSans-61"/>
      <use x="291.210938" xlink:href="#DejaVuSans-6c"/>
      <use x="318.994141" xlink:href="#DejaVuSans-5f"/>
      <use x="368.994141" xlink:href="#DejaVuSans-53"/>
      <use x="432.470703" xlink:href="#DejaVuSans-61"/>
      <use x="493.75" xlink:href="#DejaVuSans-6c"/>
      <use x="521.533203" xlink:href="#DejaVuSans-65"/>
      <use x="583.056641" xlink:href="#DejaVuSans-73"/>
     </g>
    </g>
   </g>
  </g>
 </g>
 <defs>
  <clipPath id="pab13fc895f">
   <rect height="271.8" width="558" x="39.65" y="7.2"/>
  </clipPath>
 </defs>
</svg>