<?xml version="1.0" encoding="utf-8" standalone="no"?>
<!DOCTYPE svg PUBLIC "-//W3C//DTD SVG 1.1//EN"
  "http://www.w3.org/Graphics/SVG/1.1/DTD/svg11.dtd">
<svg height="331.995585pt" version="1.1" viewBox="0 0 599.747168 331.995585" width="599.747168pt" xmlns="http://www.w3.org/2000/svg" xmlns:xlink="http://www.w3.org/1999/xlink">
 <metadata>
  <rdf:RDF xmlns:cc="http://creativecommons.org/ns#" xmlns:dc="http://purl.org/dc/elements/1.1/" xmlns:rdf="http://www.w3.org/1999/02/22-rdf-syntax-ns#">
   <cc:Work>
    <dc:type rdf:resource="http://purl.org/dc/dcmitype/StillImage"/>
    <dc:date>2023-12-10T11:19:27.137215</dc:date>
    <dc:format>image/svg+xml</dc:format>
    <dc:creator>
     <cc:Agent>
      <dc:title>Matplotlib v3.4.3, https://matplotlib.org/</dc:title>
     </cc:Agent>
    </dc:creator>
   </cc:Work>
  </rdf:RDF>
 </metadata>
 <defs>
  <style type="text/css">*{stroke-linecap:butt;stroke-linejoin:round;}</style>
 </defs>
 <g id="figure_1">
  <g id="patch_1">
   <path d="M 0 331.995585 
L 599.747168 331.995585 
L 599.747168 0 
L 0 0 
z
" style="fill:none;"/>
  </g>
  <g id="axes_1">
   <g id="patch_2">
    <path d="M 33.2875 279 
L 591.2875 279 
L 591.2875 7.2 
L 33.2875 7.2 
z
" style="fill:#ffffff;"/>
   </g>
   <g id="patch_3">
    <path clip-path="url(#pd99f988caf)" d="M 38.8675 279 
L 50.0275 279 
L 50.0275 279 
L 38.8675 279 
z
" style="fill:#1f77b4;"/>
   </g>
   <g id="patch_4">
    <path clip-path="url(#pd99f988caf)" d="M 61.1875 279 
L 72.3475 279 
L 72.3475 279 
L 61.1875 279 
z
" style="fill:#1f77b4;"/>
   </g>
   <g id="patch_5">
    <path clip-path="url(#pd99f988caf)" d="M 83.5075 279 
L 94.6675 279 
L 94.6675 278.98941 
L 83.5075 278.98941 
z
" style="fill:#1f77b4;"/>
   </g>
   <g id="patch_6">
    <path clip-path="url(#pd99f988caf)" d="M 105.8275 279 
L 116.9875 279 
L 116.9875 278.793495 
L 105.8275 278.793495 
z
" style="fill:#1f77b4;"/>
   </g>
   <g id="patch_7">
    <path clip-path="url(#pd99f988caf)" d="M 128.1475 279 
L 139.3075 279 
L 139.3075 274.811647 
L 128.1475 274.811647 
z
" style="fill:#1f77b4;"/>
   </g>
   <g id="patch_8">
    <path clip-path="url(#pd99f988caf)" d="M 150.4675 279 
L 161.6275 279 
L 161.6275 270.877455 
L 150.4675 270.877455 
z
" style="fill:#1f77b4;"/>
   </g>
   <g id="patch_9">
    <path clip-path="url(#pd99f988caf)" d="M 172.7875 279 
L 183.9475 279 
L 183.9475 269.400147 
L 172.7875 269.400147 
z
" style="fill:#1f77b4;"/>
   </g>
   <g id="patch_10">
    <path clip-path="url(#pd99f988caf)" d="M 195.1075 279 
L 206.2675 279 
L 206.2675 266.652037 
L 195.1075 266.652037 
z
" style="fill:#1f77b4;"/>
   </g>
   <g id="patch_11">
    <path clip-path="url(#pd99f988caf)" d="M 217.4275 279 
L 228.5875 279 
L 228.5875 258.169432 
L 217.4275 258.169432 
z
" style="fill:#1f77b4;"/>
   </g>
   <g id="patch_12">
    <path clip-path="url(#pd99f988caf)" d="M 239.7475 279 
L 250.9075 279 
L 250.9075 205.229924 
L 239.7475 205.229924 
z
" style="fill:#1f77b4;"/>
   </g>
   <g id="patch_13">
    <path clip-path="url(#pd99f988caf)" d="M 262.0675 279 
L 273.2275 279 
L 273.2275 192.28892 
L 262.0675 192.28892 
z
" style="fill:#1f77b4;"/>
   </g>
   <g id="patch_14">
    <path clip-path="url(#pd99f988caf)" d="M 284.3875 279 
L 295.5475 279 
L 295.5475 203.239 
L 284.3875 203.239 
z
" style="fill:#1f77b4;"/>
   </g>
   <g id="patch_15">
    <path clip-path="url(#pd99f988caf)" d="M 306.7075 279 
L 317.8675 279 
L 317.8675 186.93037 
L 306.7075 186.93037 
z
" style="fill:#1f77b4;"/>
   </g>
   <g id="patch_16">
    <path clip-path="url(#pd99f988caf)" d="M 329.0275 279 
L 340.1875 279 
L 340.1875 184.669401 
L 329.0275 184.669401 
z
" style="fill:#1f77b4;"/>
   </g>
   <g id="patch_17">
    <path clip-path="url(#pd99f988caf)" d="M 351.3475 279 
L 362.5075 279 
L 362.5075 159.496924 
L 351.3475 159.496924 
z
" style="fill:#1f77b4;"/>
   </g>
   <g id="patch_18">
    <path clip-path="url(#pd99f988caf)" d="M 373.6675 279 
L 384.8275 279 
L 384.8275 154.244275 
L 373.6675 154.244275 
z
" style="fill:#1f77b4;"/>
   </g>
   <g id="patch_19">
    <path clip-path="url(#pd99f988caf)" d="M 395.9875 279 
L 407.1475 279 
L 407.1475 143.315375 
L 395.9875 143.315375 
z
" style="fill:#1f77b4;"/>
   </g>
   <g id="patch_20">
    <path clip-path="url(#pd99f988caf)" d="M 418.3075 279 
L 429.4675 279 
L 429.4675 156.304033 
L 418.3075 156.304033 
z
" style="fill:#1f77b4;"/>
   </g>
   <g id="patch_21">
    <path clip-path="url(#pd99f988caf)" d="M 440.6275 279 
L 451.7875 279 
L 451.7875 166.089212 
L 440.6275 166.089212 
z
" style="fill:#1f77b4;"/>
   </g>
   <g id="patch_22">
    <path clip-path="url(#pd99f988caf)" d="M 462.9475 279 
L 474.1075 279 
L 474.1075 178.066524 
L 462.9475 178.066524 
z
" style="fill:#1f77b4;"/>
   </g>
   <g id="patch_23">
    <path clip-path="url(#pd99f988caf)" d="M 485.2675 279 
L 496.4275 279 
L 496.4275 208.078639 
L 485.2675 208.078639 
z
" style="fill:#1f77b4;"/>
   </g>
   <g id="patch_24">
    <path clip-path="url(#pd99f988caf)" d="M 507.5875 279 
L 518.7475 279 
L 518.7475 214.988627 
L 507.5875 214.988627 
z
" style="fill:#1f77b4;"/>
   </g>
   <g id="patch_25">
    <path clip-path="url(#pd99f988caf)" d="M 529.9075 279 
L 541.0675 279 
L 541.0675 236.968212 
L 529.9075 236.968212 
z
" style="fill:#1f77b4;"/>
   </g>
   <g id="patch_26">
    <path clip-path="url(#pd99f988caf)" d="M 552.2275 279 
L 563.3875 279 
L 563.3875 243.073359 
L 552.2275 243.073359 
z
" style="fill:#1f77b4;"/>
   </g>
   <g id="patch_27">
    <path clip-path="url(#pd99f988caf)" d="M 574.5475 279 
L 585.7075 279 
L 585.7075 260.721626 
L 574.5475 260.721626 
z
" style="fill:#1f77b4;"/>
   </g>
   <g id="patch_28">
    <path clip-path="url(#pd99f988caf)" d="M 38.8675 279 
L 50.0275 279 
L 50.0275 278.984115 
L 38.8675 278.984115 
z
" style="fill:#ff7f0e;"/>
   </g>
   <g id="patch_29">
    <path clip-path="url(#pd99f988caf)" d="M 61.1875 279 
L 72.3475 279 
L 72.3475 278.98941 
L 61.1875 278.98941 
z
" style="fill:#ff7f0e;"/>
   </g>
   <g id="patch_30">
    <path clip-path="url(#pd99f988caf)" d="M 83.5075 279 
L 94.6675 279 
L 94.6675 279 
L 83.5075 279 
z
" style="fill:#ff7f0e;"/>
   </g>
   <g id="patch_31">
    <path clip-path="url(#pd99f988caf)" d="M 105.8275 278.793495 
L 116.9875 278.793495 
L 116.9875 278.655824 
L 105.8275 278.655824 
z
" style="fill:#ff7f0e;"/>
   </g>
   <g id="patch_32">
    <path clip-path="url(#pd99f988caf)" d="M 128.1475 274.811647 
L 139.3075 274.811647 
L 139.3075 271.168681 
L 128.1475 271.168681 
z
" style="fill:#ff7f0e;"/>
   </g>
   <g id="patch_33">
    <path clip-path="url(#pd99f988caf)" d="M 150.4675 270.877455 
L 161.6275 270.877455 
L 161.6275 266.286682 
L 150.4675 266.286682 
z
" style="fill:#ff7f0e;"/>
   </g>
   <g id="patch_34">
    <path clip-path="url(#pd99f988caf)" d="M 172.7875 269.400147 
L 183.9475 269.400147 
L 183.9475 262.9773 
L 172.7875 262.9773 
z
" style="fill:#ff7f0e;"/>
   </g>
   <g id="patch_35">
    <path clip-path="url(#pd99f988caf)" d="M 195.1075 266.652037 
L 206.2675 266.652037 
L 206.2675 258.344167 
L 195.1075 258.344167 
z
" style="fill:#ff7f0e;"/>
   </g>
   <g id="patch_36">
    <path clip-path="url(#pd99f988caf)" d="M 217.4275 258.169432 
L 228.5875 258.169432 
L 228.5875 244.826007 
L 217.4275 244.826007 
z
" style="fill:#ff7f0e;"/>
   </g>
   <g id="patch_37">
    <path clip-path="url(#pd99f988caf)" d="M 239.7475 205.229924 
L 250.9075 205.229924 
L 250.9075 166.655778 
L 239.7475 166.655778 
z
" style="fill:#ff7f0e;"/>
   </g>
   <g id="patch_38">
    <path clip-path="url(#pd99f988caf)" d="M 262.0675 192.28892 
L 273.2275 192.28892 
L 273.2275 147.794953 
L 262.0675 147.794953 
z
" style="fill:#ff7f0e;"/>
   </g>
   <g id="patch_39">
    <path clip-path="url(#pd99f988caf)" d="M 284.3875 203.239 
L 295.5475 203.239 
L 295.5475 163.441707 
L 284.3875 163.441707 
z
" style="fill:#ff7f0e;"/>
   </g>
   <g id="patch_40">
    <path clip-path="url(#pd99f988caf)" d="M 306.7075 186.93037 
L 317.8675 186.93037 
L 317.8675 142.976494 
L 306.7075 142.976494 
z
" style="fill:#ff7f0e;"/>
   </g>
   <g id="patch_41">
    <path clip-path="url(#pd99f988caf)" d="M 329.0275 184.669401 
L 340.1875 184.669401 
L 340.1875 138.761666 
L 329.0275 138.761666 
z
" style="fill:#ff7f0e;"/>
   </g>
   <g id="patch_42">
    <path clip-path="url(#pd99f988caf)" d="M 351.3475 159.496924 
L 362.5075 159.496924 
L 362.5075 104.148187 
L 351.3475 104.148187 
z
" style="fill:#ff7f0e;"/>
   </g>
   <g id="patch_43">
    <path clip-path="url(#pd99f988caf)" d="M 373.6675 154.244275 
L 384.8275 154.244275 
L 384.8275 88.210208 
L 373.6675 88.210208 
z
" style="fill:#ff7f0e;"/>
   </g>
   <g id="patch_44">
    <path clip-path="url(#pd99f988caf)" d="M 395.9875 143.315375 
L 407.1475 143.315375 
L 407.1475 70.609595 
L 395.9875 70.609595 
z
" style="fill:#ff7f0e;"/>
   </g>
   <g id="patch_45">
    <path clip-path="url(#pd99f988caf)" d="M 418.3075 156.304033 
L 429.4675 156.304033 
L 429.4675 80.288873 
L 418.3075 80.288873 
z
" style="fill:#ff7f0e;"/>
   </g>
   <g id="patch_46">
    <path clip-path="url(#pd99f988caf)" d="M 440.6275 166.089212 
L 451.7875 166.089212 
L 451.7875 97.185249 
L 440.6275 97.185249 
z
" style="fill:#ff7f0e;"/>
   </g>
   <g id="patch_47">
    <path clip-path="url(#pd99f988caf)" d="M 462.9475 178.066524 
L 474.1075 178.066524 
L 474.1075 110.364529 
L 462.9475 110.364529 
z
" style="fill:#ff7f0e;"/>
   </g>
   <g id="patch_48">
    <path clip-path="url(#pd99f988caf)" d="M 485.2675 208.078639 
L 496.4275 208.078639 
L 496.4275 155.615682 
L 485.2675 155.615682 
z
" style="fill:#ff7f0e;"/>
   </g>
   <g id="patch_49">
    <path clip-path="url(#pd99f988caf)" d="M 507.5875 214.988627 
L 518.7475 214.988627 
L 518.7475 164.400103 
L 507.5875 164.400103 
z
" style="fill:#ff7f0e;"/>
   </g>
   <g id="patch_50">
    <path clip-path="url(#pd99f988caf)" d="M 529.9075 236.968212 
L 541.0675 236.968212 
L 541.0675 196.503748 
L 529.9075 196.503748 
z
" style="fill:#ff7f0e;"/>
   </g>
   <g id="patch_51">
    <path clip-path="url(#pd99f988caf)" d="M 552.2275 243.073359 
L 563.3875 243.073359 
L 563.3875 211.033255 
L 552.2275 211.033255 
z
" style="fill:#ff7f0e;"/>
   </g>
   <g id="patch_52">
    <path clip-path="url(#pd99f988caf)" d="M 574.5475 260.721626 
L 585.7075 260.721626 
L 585.7075 238.996201 
L 574.5475 238.996201 
z
" style="fill:#ff7f0e;"/>
   </g>
   <g id="patch_53">
    <path clip-path="url(#pd99f988caf)" d="M 38.8675 279 
L 50.0275 279 
L 50.0275 279 
L 38.8675 279 
z
" style="fill:#2ca02c;"/>
   </g>
   <g id="patch_54">
    <path clip-path="url(#pd99f988caf)" d="M 61.1875 279 
L 72.3475 279 
L 72.3475 279 
L 61.1875 279 
z
" style="fill:#2ca02c;"/>
   </g>
   <g id="patch_55">
    <path clip-path="url(#pd99f988caf)" d="M 83.5075 279 
L 94.6675 279 
L 94.6675 279 
L 83.5075 279 
z
" style="fill:#2ca02c;"/>
   </g>
   <g id="patch_56">
    <path clip-path="url(#pd99f988caf)" d="M 105.8275 278.655824 
L 116.9875 278.655824 
L 116.9875 278.375189 
L 105.8275 278.375189 
z
" style="fill:#2ca02c;"/>
   </g>
   <g id="patch_57">
    <path clip-path="url(#pd99f988caf)" d="M 128.1475 271.168681 
L 139.3075 271.168681 
L 139.3075 269.018907 
L 128.1475 269.018907 
z
" style="fill:#2ca02c;"/>
   </g>
   <g id="patch_58">
    <path clip-path="url(#pd99f988caf)" d="M 150.4675 266.286682 
L 161.6275 266.286682 
L 161.6275 261.515878 
L 150.4675 261.515878 
z
" style="fill:#2ca02c;"/>
   </g>
   <g id="patch_59">
    <path clip-path="url(#pd99f988caf)" d="M 172.7875 262.9773 
L 183.9475 262.9773 
L 183.9475 257.253395 
L 172.7875 257.253395 
z
" style="fill:#2ca02c;"/>
   </g>
   <g id="patch_60">
    <path clip-path="url(#pd99f988caf)" d="M 195.1075 258.344167 
L 206.2675 258.344167 
L 206.2675 253.223892 
L 195.1075 253.223892 
z
" style="fill:#2ca02c;"/>
   </g>
   <g id="patch_61">
    <path clip-path="url(#pd99f988caf)" d="M 217.4275 244.826007 
L 228.5875 244.826007 
L 228.5875 238.858531 
L 217.4275 238.858531 
z
" style="fill:#2ca02c;"/>
   </g>
   <g id="patch_62">
    <path clip-path="url(#pd99f988caf)" d="M 239.7475 166.655778 
L 250.9075 166.655778 
L 250.9075 154.17544 
L 239.7475 154.17544 
z
" style="fill:#2ca02c;"/>
   </g>
   <g id="patch_63">
    <path clip-path="url(#pd99f988caf)" d="M 262.0675 147.794953 
L 273.2275 147.794953 
L 273.2275 137.94094 
L 262.0675 137.94094 
z
" style="fill:#2ca02c;"/>
   </g>
   <g id="patch_64">
    <path clip-path="url(#pd99f988caf)" d="M 284.3875 163.441707 
L 295.5475 163.441707 
L 295.5475 154.31311 
L 284.3875 154.31311 
z
" style="fill:#2ca02c;"/>
   </g>
   <g id="patch_65">
    <path clip-path="url(#pd99f988caf)" d="M 306.7075 142.976494 
L 317.8675 142.976494 
L 317.8675 130.935642 
L 306.7075 130.935642 
z
" style="fill:#2ca02c;"/>
   </g>
   <g id="patch_66">
    <path clip-path="url(#pd99f988caf)" d="M 329.0275 138.761666 
L 340.1875 138.761666 
L 340.1875 118.518844 
L 329.0275 118.518844 
z
" style="fill:#2ca02c;"/>
   </g>
   <g id="patch_67">
    <path clip-path="url(#pd99f988caf)" d="M 351.3475 104.148187 
L 362.5075 104.148187 
L 362.5075 82.740463 
L 351.3475 82.740463 
z
" style="fill:#2ca02c;"/>
   </g>
   <g id="patch_68">
    <path clip-path="url(#pd99f988caf)" d="M 373.6675 88.210208 
L 384.8275 88.210208 
L 384.8275 69.656494 
L 373.6675 69.656494 
z
" style="fill:#2ca02c;"/>
   </g>
   <g id="patch_69">
    <path clip-path="url(#pd99f988caf)" d="M 395.9875 70.609595 
L 407.1475 70.609595 
L 407.1475 50.795669 
L 395.9875 50.795669 
z
" style="fill:#2ca02c;"/>
   </g>
   <g id="patch_70">
    <path clip-path="url(#pd99f988caf)" d="M 418.3075 80.288873 
L 429.4675 80.288873 
L 429.4675 62.13758 
L 418.3075 62.13758 
z
" style="fill:#2ca02c;"/>
   </g>
   <g id="patch_71">
    <path clip-path="url(#pd99f988caf)" d="M 440.6275 97.185249 
L 451.7875 97.185249 
L 451.7875 83.84712 
L 440.6275 83.84712 
z
" style="fill:#2ca02c;"/>
   </g>
   <g id="patch_72">
    <path clip-path="url(#pd99f988caf)" d="M 462.9475 110.364529 
L 474.1075 110.364529 
L 474.1075 98.101286 
L 462.9475 98.101286 
z
" style="fill:#2ca02c;"/>
   </g>
   <g id="patch_73">
    <path clip-path="url(#pd99f988caf)" d="M 485.2675 155.615682 
L 496.4275 155.615682 
L 496.4275 141.128535 
L 485.2675 141.128535 
z
" style="fill:#2ca02c;"/>
   </g>
   <g id="patch_74">
    <path clip-path="url(#pd99f988caf)" d="M 507.5875 164.400103 
L 518.7475 164.400103 
L 518.7475 154.31311 
L 507.5875 154.31311 
z
" style="fill:#2ca02c;"/>
   </g>
   <g id="patch_75">
    <path clip-path="url(#pd99f988caf)" d="M 529.9075 196.503748 
L 541.0675 196.503748 
L 541.0675 189.080144 
L 529.9075 189.080144 
z
" style="fill:#2ca02c;"/>
   </g>
   <g id="patch_76">
    <path clip-path="url(#pd99f988caf)" d="M 552.2275 211.033255 
L 563.3875 211.033255 
L 563.3875 204.758668 
L 552.2275 204.758668 
z
" style="fill:#2ca02c;"/>
   </g>
   <g id="patch_77">
    <path clip-path="url(#pd99f988caf)" d="M 574.5475 238.996201 
L 585.7075 238.996201 
L 585.7075 236.698167 
L 574.5475 236.698167 
z
" style="fill:#2ca02c;"/>
   </g>
   <g id="patch_78">
    <path clip-path="url(#pd99f988caf)" d="M 38.8675 278.984115 
L 50.0275 278.984115 
L 50.0275 278.97882 
L 38.8675 278.97882 
z
" style="fill:#d62728;"/>
   </g>
   <g id="patch_79">
    <path clip-path="url(#pd99f988caf)" d="M 61.1875 278.98941 
L 72.3475 278.98941 
L 72.3475 278.984115 
L 61.1875 278.984115 
z
" style="fill:#d62728;"/>
   </g>
   <g id="patch_80">
    <path clip-path="url(#pd99f988caf)" d="M 83.5075 279 
L 94.6675 279 
L 94.6675 279 
L 83.5075 279 
z
" style="fill:#d62728;"/>
   </g>
   <g id="patch_81">
    <path clip-path="url(#pd99f988caf)" d="M 105.8275 278.375189 
L 116.9875 278.375189 
L 116.9875 278.332829 
L 105.8275 278.332829 
z
" style="fill:#d62728;"/>
   </g>
   <g id="patch_82">
    <path clip-path="url(#pd99f988caf)" d="M 128.1475 269.018907 
L 139.3075 269.018907 
L 139.3075 268.362325 
L 128.1475 268.362325 
z
" style="fill:#d62728;"/>
   </g>
   <g id="patch_83">
    <path clip-path="url(#pd99f988caf)" d="M 150.4675 261.515878 
L 161.6275 261.515878 
L 161.6275 260.446286 
L 150.4675 260.446286 
z
" style="fill:#d62728;"/>
   </g>
   <g id="patch_84">
    <path clip-path="url(#pd99f988caf)" d="M 172.7875 257.253395 
L 183.9475 257.253395 
L 183.9475 256.120263 
L 172.7875 256.120263 
z
" style="fill:#d62728;"/>
   </g>
   <g id="patch_85">
    <path clip-path="url(#pd99f988caf)" d="M 195.1075 253.223892 
L 206.2675 253.223892 
L 206.2675 251.926615 
L 195.1075 251.926615 
z
" style="fill:#d62728;"/>
   </g>
   <g id="patch_86">
    <path clip-path="url(#pd99f988caf)" d="M 217.4275 238.858531 
L 228.5875 238.858531 
L 228.5875 235.951571 
L 217.4275 235.951571 
z
" style="fill:#d62728;"/>
   </g>
   <g id="patch_87">
    <path clip-path="url(#pd99f988caf)" d="M 239.7475 154.17544 
L 250.9075 154.17544 
L 250.9075 144.506752 
L 239.7475 144.506752 
z
" style="fill:#d62728;"/>
   </g>
   <g id="patch_88">
    <path clip-path="url(#pd99f988caf)" d="M 262.0675 137.94094 
L 273.2275 137.94094 
L 273.2275 126.133068 
L 262.0675 126.133068 
z
" style="fill:#d62728;"/>
   </g>
   <g id="patch_89">
    <path clip-path="url(#pd99f988caf)" d="M 284.3875 154.31311 
L 295.5475 154.31311 
L 295.5475 143.892531 
L 284.3875 143.892531 
z
" style="fill:#d62728;"/>
   </g>
   <g id="patch_90">
    <path clip-path="url(#pd99f988caf)" d="M 306.7075 130.935642 
L 317.8675 130.935642 
L 317.8675 108.62247 
L 306.7075 108.62247 
z
" style="fill:#d62728;"/>
   </g>
   <g id="patch_91">
    <path clip-path="url(#pd99f988caf)" d="M 329.0275 118.518844 
L 340.1875 118.518844 
L 340.1875 102.077838 
L 329.0275 102.077838 
z
" style="fill:#d62728;"/>
   </g>
   <g id="patch_92">
    <path clip-path="url(#pd99f988caf)" d="M 351.3475 82.740463 
L 362.5075 82.740463 
L 362.5075 58.436368 
L 351.3475 58.436368 
z
" style="fill:#d62728;"/>
   </g>
   <g id="patch_93">
    <path clip-path="url(#pd99f988caf)" d="M 373.6675 69.656494 
L 384.8275 69.656494 
L 384.8275 37.558144 
L 373.6675 37.558144 
z
" style="fill:#d62728;"/>
   </g>
   <g id="patch_94">
    <path clip-path="url(#pd99f988caf)" d="M 395.9875 50.795669 
L 407.1475 50.795669 
L 407.1475 20.142857 
L 395.9875 20.142857 
z
" style="fill:#d62728;"/>
   </g>
   <g id="patch_95">
    <path clip-path="url(#pd99f988caf)" d="M 418.3075 62.13758 
L 429.4675 62.13758 
L 429.4675 35.530156 
L 418.3075 35.530156 
z
" style="fill:#d62728;"/>
   </g>
   <g id="patch_96">
    <path clip-path="url(#pd99f988caf)" d="M 440.6275 83.84712 
L 451.7875 83.84712 
L 451.7875 60.421996 
L 440.6275 60.421996 
z
" style="fill:#d62728;"/>
   </g>
   <g id="patch_97">
    <path clip-path="url(#pd99f988caf)" d="M 462.9475 98.101286 
L 474.1075 98.101286 
L 474.1075 75.809295 
L 462.9475 75.809295 
z
" style="fill:#d62728;"/>
   </g>
   <g id="patch_98">
    <path clip-path="url(#pd99f988caf)" d="M 485.2675 141.128535 
L 496.4275 141.128535 
L 496.4275 124.41219 
L 485.2675 124.41219 
z
" style="fill:#d62728;"/>
   </g>
   <g id="patch_99">
    <path clip-path="url(#pd99f988caf)" d="M 507.5875 154.31311 
L 518.7475 154.31311 
L 518.7475 137.474979 
L 507.5875 137.474979 
z
" style="fill:#d62728;"/>
   </g>
   <g id="patch_100">
    <path clip-path="url(#pd99f988caf)" d="M 529.9075 189.080144 
L 541.0675 189.080144 
L 541.0675 177.124012 
L 529.9075 177.124012 
z
" style="fill:#d62728;"/>
   </g>
   <g id="patch_101">
    <path clip-path="url(#pd99f988caf)" d="M 552.2275 204.758668 
L 563.3875 204.758668 
L 563.3875 194.77228 
L 552.2275 194.77228 
z
" style="fill:#d62728;"/>
   </g>
   <g id="patch_102">
    <path clip-path="url(#pd99f988caf)" d="M 574.5475 236.698167 
L 585.7075 236.698167 
L 585.7075 230.561251 
L 574.5475 230.561251 
z
" style="fill:#d62728;"/>
   </g>
   <g id="matplotlib.axis_1">
    <g id="xtick_1">
     <g id="line2d_1">
      <defs>
       <path d="M 0 0 
L 0 3.5 
" id="m11e45de00d" style="stroke:#000000;stroke-width:0.8;"/>
      </defs>
      <g>
       <use style="stroke:#000000;stroke-width:0.8;" x="44.4475" xlink:href="#m11e45de00d" y="279"/>
      </g>
     </g>
     <g id="text_1">
      <!-- 1985 -->
      <g transform="translate(37.400739 309.368774)rotate(-45)scale(0.1 -0.1)">
       <defs>
        <path d="M 794 531 
L 1825 531 
L 1825 4091 
L 703 3866 
L 703 4441 
L 1819 4666 
L 2450 4666 
L 2450 531 
L 3481 531 
L 3481 0 
L 794 0 
L 794 531 
z
" id="DejaVuSans-31" transform="scale(0.015625)"/>
        <path d="M 703 97 
L 703 672 
Q 941 559 1184 500 
Q 1428 441 1663 441 
Q 2288 441 2617 861 
Q 2947 1281 2994 2138 
Q 2813 1869 2534 1725 
Q 2256 1581 1919 1581 
Q 1219 1581 811 2004 
Q 403 2428 403 3163 
Q 403 3881 828 4315 
Q 1253 4750 1959 4750 
Q 2769 4750 3195 4129 
Q 3622 3509 3622 2328 
Q 3622 1225 3098 567 
Q 2575 -91 1691 -91 
Q 1453 -91 1209 -44 
Q 966 3 703 97 
z
M 1959 2075 
Q 2384 2075 2632 2365 
Q 2881 2656 2881 3163 
Q 2881 3666 2632 3958 
Q 2384 4250 1959 4250 
Q 1534 4250 1286 3958 
Q 1038 3666 1038 3163 
Q 1038 2656 1286 2365 
Q 1534 2075 1959 2075 
z
" id="DejaVuSans-39" transform="scale(0.015625)"/>
        <path d="M 2034 2216 
Q 1584 2216 1326 1975 
Q 1069 1734 1069 1313 
Q 1069 891 1326 650 
Q 1584 409 2034 409 
Q 2484 409 2743 651 
Q 3003 894 3003 1313 
Q 3003 1734 2745 1975 
Q 2488 2216 2034 2216 
z
M 1403 2484 
Q 997 2584 770 2862 
Q 544 3141 544 3541 
Q 544 4100 942 4425 
Q 1341 4750 2034 4750 
Q 2731 4750 3128 4425 
Q 3525 4100 3525 3541 
Q 3525 3141 3298 2862 
Q 3072 2584 2669 2484 
Q 3125 2378 3379 2068 
Q 3634 1759 3634 1313 
Q 3634 634 3220 271 
Q 2806 -91 2034 -91 
Q 1263 -91 848 271 
Q 434 634 434 1313 
Q 434 1759 690 2068 
Q 947 2378 1403 2484 
z
M 1172 3481 
Q 1172 3119 1398 2916 
Q 1625 2713 2034 2713 
Q 2441 2713 2670 2916 
Q 2900 3119 2900 3481 
Q 2900 3844 2670 4047 
Q 2441 4250 2034 4250 
Q 1625 4250 1398 4047 
Q 1172 3844 1172 3481 
z
" id="DejaVuSans-38" transform="scale(0.015625)"/>
        <path d="M 691 4666 
L 3169 4666 
L 3169 4134 
L 1269 4134 
L 1269 2991 
Q 1406 3038 1543 3061 
Q 1681 3084 1819 3084 
Q 2600 3084 3056 2656 
Q 3513 2228 3513 1497 
Q 3513 744 3044 326 
Q 2575 -91 1722 -91 
Q 1428 -91 1123 -41 
Q 819 9 494 109 
L 494 744 
Q 775 591 1075 516 
Q 1375 441 1709 441 
Q 2250 441 2565 725 
Q 2881 1009 2881 1497 
Q 2881 1984 2565 2268 
Q 2250 2553 1709 2553 
Q 1456 2553 1204 2497 
Q 953 2441 691 2322 
L 691 4666 
z
" id="DejaVuSans-35" transform="scale(0.015625)"/>
       </defs>
       <use xlink:href="#DejaVuSans-31"/>
       <use x="63.623047" xlink:href="#DejaVuSans-39"/>
       <use x="127.246094" xlink:href="#DejaVuSans-38"/>
       <use x="190.869141" xlink:href="#DejaVuSans-35"/>
      </g>
     </g>
    </g>
    <g id="xtick_2">
     <g id="line2d_2">
      <g>
       <use style="stroke:#000000;stroke-width:0.8;" x="66.7675" xlink:href="#m11e45de00d" y="279"/>
      </g>
     </g>
     <g id="text_2">
      <!-- 1988 -->
      <g transform="translate(59.720739 309.368774)rotate(-45)scale(0.1 -0.1)">
       <use xlink:href="#DejaVuSans-31"/>
       <use x="63.623047" xlink:href="#DejaVuSans-39"/>
       <use x="127.246094" xlink:href="#DejaVuSans-38"/>
       <use x="190.869141" xlink:href="#DejaVuSans-38"/>
      </g>
     </g>
    </g>
    <g id="xtick_3">
     <g id="line2d_3">
      <g>
       <use style="stroke:#000000;stroke-width:0.8;" x="89.0875" xlink:href="#m11e45de00d" y="279"/>
      </g>
     </g>
     <g id="text_3">
      <!-- 1992 -->
      <g transform="translate(82.040739 309.368774)rotate(-45)scale(0.1 -0.1)">
       <defs>
        <path d="M 1228 531 
L 3431 531 
L 3431 0 
L 469 0 
L 469 531 
Q 828 903 1448 1529 
Q 2069 2156 2228 2338 
Q 2531 2678 2651 2914 
Q 2772 3150 2772 3378 
Q 2772 3750 2511 3984 
Q 2250 4219 1831 4219 
Q 1534 4219 1204 4116 
Q 875 4013 500 3803 
L 500 4441 
Q 881 4594 1212 4672 
Q 1544 4750 1819 4750 
Q 2544 4750 2975 4387 
Q 3406 4025 3406 3419 
Q 3406 3131 3298 2873 
Q 3191 2616 2906 2266 
Q 2828 2175 2409 1742 
Q 1991 1309 1228 531 
z
" id="DejaVuSans-32" transform="scale(0.015625)"/>
       </defs>
       <use xlink:href="#DejaVuSans-31"/>
       <use x="63.623047" xlink:href="#DejaVuSans-39"/>
       <use x="127.246094" xlink:href="#DejaVuSans-39"/>
       <use x="190.869141" xlink:href="#DejaVuSans-32"/>
      </g>
     </g>
    </g>
    <g id="xtick_4">
     <g id="line2d_4">
      <g>
       <use style="stroke:#000000;stroke-width:0.8;" x="111.4075" xlink:href="#m11e45de00d" y="279"/>
      </g>
     </g>
     <g id="text_4">
      <!-- 1994 -->
      <g transform="translate(104.360739 309.368774)rotate(-45)scale(0.1 -0.1)">
       <defs>
        <path d="M 2419 4116 
L 825 1625 
L 2419 1625 
L 2419 4116 
z
M 2253 4666 
L 3047 4666 
L 3047 1625 
L 3713 1625 
L 3713 1100 
L 3047 1100 
L 3047 0 
L 2419 0 
L 2419 1100 
L 313 1100 
L 313 1709 
L 2253 4666 
z
" id="DejaVuSans-34" transform="scale(0.015625)"/>
       </defs>
       <use xlink:href="#DejaVuSans-31"/>
       <use x="63.623047" xlink:href="#DejaVuSans-39"/>
       <use x="127.246094" xlink:href="#DejaVuSans-39"/>
       <use x="190.869141" xlink:href="#DejaVuSans-34"/>
      </g>
     </g>
    </g>
    <g id="xtick_5">
     <g id="line2d_5">
      <g>
       <use style="stroke:#000000;stroke-width:0.8;" x="133.7275" xlink:href="#m11e45de00d" y="279"/>
      </g>
     </g>
     <g id="text_5">
      <!-- 1996 -->
      <g transform="translate(126.680739 309.368774)rotate(-45)scale(0.1 -0.1)">
       <defs>
        <path d="M 2113 2584 
Q 1688 2584 1439 2293 
Q 1191 2003 1191 1497 
Q 1191 994 1439 701 
Q 1688 409 2113 409 
Q 2538 409 2786 701 
Q 3034 994 3034 1497 
Q 3034 2003 2786 2293 
Q 2538 2584 2113 2584 
z
M 3366 4563 
L 3366 3988 
Q 3128 4100 2886 4159 
Q 2644 4219 2406 4219 
Q 1781 4219 1451 3797 
Q 1122 3375 1075 2522 
Q 1259 2794 1537 2939 
Q 1816 3084 2150 3084 
Q 2853 3084 3261 2657 
Q 3669 2231 3669 1497 
Q 3669 778 3244 343 
Q 2819 -91 2113 -91 
Q 1303 -91 875 529 
Q 447 1150 447 2328 
Q 447 3434 972 4092 
Q 1497 4750 2381 4750 
Q 2619 4750 2861 4703 
Q 3103 4656 3366 4563 
z
" id="DejaVuSans-36" transform="scale(0.015625)"/>
       </defs>
       <use xlink:href="#DejaVuSans-31"/>
       <use x="63.623047" xlink:href="#DejaVuSans-39"/>
       <use x="127.246094" xlink:href="#DejaVuSans-39"/>
       <use x="190.869141" xlink:href="#DejaVuSans-36"/>
      </g>
     </g>
    </g>
    <g id="xtick_6">
     <g id="line2d_6">
      <g>
       <use style="stroke:#000000;stroke-width:0.8;" x="156.0475" xlink:href="#m11e45de00d" y="279"/>
      </g>
     </g>
     <g id="text_6">
      <!-- 1997 -->
      <g transform="translate(149.000739 309.368774)rotate(-45)scale(0.1 -0.1)">
       <defs>
        <path d="M 525 4666 
L 3525 4666 
L 3525 4397 
L 1831 0 
L 1172 0 
L 2766 4134 
L 525 4134 
L 525 4666 
z
" id="DejaVuSans-37" transform="scale(0.015625)"/>
       </defs>
       <use xlink:href="#DejaVuSans-31"/>
       <use x="63.623047" xlink:href="#DejaVuSans-39"/>
       <use x="127.246094" xlink:href="#DejaVuSans-39"/>
       <use x="190.869141" xlink:href="#DejaVuSans-37"/>
      </g>
     </g>
    </g>
    <g id="xtick_7">
     <g id="line2d_7">
      <g>
       <use style="stroke:#000000;stroke-width:0.8;" x="178.3675" xlink:href="#m11e45de00d" y="279"/>
      </g>
     </g>
     <g id="text_7">
      <!-- 1998 -->
      <g transform="translate(171.320739 309.368774)rotate(-45)scale(0.1 -0.1)">
       <use xlink:href="#DejaVuSans-31"/>
       <use x="63.623047" xlink:href="#DejaVuSans-39"/>
       <use x="127.246094" xlink:href="#DejaVuSans-39"/>
       <use x="190.869141" xlink:href="#DejaVuSans-38"/>
      </g>
     </g>
    </g>
    <g id="xtick_8">
     <g id="line2d_8">
      <g>
       <use style="stroke:#000000;stroke-width:0.8;" x="200.6875" xlink:href="#m11e45de00d" y="279"/>
      </g>
     </g>
     <g id="text_8">
      <!-- 1999 -->
      <g transform="translate(193.640739 309.368774)rotate(-45)scale(0.1 -0.1)">
       <use xlink:href="#DejaVuSans-31"/>
       <use x="63.623047" xlink:href="#DejaVuSans-39"/>
       <use x="127.246094" xlink:href="#DejaVuSans-39"/>
       <use x="190.869141" xlink:href="#DejaVuSans-39"/>
      </g>
     </g>
    </g>
    <g id="xtick_9">
     <g id="line2d_9">
      <g>
       <use style="stroke:#000000;stroke-width:0.8;" x="223.0075" xlink:href="#m11e45de00d" y="279"/>
      </g>
     </g>
     <g id="text_9">
      <!-- 2000 -->
      <g transform="translate(215.960739 309.368774)rotate(-45)scale(0.1 -0.1)">
       <defs>
        <path d="M 2034 4250 
Q 1547 4250 1301 3770 
Q 1056 3291 1056 2328 
Q 1056 1369 1301 889 
Q 1547 409 2034 409 
Q 2525 409 2770 889 
Q 3016 1369 3016 2328 
Q 3016 3291 2770 3770 
Q 2525 4250 2034 4250 
z
M 2034 4750 
Q 2819 4750 3233 4129 
Q 3647 3509 3647 2328 
Q 3647 1150 3233 529 
Q 2819 -91 2034 -91 
Q 1250 -91 836 529 
Q 422 1150 422 2328 
Q 422 3509 836 4129 
Q 1250 4750 2034 4750 
z
" id="DejaVuSans-30" transform="scale(0.015625)"/>
       </defs>
       <use xlink:href="#DejaVuSans-32"/>
       <use x="63.623047" xlink:href="#DejaVuSans-30"/>
       <use x="127.246094" xlink:href="#DejaVuSans-30"/>
       <use x="190.869141" xlink:href="#DejaVuSans-30"/>
      </g>
     </g>
    </g>
    <g id="xtick_10">
     <g id="line2d_10">
      <g>
       <use style="stroke:#000000;stroke-width:0.8;" x="245.3275" xlink:href="#m11e45de00d" y="279"/>
      </g>
     </g>
     <g id="text_10">
      <!-- 2001 -->
      <g transform="translate(238.280739 309.368774)rotate(-45)scale(0.1 -0.1)">
       <use xlink:href="#DejaVuSans-32"/>
       <use x="63.623047" xlink:href="#DejaVuSans-30"/>
       <use x="127.246094" xlink:href="#DejaVuSans-30"/>
       <use x="190.869141" xlink:href="#DejaVuSans-31"/>
      </g>
     </g>
    </g>
    <g id="xtick_11">
     <g id="line2d_11">
      <g>
       <use style="stroke:#000000;stroke-width:0.8;" x="267.6475" xlink:href="#m11e45de00d" y="279"/>
      </g>
     </g>
     <g id="text_11">
      <!-- 2002 -->
      <g transform="translate(260.600739 309.368774)rotate(-45)scale(0.1 -0.1)">
       <use xlink:href="#DejaVuSans-32"/>
       <use x="63.623047" xlink:href="#DejaVuSans-30"/>
       <use x="127.246094" xlink:href="#DejaVuSans-30"/>
       <use x="190.869141" xlink:href="#DejaVuSans-32"/>
      </g>
     </g>
    </g>
    <g id="xtick_12">
     <g id="line2d_12">
      <g>
       <use style="stroke:#000000;stroke-width:0.8;" x="289.9675" xlink:href="#m11e45de00d" y="279"/>
      </g>
     </g>
     <g id="text_12">
      <!-- 2003 -->
      <g transform="translate(282.920739 309.368774)rotate(-45)scale(0.1 -0.1)">
       <defs>
        <path d="M 2597 2516 
Q 3050 2419 3304 2112 
Q 3559 1806 3559 1356 
Q 3559 666 3084 287 
Q 2609 -91 1734 -91 
Q 1441 -91 1130 -33 
Q 819 25 488 141 
L 488 750 
Q 750 597 1062 519 
Q 1375 441 1716 441 
Q 2309 441 2620 675 
Q 2931 909 2931 1356 
Q 2931 1769 2642 2001 
Q 2353 2234 1838 2234 
L 1294 2234 
L 1294 2753 
L 1863 2753 
Q 2328 2753 2575 2939 
Q 2822 3125 2822 3475 
Q 2822 3834 2567 4026 
Q 2313 4219 1838 4219 
Q 1578 4219 1281 4162 
Q 984 4106 628 3988 
L 628 4550 
Q 988 4650 1302 4700 
Q 1616 4750 1894 4750 
Q 2613 4750 3031 4423 
Q 3450 4097 3450 3541 
Q 3450 3153 3228 2886 
Q 3006 2619 2597 2516 
z
" id="DejaVuSans-33" transform="scale(0.015625)"/>
       </defs>
       <use xlink:href="#DejaVuSans-32"/>
       <use x="63.623047" xlink:href="#DejaVuSans-30"/>
       <use x="127.246094" xlink:href="#DejaVuSans-30"/>
       <use x="190.869141" xlink:href="#DejaVuSans-33"/>
      </g>
     </g>
    </g>
    <g id="xtick_13">
     <g id="line2d_13">
      <g>
       <use style="stroke:#000000;stroke-width:0.8;" x="312.2875" xlink:href="#m11e45de00d" y="279"/>
      </g>
     </g>
     <g id="text_13">
      <!-- 2004 -->
      <g transform="translate(305.240739 309.368774)rotate(-45)scale(0.1 -0.1)">
       <use xlink:href="#DejaVuSans-32"/>
       <use x="63.623047" xlink:href="#DejaVuSans-30"/>
       <use x="127.246094" xlink:href="#DejaVuSans-30"/>
       <use x="190.869141" xlink:href="#DejaVuSans-34"/>
      </g>
     </g>
    </g>
    <g id="xtick_14">
     <g id="line2d_14">
      <g>
       <use style="stroke:#000000;stroke-width:0.8;" x="334.6075" xlink:href="#m11e45de00d" y="279"/>
      </g>
     </g>
     <g id="text_14">
      <!-- 2005 -->
      <g transform="translate(327.560739 309.368774)rotate(-45)scale(0.1 -0.1)">
       <use xlink:href="#DejaVuSans-32"/>
       <use x="63.623047" xlink:href="#DejaVuSans-30"/>
       <use x="127.246094" xlink:href="#DejaVuSans-30"/>
       <use x="190.869141" xlink:href="#DejaVuSans-35"/>
      </g>
     </g>
    </g>
    <g id="xtick_15">
     <g id="line2d_15">
      <g>
       <use style="stroke:#000000;stroke-width:0.8;" x="356.9275" xlink:href="#m11e45de00d" y="279"/>
      </g>
     </g>
     <g id="text_15">
      <!-- 2006 -->
      <g transform="translate(349.880739 309.368774)rotate(-45)scale(0.1 -0.1)">
       <use xlink:href="#DejaVuSans-32"/>
       <use x="63.623047" xlink:href="#DejaVuSans-30"/>
       <use x="127.246094" xlink:href="#DejaVuSans-30"/>
       <use x="190.869141" xlink:href="#DejaVuSans-36"/>
      </g>
     </g>
    </g>
    <g id="xtick_16">
     <g id="line2d_16">
      <g>
       <use style="stroke:#000000;stroke-width:0.8;" x="379.2475" xlink:href="#m11e45de00d" y="279"/>
      </g>
     </g>
     <g id="text_16">
      <!-- 2007 -->
      <g transform="translate(372.200739 309.368774)rotate(-45)scale(0.1 -0.1)">
       <use xlink:href="#DejaVuSans-32"/>
       <use x="63.623047" xlink:href="#DejaVuSans-30"/>
       <use x="127.246094" xlink:href="#DejaVuSans-30"/>
       <use x="190.869141" xlink:href="#DejaVuSans-37"/>
      </g>
     </g>
    </g>
    <g id="xtick_17">
     <g id="line2d_17">
      <g>
       <use style="stroke:#000000;stroke-width:0.8;" x="401.5675" xlink:href="#m11e45de00d" y="279"/>
      </g>
     </g>
     <g id="text_17">
      <!-- 2008 -->
      <g transform="translate(394.520739 309.368774)rotate(-45)scale(0.1 -0.1)">
       <use xlink:href="#DejaVuSans-32"/>
       <use x="63.623047" xlink:href="#DejaVuSans-30"/>
       <use x="127.246094" xlink:href="#DejaVuSans-30"/>
       <use x="190.869141" xlink:href="#DejaVuSans-38"/>
      </g>
     </g>
    </g>
    <g id="xtick_18">
     <g id="line2d_18">
      <g>
       <use style="stroke:#000000;stroke-width:0.8;" x="423.8875" xlink:href="#m11e45de00d" y="279"/>
      </g>
     </g>
     <g id="text_18">
      <!-- 2009 -->
      <g transform="translate(416.840739 309.368774)rotate(-45)scale(0.1 -0.1)">
       <use xlink:href="#DejaVuSans-32"/>
       <use x="63.623047" xlink:href="#DejaVuSans-30"/>
       <use x="127.246094" xlink:href="#DejaVuSans-30"/>
       <use x="190.869141" xlink:href="#DejaVuSans-39"/>
      </g>
     </g>
    </g>
    <g id="xtick_19">
     <g id="line2d_19">
      <g>
       <use style="stroke:#000000;stroke-width:0.8;" x="446.2075" xlink:href="#m11e45de00d" y="279"/>
      </g>
     </g>
     <g id="text_19">
      <!-- 2010 -->
      <g transform="translate(439.160739 309.368774)rotate(-45)scale(0.1 -0.1)">
       <use xlink:href="#DejaVuSans-32"/>
       <use x="63.623047" xlink:href="#DejaVuSans-30"/>
       <use x="127.246094" xlink:href="#DejaVuSans-31"/>
       <use x="190.869141" xlink:href="#DejaVuSans-30"/>
      </g>
     </g>
    </g>
    <g id="xtick_20">
     <g id="line2d_20">
      <g>
       <use style="stroke:#000000;stroke-width:0.8;" x="468.5275" xlink:href="#m11e45de00d" y="279"/>
      </g>
     </g>
     <g id="text_20">
      <!-- 2011 -->
      <g transform="translate(461.480739 309.368774)rotate(-45)scale(0.1 -0.1)">
       <use xlink:href="#DejaVuSans-32"/>
       <use x="63.623047" xlink:href="#DejaVuSans-30"/>
       <use x="127.246094" xlink:href="#DejaVuSans-31"/>
       <use x="190.869141" xlink:href="#DejaVuSans-31"/>
      </g>
     </g>
    </g>
    <g id="xtick_21">
     <g id="line2d_21">
      <g>
       <use style="stroke:#000000;stroke-width:0.8;" x="490.8475" xlink:href="#m11e45de00d" y="279"/>
      </g>
     </g>
     <g id="text_21">
      <!-- 2012 -->
      <g transform="translate(483.800739 309.368774)rotate(-45)scale(0.1 -0.1)">
       <use xlink:href="#DejaVuSans-32"/>
       <use x="63.623047" xlink:href="#DejaVuSans-30"/>
       <use x="127.246094" xlink:href="#DejaVuSans-31"/>
       <use x="190.869141" xlink:href="#DejaVuSans-32"/>
      </g>
     </g>
    </g>
    <g id="xtick_22">
     <g id="line2d_22">
      <g>
       <use style="stroke:#000000;stroke-width:0.8;" x="513.1675" xlink:href="#m11e45de00d" y="279"/>
      </g>
     </g>
     <g id="text_22">
      <!-- 2013 -->
      <g transform="translate(506.120739 309.368774)rotate(-45)scale(0.1 -0.1)">
       <use xlink:href="#DejaVuSans-32"/>
       <use x="63.623047" xlink:href="#DejaVuSans-30"/>
       <use x="127.246094" xlink:href="#DejaVuSans-31"/>
       <use x="190.869141" xlink:href="#DejaVuSans-33"/>
      </g>
     </g>
    </g>
    <g id="xtick_23">
     <g id="line2d_23">
      <g>
       <use style="stroke:#000000;stroke-width:0.8;" x="535.4875" xlink:href="#m11e45de00d" y="279"/>
      </g>
     </g>
     <g id="text_23">
      <!-- 2014 -->
      <g transform="translate(528.440739 309.368774)rotate(-45)scale(0.1 -0.1)">
       <use xlink:href="#DejaVuSans-32"/>
       <use x="63.623047" xlink:href="#DejaVuSans-30"/>
       <use x="127.246094" xlink:href="#DejaVuSans-31"/>
       <use x="190.869141" xlink:href="#DejaVuSans-34"/>
      </g>
     </g>
    </g>
    <g id="xtick_24">
     <g id="line2d_24">
      <g>
       <use style="stroke:#000000;stroke-width:0.8;" x="557.8075" xlink:href="#m11e45de00d" y="279"/>
      </g>
     </g>
     <g id="text_24">
      <!-- 2015 -->
      <g transform="translate(550.760739 309.368774)rotate(-45)scale(0.1 -0.1)">
       <use xlink:href="#DejaVuSans-32"/>
       <use x="63.623047" xlink:href="#DejaVuSans-30"/>
       <use x="127.246094" xlink:href="#DejaVuSans-31"/>
       <use x="190.869141" xlink:href="#DejaVuSans-35"/>
      </g>
     </g>
    </g>
    <g id="xtick_25">
     <g id="line2d_25">
      <g>
       <use style="stroke:#000000;stroke-width:0.8;" x="580.1275" xlink:href="#m11e45de00d" y="279"/>
      </g>
     </g>
     <g id="text_25">
      <!-- 2016 -->
      <g transform="translate(573.080739 309.368774)rotate(-45)scale(0.1 -0.1)">
       <use xlink:href="#DejaVuSans-32"/>
       <use x="63.623047" xlink:href="#DejaVuSans-30"/>
       <use x="127.246094" xlink:href="#DejaVuSans-31"/>
       <use x="190.869141" xlink:href="#DejaVuSans-36"/>
      </g>
     </g>
    </g>
    <g id="text_26">
     <!-- Year_of_Release -->
     <g transform="translate(272.34375 322.437773)scale(0.1 -0.1)">
      <defs>
       <path d="M -13 4666 
L 666 4666 
L 1959 2747 
L 3244 4666 
L 3922 4666 
L 2272 2222 
L 2272 0 
L 1638 0 
L 1638 2222 
L -13 4666 
z
" id="DejaVuSans-59" transform="scale(0.015625)"/>
       <path d="M 3597 1894 
L 3597 1613 
L 953 1613 
Q 991 1019 1311 708 
Q 1631 397 2203 397 
Q 2534 397 2845 478 
Q 3156 559 3463 722 
L 3463 178 
Q 3153 47 2828 -22 
Q 2503 -91 2169 -91 
Q 1331 -91 842 396 
Q 353 884 353 1716 
Q 353 2575 817 3079 
Q 1281 3584 2069 3584 
Q 2775 3584 3186 3129 
Q 3597 2675 3597 1894 
z
M 3022 2063 
Q 3016 2534 2758 2815 
Q 2500 3097 2075 3097 
Q 1594 3097 1305 2825 
Q 1016 2553 972 2059 
L 3022 2063 
z
" id="DejaVuSans-65" transform="scale(0.015625)"/>
       <path d="M 2194 1759 
Q 1497 1759 1228 1600 
Q 959 1441 959 1056 
Q 959 750 1161 570 
Q 1363 391 1709 391 
Q 2188 391 2477 730 
Q 2766 1069 2766 1631 
L 2766 1759 
L 2194 1759 
z
M 3341 1997 
L 3341 0 
L 2766 0 
L 2766 531 
Q 2569 213 2275 61 
Q 1981 -91 1556 -91 
Q 1019 -91 701 211 
Q 384 513 384 1019 
Q 384 1609 779 1909 
Q 1175 2209 1959 2209 
L 2766 2209 
L 2766 2266 
Q 2766 2663 2505 2880 
Q 2244 3097 1772 3097 
Q 1472 3097 1187 3025 
Q 903 2953 641 2809 
L 641 3341 
Q 956 3463 1253 3523 
Q 1550 3584 1831 3584 
Q 2591 3584 2966 3190 
Q 3341 2797 3341 1997 
z
" id="DejaVuSans-61" transform="scale(0.015625)"/>
       <path d="M 2631 2963 
Q 2534 3019 2420 3045 
Q 2306 3072 2169 3072 
Q 1681 3072 1420 2755 
Q 1159 2438 1159 1844 
L 1159 0 
L 581 0 
L 581 3500 
L 1159 3500 
L 1159 2956 
Q 1341 3275 1631 3429 
Q 1922 3584 2338 3584 
Q 2397 3584 2469 3576 
Q 2541 3569 2628 3553 
L 2631 2963 
z
" id="DejaVuSans-72" transform="scale(0.015625)"/>
       <path d="M 3263 -1063 
L 3263 -1509 
L -63 -1509 
L -63 -1063 
L 3263 -1063 
z
" id="DejaVuSans-5f" transform="scale(0.015625)"/>
       <path d="M 1959 3097 
Q 1497 3097 1228 2736 
Q 959 2375 959 1747 
Q 959 1119 1226 758 
Q 1494 397 1959 397 
Q 2419 397 2687 759 
Q 2956 1122 2956 1747 
Q 2956 2369 2687 2733 
Q 2419 3097 1959 3097 
z
M 1959 3584 
Q 2709 3584 3137 3096 
Q 3566 2609 3566 1747 
Q 3566 888 3137 398 
Q 2709 -91 1959 -91 
Q 1206 -91 779 398 
Q 353 888 353 1747 
Q 353 2609 779 3096 
Q 1206 3584 1959 3584 
z
" id="DejaVuSans-6f" transform="scale(0.015625)"/>
       <path d="M 2375 4863 
L 2375 4384 
L 1825 4384 
Q 1516 4384 1395 4259 
Q 1275 4134 1275 3809 
L 1275 3500 
L 2222 3500 
L 2222 3053 
L 1275 3053 
L 1275 0 
L 697 0 
L 697 3053 
L 147 3053 
L 147 3500 
L 697 3500 
L 697 3744 
Q 697 4328 969 4595 
Q 1241 4863 1831 4863 
L 2375 4863 
z
" id="DejaVuSans-66" transform="scale(0.015625)"/>
       <path d="M 2841 2188 
Q 3044 2119 3236 1894 
Q 3428 1669 3622 1275 
L 4263 0 
L 3584 0 
L 2988 1197 
Q 2756 1666 2539 1819 
Q 2322 1972 1947 1972 
L 1259 1972 
L 1259 0 
L 628 0 
L 628 4666 
L 2053 4666 
Q 2853 4666 3247 4331 
Q 3641 3997 3641 3322 
Q 3641 2881 3436 2590 
Q 3231 2300 2841 2188 
z
M 1259 4147 
L 1259 2491 
L 2053 2491 
Q 2509 2491 2742 2702 
Q 2975 2913 2975 3322 
Q 2975 3731 2742 3939 
Q 2509 4147 2053 4147 
L 1259 4147 
z
" id="DejaVuSans-52" transform="scale(0.015625)"/>
       <path d="M 603 4863 
L 1178 4863 
L 1178 0 
L 603 0 
L 603 4863 
z
" id="DejaVuSans-6c" transform="scale(0.015625)"/>
       <path d="M 2834 3397 
L 2834 2853 
Q 2591 2978 2328 3040 
Q 2066 3103 1784 3103 
Q 1356 3103 1142 2972 
Q 928 2841 928 2578 
Q 928 2378 1081 2264 
Q 1234 2150 1697 2047 
L 1894 2003 
Q 2506 1872 2764 1633 
Q 3022 1394 3022 966 
Q 3022 478 2636 193 
Q 2250 -91 1575 -91 
Q 1294 -91 989 -36 
Q 684 19 347 128 
L 347 722 
Q 666 556 975 473 
Q 1284 391 1588 391 
Q 1994 391 2212 530 
Q 2431 669 2431 922 
Q 2431 1156 2273 1281 
Q 2116 1406 1581 1522 
L 1381 1569 
Q 847 1681 609 1914 
Q 372 2147 372 2553 
Q 372 3047 722 3315 
Q 1072 3584 1716 3584 
Q 2034 3584 2315 3537 
Q 2597 3491 2834 3397 
z
" id="DejaVuSans-73" transform="scale(0.015625)"/>
      </defs>
      <use xlink:href="#DejaVuSans-59"/>
      <use x="47.833984" xlink:href="#DejaVuSans-65"/>
      <use x="109.357422" xlink:href="#DejaVuSans-61"/>
      <use x="170.636719" xlink:href="#DejaVuSans-72"/>
      <use x="211.75" xlink:href="#DejaVuSans-5f"/>
      <use x="261.75" xlink:href="#DejaVuSans-6f"/>
      <use x="322.931641" xlink:href="#DejaVuSans-66"/>
      <use x="358.136719" xlink:href="#DejaVuSans-5f"/>
      <use x="408.136719" xlink:href="#DejaVuSans-52"/>
      <use x="473.119141" xlink:href="#DejaVuSans-65"/>
      <use x="534.642578" xlink:href="#DejaVuSans-6c"/>
      <use x="562.425781" xlink:href="#DejaVuSans-65"/>
      <use x="623.949219" xlink:href="#DejaVuSans-61"/>
      <use x="685.228516" xlink:href="#DejaVuSans-73"/>
      <use x="737.328125" xlink:href="#DejaVuSans-65"/>
     </g>
    </g>
   </g>
   <g id="matplotlib.axis_2">
    <g id="ytick_1">
     <g id="line2d_26">
      <defs>
       <path d="M 0 0 
L -3.5 0 
" id="m4a40d6d2b4" style="stroke:#000000;stroke-width:0.8;"/>
      </defs>
      <g>
       <use style="stroke:#000000;stroke-width:0.8;" x="33.2875" xlink:href="#m4a40d6d2b4" y="279"/>
      </g>
     </g>
     <g id="text_27">
      <!-- 0 -->
      <g transform="translate(19.925 282.799219)scale(0.1 -0.1)">
       <use xlink:href="#DejaVuSans-30"/>
      </g>
     </g>
    </g>
    <g id="ytick_2">
     <g id="line2d_27">
      <g>
       <use style="stroke:#000000;stroke-width:0.8;" x="33.2875" xlink:href="#m4a40d6d2b4" y="226.049902"/>
      </g>
     </g>
     <g id="text_28">
      <!-- 100 -->
      <g transform="translate(7.2 229.849121)scale(0.1 -0.1)">
       <use xlink:href="#DejaVuSans-31"/>
       <use x="63.623047" xlink:href="#DejaVuSans-30"/>
       <use x="127.246094" xlink:href="#DejaVuSans-30"/>
      </g>
     </g>
    </g>
    <g id="ytick_3">
     <g id="line2d_28">
      <g>
       <use style="stroke:#000000;stroke-width:0.8;" x="33.2875" xlink:href="#m4a40d6d2b4" y="173.099805"/>
      </g>
     </g>
     <g id="text_29">
      <!-- 200 -->
      <g transform="translate(7.2 176.899023)scale(0.1 -0.1)">
       <use xlink:href="#DejaVuSans-32"/>
       <use x="63.623047" xlink:href="#DejaVuSans-30"/>
       <use x="127.246094" xlink:href="#DejaVuSans-30"/>
      </g>
     </g>
    </g>
    <g id="ytick_4">
     <g id="line2d_29">
      <g>
       <use style="stroke:#000000;stroke-width:0.8;" x="33.2875" xlink:href="#m4a40d6d2b4" y="120.149707"/>
      </g>
     </g>
     <g id="text_30">
      <!-- 300 -->
      <g transform="translate(7.2 123.948926)scale(0.1 -0.1)">
       <use xlink:href="#DejaVuSans-33"/>
       <use x="63.623047" xlink:href="#DejaVuSans-30"/>
       <use x="127.246094" xlink:href="#DejaVuSans-30"/>
      </g>
     </g>
    </g>
    <g id="ytick_5">
     <g id="line2d_30">
      <g>
       <use style="stroke:#000000;stroke-width:0.8;" x="33.2875" xlink:href="#m4a40d6d2b4" y="67.199609"/>
      </g>
     </g>
     <g id="text_31">
      <!-- 400 -->
      <g transform="translate(7.2 70.998828)scale(0.1 -0.1)">
       <use xlink:href="#DejaVuSans-34"/>
       <use x="63.623047" xlink:href="#DejaVuSans-30"/>
       <use x="127.246094" xlink:href="#DejaVuSans-30"/>
      </g>
     </g>
    </g>
    <g id="ytick_6">
     <g id="line2d_31">
      <g>
       <use style="stroke:#000000;stroke-width:0.8;" x="33.2875" xlink:href="#m4a40d6d2b4" y="14.249511"/>
      </g>
     </g>
     <g id="text_32">
      <!-- 500 -->
      <g transform="translate(7.2 18.04873)scale(0.1 -0.1)">
       <use xlink:href="#DejaVuSans-35"/>
       <use x="63.623047" xlink:href="#DejaVuSans-30"/>
       <use x="127.246094" xlink:href="#DejaVuSans-30"/>
      </g>
     </g>
    </g>
   </g>
   <g id="patch_103">
    <path d="M 33.2875 279 
L 33.2875 7.2 
" style="fill:none;stroke:#000000;stroke-linecap:square;stroke-linejoin:miter;stroke-width:0.8;"/>
   </g>
   <g id="patch_104">
    <path d="M 591.2875 279 
L 591.2875 7.2 
" style="fill:none;stroke:#000000;stroke-linecap:square;stroke-linejoin:miter;stroke-width:0.8;"/>
   </g>
   <g id="patch_105">
    <path d="M 33.2875 279 
L 591.2875 279 
" style="fill:none;stroke:#000000;stroke-linecap:square;stroke-linejoin:miter;stroke-width:0.8;"/>
   </g>
   <g id="patch_106">
    <path d="M 33.2875 7.2 
L 591.2875 7.2 
" style="fill:none;stroke:#000000;stroke-linecap:square;stroke-linejoin:miter;stroke-width:0.8;"/>
   </g>
   <g id="legend_1">
    <g id="patch_107">
     <path d="M 492.276563 75.025 
L 584.2875 75.025 
Q 586.2875 75.025 586.2875 73.025 
L 586.2875 14.2 
Q 586.2875 12.2 584.2875 12.2 
L 492.276563 12.2 
Q 490.276563 12.2 490.276563 14.2 
L 490.276563 73.025 
Q 490.276563 75.025 492.276563 75.025 
z
" style="fill:#ffffff;opacity:0.8;stroke:#cccccc;stroke-linejoin:miter;"/>
    </g>
    <g id="patch_108">
     <path d="M 494.276563 23.798437 
L 514.276562 23.798437 
L 514.276562 16.798437 
L 494.276563 16.798437 
z
" style="fill:#1f77b4;"/>
    </g>
    <g id="text_33">
     <!-- NA_Sales -->
     <g transform="translate(522.276562 23.798437)scale(0.1 -0.1)">
      <defs>
       <path d="M 628 4666 
L 1478 4666 
L 3547 763 
L 3547 4666 
L 4159 4666 
L 4159 0 
L 3309 0 
L 1241 3903 
L 1241 0 
L 628 0 
L 628 4666 
z
" id="DejaVuSans-4e" transform="scale(0.015625)"/>
       <path d="M 2188 4044 
L 1331 1722 
L 3047 1722 
L 2188 4044 
z
M 1831 4666 
L 2547 4666 
L 4325 0 
L 3669 0 
L 3244 1197 
L 1141 1197 
L 716 0 
L 50 0 
L 1831 4666 
z
" id="DejaVuSans-41" transform="scale(0.015625)"/>
       <path d="M 3425 4513 
L 3425 3897 
Q 3066 4069 2747 4153 
Q 2428 4238 2131 4238 
Q 1616 4238 1336 4038 
Q 1056 3838 1056 3469 
Q 1056 3159 1242 3001 
Q 1428 2844 1947 2747 
L 2328 2669 
Q 3034 2534 3370 2195 
Q 3706 1856 3706 1288 
Q 3706 609 3251 259 
Q 2797 -91 1919 -91 
Q 1588 -91 1214 -16 
Q 841 59 441 206 
L 441 856 
Q 825 641 1194 531 
Q 1563 422 1919 422 
Q 2459 422 2753 634 
Q 3047 847 3047 1241 
Q 3047 1584 2836 1778 
Q 2625 1972 2144 2069 
L 1759 2144 
Q 1053 2284 737 2584 
Q 422 2884 422 3419 
Q 422 4038 858 4394 
Q 1294 4750 2059 4750 
Q 2388 4750 2728 4690 
Q 3069 4631 3425 4513 
z
" id="DejaVuSans-53" transform="scale(0.015625)"/>
      </defs>
      <use xlink:href="#DejaVuSans-4e"/>
      <use x="74.804688" xlink:href="#DejaVuSans-41"/>
      <use x="143.212891" xlink:href="#DejaVuSans-5f"/>
      <use x="193.212891" xlink:href="#DejaVuSans-53"/>
      <use x="256.689453" xlink:href="#DejaVuSans-61"/>
      <use x="317.96875" xlink:href="#DejaVuSans-6c"/>
      <use x="345.751953" xlink:href="#DejaVuSans-65"/>
      <use x="407.275391" xlink:href="#DejaVuSans-73"/>
     </g>
    </g>
    <g id="patch_109">
     <path d="M 494.276563 38.754687 
L 514.276562 38.754687 
L 514.276562 31.754687 
L 494.276563 31.754687 
z
" style="fill:#ff7f0e;"/>
    </g>
    <g id="text_34">
     <!-- EU_Sales -->
     <g transform="translate(522.276562 38.754687)scale(0.1 -0.1)">
      <defs>
       <path d="M 628 4666 
L 3578 4666 
L 3578 4134 
L 1259 4134 
L 1259 2753 
L 3481 2753 
L 3481 2222 
L 1259 2222 
L 1259 531 
L 3634 531 
L 3634 0 
L 628 0 
L 628 4666 
z
" id="DejaVuSans-45" transform="scale(0.015625)"/>
       <path d="M 556 4666 
L 1191 4666 
L 1191 1831 
Q 1191 1081 1462 751 
Q 1734 422 2344 422 
Q 2950 422 3222 751 
Q 3494 1081 3494 1831 
L 3494 4666 
L 4128 4666 
L 4128 1753 
Q 4128 841 3676 375 
Q 3225 -91 2344 -91 
Q 1459 -91 1007 375 
Q 556 841 556 1753 
L 556 4666 
z
" id="DejaVuSans-55" transform="scale(0.015625)"/>
      </defs>
      <use xlink:href="#DejaVuSans-45"/>
      <use x="63.183594" xlink:href="#DejaVuSans-55"/>
      <use x="136.376953" xlink:href="#DejaVuSans-5f"/>
      <use x="186.376953" xlink:href="#DejaVuSans-53"/>
      <use x="249.853516" xlink:href="#DejaVuSans-61"/>
      <use x="311.132812" xlink:href="#DejaVuSans-6c"/>
      <use x="338.916016" xlink:href="#DejaVuSans-65"/>
      <use x="400.439453" xlink:href="#DejaVuSans-73"/>
     </g>
    </g>
    <g id="patch_110">
     <path d="M 494.276563 53.710938 
L 514.276562 53.710938 
L 514.276562 46.710938 
L 494.276563 46.710938 
z
" style="fill:#2ca02c;"/>
    </g>
    <g id="text_35">
     <!-- JP_Sales -->
     <g transform="translate(522.276562 53.710938)scale(0.1 -0.1)">
      <defs>
       <path d="M 628 4666 
L 1259 4666 
L 1259 325 
Q 1259 -519 939 -900 
Q 619 -1281 -91 -1281 
L -331 -1281 
L -331 -750 
L -134 -750 
Q 284 -750 456 -515 
Q 628 -281 628 325 
L 628 4666 
z
" id="DejaVuSans-4a" transform="scale(0.015625)"/>
       <path d="M 1259 4147 
L 1259 2394 
L 2053 2394 
Q 2494 2394 2734 2622 
Q 2975 2850 2975 3272 
Q 2975 3691 2734 3919 
Q 2494 4147 2053 4147 
L 1259 4147 
z
M 628 4666 
L 2053 4666 
Q 2838 4666 3239 4311 
Q 3641 3956 3641 3272 
Q 3641 2581 3239 2228 
Q 2838 1875 2053 1875 
L 1259 1875 
L 1259 0 
L 628 0 
L 628 4666 
z
" id="DejaVuSans-50" transform="scale(0.015625)"/>
      </defs>
      <use xlink:href="#DejaVuSans-4a"/>
      <use x="29.492188" xlink:href="#DejaVuSans-50"/>
      <use x="89.794922" xlink:href="#DejaVuSans-5f"/>
      <use x="139.794922" xlink:href="#DejaVuSans-53"/>
      <use x="203.271484" xlink:href="#DejaVuSans-61"/>
      <use x="264.550781" xlink:href="#DejaVuSans-6c"/>
      <use x="292.333984" xlink:href="#DejaVuSans-65"/>
      <use x="353.857422" xlink:href="#DejaVuSans-73"/>
     </g>
    </g>
    <g id="patch_111">
     <path d="M 494.276563 68.667187 
L 514.276562 68.667187 
L 514.276562 61.667187 
L 494.276563 61.667187 
z
" style="fill:#d62728;"/>
    </g>
    <g id="text_36">
     <!-- Other_Sales -->
     <g transform="translate(522.276562 68.667187)scale(0.1 -0.1)">
      <defs>
       <path d="M 2522 4238 
Q 1834 4238 1429 3725 
Q 1025 3213 1025 2328 
Q 1025 1447 1429 934 
Q 1834 422 2522 422 
Q 3209 422 3611 934 
Q 4013 1447 4013 2328 
Q 4013 3213 3611 3725 
Q 3209 4238 2522 4238 
z
M 2522 4750 
Q 3503 4750 4090 4092 
Q 4678 3434 4678 2328 
Q 4678 1225 4090 567 
Q 3503 -91 2522 -91 
Q 1538 -91 948 565 
Q 359 1222 359 2328 
Q 359 3434 948 4092 
Q 1538 4750 2522 4750 
z
" id="DejaVuSans-4f" transform="scale(0.015625)"/>
       <path d="M 1172 4494 
L 1172 3500 
L 2356 3500 
L 2356 3053 
L 1172 3053 
L 1172 1153 
Q 1172 725 1289 603 
Q 1406 481 1766 481 
L 2356 481 
L 2356 0 
L 1766 0 
Q 1100 0 847 248 
Q 594 497 594 1153 
L 594 3053 
L 172 3053 
L 172 3500 
L 594 3500 
L 594 4494 
L 1172 4494 
z
" id="DejaVuSans-74" transform="scale(0.015625)"/>
       <path d="M 3513 2113 
L 3513 0 
L 2938 0 
L 2938 2094 
Q 2938 2591 2744 2837 
Q 2550 3084 2163 3084 
Q 1697 3084 1428 2787 
Q 1159 2491 1159 1978 
L 1159 0 
L 581 0 
L 581 4863 
L 1159 4863 
L 1159 2956 
Q 1366 3272 1645 3428 
Q 1925 3584 2291 3584 
Q 2894 3584 3203 3211 
Q 3513 2838 3513 2113 
z
" id="DejaVuSans-68" transform="scale(0.015625)"/>
      </defs>
      <use xlink:href="#DejaVuSans-4f"/>
      <use x="78.710938" xlink:href="#DejaVuSans-74"/>
      <use x="117.919922" xlink:href="#DejaVuSans-68"/>
      <use x="181.298828" xlink:href="#DejaVuSans-65"/>
      <use x="242.822266" xlink:href="#DejaVuSans-72"/>
      <use x="283.935547" xlink:href="#DejaVuSans-5f"/>
      <use x="333.935547" xlink:href="#DejaVuSans-53"/>
      <use x="397.412109" xlink:href="#DejaVuSans-61"/>
      <use x="458.691406" xlink:href="#DejaVuSans-6c"/>
      <use x="486.474609" xlink:href="#DejaVuSans-65"/>
      <use x="547.998047" xlink:href="#DejaVuSans-73"/>
     </g>
    </g>
   </g>
  </g>
 </g>
 <defs>
  <clipPath id="pd99f988caf">
   <rect height="271.8" width="558" x="33.2875" y="7.2"/>
  </clipPath>
 </defs>
</svg>