<?xml version="1.0" encoding="utf-8" standalone="no"?>
<!DOCTYPE svg PUBLIC "-//W3C//DTD SVG 1.1//EN"
  "http://www.w3.org/Graphics/SVG/1.1/DTD/svg11.dtd">
<svg height="331.995585pt" version="1.1" viewBox="0 0 598.4875 331.995585" width="598.4875pt" xmlns="http://www.w3.org/2000/svg" xmlns:xlink="http://www.w3.org/1999/xlink">
 <metadata>
  <rdf:RDF xmlns:cc="http://creativecommons.org/ns#" xmlns:dc="http://purl.org/dc/elements/1.1/" xmlns:rdf="http://www.w3.org/1999/02/22-rdf-syntax-ns#">
   <cc:Work>
    <dc:type rdf:resource="http://purl.org/dc/dcmitype/StillImage"/>
    <dc:date>2023-12-10T11:19:27.253028</dc:date>
    <dc:format>image/svg+xml</dc:format>
    <dc:creator>
     <cc:Agent>
      <dc:title>Matplotlib v3.4.3, https://matplotlib.org/</dc:title>
     </cc:Agent>
    </dc:creator>
   </cc:Work>
  </rdf:RDF>
 </metadata>
 <defs>
  <style type="text/css">*{stroke-linecap:butt;stroke-linejoin:round;}</style>
 </defs>
 <g id="figure_1">
  <g id="patch_1">
   <path d="M 0 331.995585 
L 598.4875 331.995585 
L 598.4875 0 
L 0 0 
z
" style="fill:none;"/>
  </g>
  <g id="axes_1">
   <g id="patch_2">
    <path d="M 33.2875 279 
L 591.2875 279 
L 591.2875 7.2 
L 33.2875 7.2 
z
" style="fill:#ffffff;"/>
   </g>
   <g id="PolyCollection_1">
    <defs>
     <path d="M 58.651136 -52.995585 
L 58.651136 -52.995585 
L 107.742045 -52.995585 
L 173.196591 -52.995585 
L 205.923864 -52.995585 
L 238.651136 -52.995585 
L 255.014773 -52.995585 
L 271.378409 -52.995585 
L 287.742045 -52.995585 
L 304.105682 -52.995585 
L 320.469318 -52.995585 
L 336.832955 -52.995585 
L 353.196591 -52.995585 
L 369.560227 -52.995585 
L 385.923864 -52.995585 
L 402.2875 -52.995585 
L 418.651136 -52.995585 
L 435.014773 -52.995585 
L 451.378409 -52.995585 
L 467.742045 -52.995585 
L 484.105682 -52.995585 
L 500.469318 -52.995585 
L 516.832955 -52.995585 
L 533.196591 -52.995585 
L 549.560227 -52.995585 
L 565.923864 -52.995585 
L 565.923864 -71.273959 
L 565.923864 -71.273959 
L 549.560227 -88.922227 
L 533.196591 -95.027373 
L 516.832955 -117.006959 
L 500.469318 -123.916946 
L 484.105682 -153.929062 
L 467.742045 -165.906374 
L 451.378409 -175.691552 
L 435.014773 -188.680211 
L 418.651136 -177.751311 
L 402.2875 -172.498661 
L 385.923864 -147.326185 
L 369.560227 -145.065215 
L 353.196591 -128.756585 
L 336.832955 -139.706665 
L 320.469318 -126.765662 
L 304.105682 -73.826154 
L 287.742045 -65.343548 
L 271.378409 -62.595438 
L 255.014773 -61.11813 
L 238.651136 -57.183938 
L 205.923864 -53.202091 
L 173.196591 -53.006175 
L 107.742045 -52.995585 
L 58.651136 -52.995585 
z
" id="mb3bff2529f" style="stroke:#1f77b4;"/>
    </defs>
    <g clip-path="url(#p8a2cfde8fc)">
     <use style="fill:#1f77b4;stroke:#1f77b4;" x="0" xlink:href="#mb3bff2529f" y="331.995585"/>
    </g>
   </g>
   <g id="PolyCollection_2">
    <defs>
     <path d="M 58.651136 -53.01147 
L 58.651136 -52.995585 
L 107.742045 -52.995585 
L 173.196591 -53.006175 
L 205.923864 -53.202091 
L 238.651136 -57.183938 
L 255.014773 -61.11813 
L 271.378409 -62.595438 
L 287.742045 -65.343548 
L 304.105682 -73.826154 
L 320.469318 -126.765662 
L 336.832955 -139.706665 
L 353.196591 -128.756585 
L 369.560227 -145.065215 
L 385.923864 -147.326185 
L 402.2875 -172.498661 
L 418.651136 -177.751311 
L 435.014773 -188.680211 
L 451.378409 -175.691552 
L 467.742045 -165.906374 
L 484.105682 -153.929062 
L 500.469318 -123.916946 
L 516.832955 -117.006959 
L 533.196591 -95.027373 
L 549.560227 -88.922227 
L 565.923864 -71.273959 
L 565.923864 -92.999384 
L 565.923864 -92.999384 
L 549.560227 -120.962331 
L 533.196591 -135.491838 
L 516.832955 -167.595482 
L 500.469318 -176.379903 
L 484.105682 -221.631057 
L 467.742045 -234.810336 
L 451.378409 -251.706712 
L 435.014773 -261.38599 
L 418.651136 -243.785378 
L 402.2875 -227.847398 
L 385.923864 -193.233919 
L 369.560227 -189.019092 
L 353.196591 -168.553879 
L 336.832955 -184.200633 
L 320.469318 -165.339808 
L 304.105682 -87.169578 
L 287.742045 -73.651419 
L 271.378409 -69.018285 
L 255.014773 -65.708904 
L 238.651136 -60.826905 
L 205.923864 -53.339761 
L 173.196591 -53.006175 
L 107.742045 -53.006175 
L 58.651136 -53.01147 
z
" id="mbac972bfbf" style="stroke:#ff7f0e;"/>
    </defs>
    <g clip-path="url(#p8a2cfde8fc)">
     <use style="fill:#ff7f0e;stroke:#ff7f0e;" x="0" xlink:href="#mbac972bfbf" y="331.995585"/>
    </g>
   </g>
   <g id="PolyCollection_3">
    <defs>
     <path d="M 58.651136 -53.01147 
L 58.651136 -53.01147 
L 107.742045 -53.006175 
L 173.196591 -53.006175 
L 205.923864 -53.339761 
L 238.651136 -60.826905 
L 255.014773 -65.708904 
L 271.378409 -69.018285 
L 287.742045 -73.651419 
L 304.105682 -87.169578 
L 320.469318 -165.339808 
L 336.832955 -184.200633 
L 353.196591 -168.553879 
L 369.560227 -189.019092 
L 385.923864 -193.233919 
L 402.2875 -227.847398 
L 418.651136 -243.785378 
L 435.014773 -261.38599 
L 451.378409 -251.706712 
L 467.742045 -234.810336 
L 484.105682 -221.631057 
L 500.469318 -176.379903 
L 516.832955 -167.595482 
L 533.196591 -135.491838 
L 549.560227 -120.962331 
L 565.923864 -92.999384 
L 565.923864 -95.297418 
L 565.923864 -95.297418 
L 549.560227 -127.236917 
L 533.196591 -142.915441 
L 516.832955 -177.682476 
L 500.469318 -190.86705 
L 484.105682 -233.894299 
L 467.742045 -248.148466 
L 451.378409 -269.858006 
L 435.014773 -281.199917 
L 418.651136 -262.339092 
L 402.2875 -249.255123 
L 385.923864 -213.476742 
L 369.560227 -201.059944 
L 353.196591 -177.682476 
L 336.832955 -194.054646 
L 320.469318 -177.820146 
L 304.105682 -93.137055 
L 287.742045 -78.771693 
L 271.378409 -74.742191 
L 255.014773 -70.479708 
L 238.651136 -62.976679 
L 205.923864 -53.620397 
L 173.196591 -53.006175 
L 107.742045 -53.006175 
L 58.651136 -53.01147 
z
" id="mc9e0173f87" style="stroke:#2ca02c;"/>
    </defs>
    <g clip-path="url(#p8a2cfde8fc)">
     <use style="fill:#2ca02c;stroke:#2ca02c;" x="0" xlink:href="#mc9e0173f87" y="331.995585"/>
    </g>
   </g>
   <g id="PolyCollection_4">
    <defs>
     <path d="M 58.651136 -53.016765 
L 58.651136 -53.01147 
L 107.742045 -53.006175 
L 173.196591 -53.006175 
L 205.923864 -53.620397 
L 238.651136 -62.976679 
L 255.014773 -70.479708 
L 271.378409 -74.742191 
L 287.742045 -78.771693 
L 304.105682 -93.137055 
L 320.469318 -177.820146 
L 336.832955 -194.054646 
L 353.196591 -177.682476 
L 369.560227 -201.059944 
L 385.923864 -213.476742 
L 402.2875 -249.255123 
L 418.651136 -262.339092 
L 435.014773 -281.199917 
L 451.378409 -269.858006 
L 467.742045 -248.148466 
L 484.105682 -233.894299 
L 500.469318 -190.86705 
L 516.832955 -177.682476 
L 533.196591 -142.915441 
L 549.560227 -127.236917 
L 565.923864 -95.297418 
L 565.923864 -101.434335 
L 565.923864 -101.434335 
L 549.560227 -137.223306 
L 533.196591 -154.871573 
L 516.832955 -194.520607 
L 500.469318 -207.583396 
L 484.105682 -256.18629 
L 467.742045 -271.573589 
L 451.378409 -296.46543 
L 435.014773 -311.852728 
L 418.651136 -294.437441 
L 402.2875 -273.559218 
L 385.923864 -229.917747 
L 369.560227 -223.373115 
L 353.196591 -188.103055 
L 336.832955 -205.862518 
L 320.469318 -187.488834 
L 304.105682 -96.044015 
L 287.742045 -80.06897 
L 271.378409 -75.875323 
L 255.014773 -71.5493 
L 238.651136 -63.63326 
L 205.923864 -53.662757 
L 173.196591 -53.006175 
L 107.742045 -53.01147 
L 58.651136 -53.016765 
z
" id="m8fd1dc08b2" style="stroke:#d62728;"/>
    </defs>
    <g clip-path="url(#p8a2cfde8fc)">
     <use style="fill:#d62728;stroke:#d62728;" x="0" xlink:href="#m8fd1dc08b2" y="331.995585"/>
    </g>
   </g>
   <g id="matplotlib.axis_1">
    <g id="xtick_1">
     <g id="line2d_1">
      <defs>
       <path d="M 0 0 
L 0 3.5 
" id="m446a2b161f" style="stroke:#000000;stroke-width:0.8;"/>
      </defs>
      <g>
       <use style="stroke:#000000;stroke-width:0.8;" x="58.651136" xlink:href="#m446a2b161f" y="279"/>
      </g>
     </g>
     <g id="text_1">
      <!-- 1985 -->
      <g transform="translate(51.604375 309.368774)rotate(-45)scale(0.1 -0.1)">
       <defs>
        <path d="M 794 531 
L 1825 531 
L 1825 4091 
L 703 3866 
L 703 4441 
L 1819 4666 
L 2450 4666 
L 2450 531 
L 3481 531 
L 3481 0 
L 794 0 
L 794 531 
z
" id="DejaVuSans-31" transform="scale(0.015625)"/>
        <path d="M 703 97 
L 703 672 
Q 941 559 1184 500 
Q 1428 441 1663 441 
Q 2288 441 2617 861 
Q 2947 1281 2994 2138 
Q 2813 1869 2534 1725 
Q 2256 1581 1919 1581 
Q 1219 1581 811 2004 
Q 403 2428 403 3163 
Q 403 3881 828 4315 
Q 1253 4750 1959 4750 
Q 2769 4750 3195 4129 
Q 3622 3509 3622 2328 
Q 3622 1225 3098 567 
Q 2575 -91 1691 -91 
Q 1453 -91 1209 -44 
Q 966 3 703 97 
z
M 1959 2075 
Q 2384 2075 2632 2365 
Q 2881 2656 2881 3163 
Q 2881 3666 2632 3958 
Q 2384 4250 1959 4250 
Q 1534 4250 1286 3958 
Q 1038 3666 1038 3163 
Q 1038 2656 1286 2365 
Q 1534 2075 1959 2075 
z
" id="DejaVuSans-39" transform="scale(0.015625)"/>
        <path d="M 2034 2216 
Q 1584 2216 1326 1975 
Q 1069 1734 1069 1313 
Q 1069 891 1326 650 
Q 1584 409 2034 409 
Q 2484 409 2743 651 
Q 3003 894 3003 1313 
Q 3003 1734 2745 1975 
Q 2488 2216 2034 2216 
z
M 1403 2484 
Q 997 2584 770 2862 
Q 544 3141 544 3541 
Q 544 4100 942 4425 
Q 1341 4750 2034 4750 
Q 2731 4750 3128 4425 
Q 3525 4100 3525 3541 
Q 3525 3141 3298 2862 
Q 3072 2584 2669 2484 
Q 3125 2378 3379 2068 
Q 3634 1759 3634 1313 
Q 3634 634 3220 271 
Q 2806 -91 2034 -91 
Q 1263 -91 848 271 
Q 434 634 434 1313 
Q 434 1759 690 2068 
Q 947 2378 1403 2484 
z
M 1172 3481 
Q 1172 3119 1398 2916 
Q 1625 2713 2034 2713 
Q 2441 2713 2670 2916 
Q 2900 3119 2900 3481 
Q 2900 3844 2670 4047 
Q 2441 4250 2034 4250 
Q 1625 4250 1398 4047 
Q 1172 3844 1172 3481 
z
" id="DejaVuSans-38" transform="scale(0.015625)"/>
        <path d="M 691 4666 
L 3169 4666 
L 3169 4134 
L 1269 4134 
L 1269 2991 
Q 1406 3038 1543 3061 
Q 1681 3084 1819 3084 
Q 2600 3084 3056 2656 
Q 3513 2228 3513 1497 
Q 3513 744 3044 326 
Q 2575 -91 1722 -91 
Q 1428 -91 1123 -41 
Q 819 9 494 109 
L 494 744 
Q 775 591 1075 516 
Q 1375 441 1709 441 
Q 2250 441 2565 725 
Q 2881 1009 2881 1497 
Q 2881 1984 2565 2268 
Q 2250 2553 1709 2553 
Q 1456 2553 1204 2497 
Q 953 2441 691 2322 
L 691 4666 
z
" id="DejaVuSans-35" transform="scale(0.015625)"/>
       </defs>
       <use xlink:href="#DejaVuSans-31"/>
       <use x="63.623047" xlink:href="#DejaVuSans-39"/>
       <use x="127.246094" xlink:href="#DejaVuSans-38"/>
       <use x="190.869141" xlink:href="#DejaVuSans-35"/>
      </g>
     </g>
    </g>
    <g id="xtick_2">
     <g id="line2d_2">
      <g>
       <use style="stroke:#000000;stroke-width:0.8;" x="140.469318" xlink:href="#m446a2b161f" y="279"/>
      </g>
     </g>
     <g id="text_2">
      <!-- 1990 -->
      <g transform="translate(133.422557 309.368774)rotate(-45)scale(0.1 -0.1)">
       <defs>
        <path d="M 2034 4250 
Q 1547 4250 1301 3770 
Q 1056 3291 1056 2328 
Q 1056 1369 1301 889 
Q 1547 409 2034 409 
Q 2525 409 2770 889 
Q 3016 1369 3016 2328 
Q 3016 3291 2770 3770 
Q 2525 4250 2034 4250 
z
M 2034 4750 
Q 2819 4750 3233 4129 
Q 3647 3509 3647 2328 
Q 3647 1150 3233 529 
Q 2819 -91 2034 -91 
Q 1250 -91 836 529 
Q 422 1150 422 2328 
Q 422 3509 836 4129 
Q 1250 4750 2034 4750 
z
" id="DejaVuSans-30" transform="scale(0.015625)"/>
       </defs>
       <use xlink:href="#DejaVuSans-31"/>
       <use x="63.623047" xlink:href="#DejaVuSans-39"/>
       <use x="127.246094" xlink:href="#DejaVuSans-39"/>
       <use x="190.869141" xlink:href="#DejaVuSans-30"/>
      </g>
     </g>
    </g>
    <g id="xtick_3">
     <g id="line2d_3">
      <g>
       <use style="stroke:#000000;stroke-width:0.8;" x="222.2875" xlink:href="#m446a2b161f" y="279"/>
      </g>
     </g>
     <g id="text_3">
      <!-- 1995 -->
      <g transform="translate(215.240739 309.368774)rotate(-45)scale(0.1 -0.1)">
       <use xlink:href="#DejaVuSans-31"/>
       <use x="63.623047" xlink:href="#DejaVuSans-39"/>
       <use x="127.246094" xlink:href="#DejaVuSans-39"/>
       <use x="190.869141" xlink:href="#DejaVuSans-35"/>
      </g>
     </g>
    </g>
    <g id="xtick_4">
     <g id="line2d_4">
      <g>
       <use style="stroke:#000000;stroke-width:0.8;" x="304.105682" xlink:href="#m446a2b161f" y="279"/>
      </g>
     </g>
     <g id="text_4">
      <!-- 2000 -->
      <g transform="translate(297.058921 309.368774)rotate(-45)scale(0.1 -0.1)">
       <defs>
        <path d="M 1228 531 
L 3431 531 
L 3431 0 
L 469 0 
L 469 531 
Q 828 903 1448 1529 
Q 2069 2156 2228 2338 
Q 2531 2678 2651 2914 
Q 2772 3150 2772 3378 
Q 2772 3750 2511 3984 
Q 2250 4219 1831 4219 
Q 1534 4219 1204 4116 
Q 875 4013 500 3803 
L 500 4441 
Q 881 4594 1212 4672 
Q 1544 4750 1819 4750 
Q 2544 4750 2975 4387 
Q 3406 4025 3406 3419 
Q 3406 3131 3298 2873 
Q 3191 2616 2906 2266 
Q 2828 2175 2409 1742 
Q 1991 1309 1228 531 
z
" id="DejaVuSans-32" transform="scale(0.015625)"/>
       </defs>
       <use xlink:href="#DejaVuSans-32"/>
       <use x="63.623047" xlink:href="#DejaVuSans-30"/>
       <use x="127.246094" xlink:href="#DejaVuSans-30"/>
       <use x="190.869141" xlink:href="#DejaVuSans-30"/>
      </g>
     </g>
    </g>
    <g id="xtick_5">
     <g id="line2d_5">
      <g>
       <use style="stroke:#000000;stroke-width:0.8;" x="385.923864" xlink:href="#m446a2b161f" y="279"/>
      </g>
     </g>
     <g id="text_5">
      <!-- 2005 -->
      <g transform="translate(378.877103 309.368774)rotate(-45)scale(0.1 -0.1)">
       <use xlink:href="#DejaVuSans-32"/>
       <use x="63.623047" xlink:href="#DejaVuSans-30"/>
       <use x="127.246094" xlink:href="#DejaVuSans-30"/>
       <use x="190.869141" xlink:href="#DejaVuSans-35"/>
      </g>
     </g>
    </g>
    <g id="xtick_6">
     <g id="line2d_6">
      <g>
       <use style="stroke:#000000;stroke-width:0.8;" x="467.742045" xlink:href="#m446a2b161f" y="279"/>
      </g>
     </g>
     <g id="text_6">
      <!-- 2010 -->
      <g transform="translate(460.695284 309.368774)rotate(-45)scale(0.1 -0.1)">
       <use xlink:href="#DejaVuSans-32"/>
       <use x="63.623047" xlink:href="#DejaVuSans-30"/>
       <use x="127.246094" xlink:href="#DejaVuSans-31"/>
       <use x="190.869141" xlink:href="#DejaVuSans-30"/>
      </g>
     </g>
    </g>
    <g id="xtick_7">
     <g id="line2d_7">
      <g>
       <use style="stroke:#000000;stroke-width:0.8;" x="549.560227" xlink:href="#m446a2b161f" y="279"/>
      </g>
     </g>
     <g id="text_7">
      <!-- 2015 -->
      <g transform="translate(542.513466 309.368774)rotate(-45)scale(0.1 -0.1)">
       <use xlink:href="#DejaVuSans-32"/>
       <use x="63.623047" xlink:href="#DejaVuSans-30"/>
       <use x="127.246094" xlink:href="#DejaVuSans-31"/>
       <use x="190.869141" xlink:href="#DejaVuSans-35"/>
      </g>
     </g>
    </g>
    <g id="text_8">
     <!-- Year_of_Release -->
     <g transform="translate(272.34375 322.437773)scale(0.1 -0.1)">
      <defs>
       <path d="M -13 4666 
L 666 4666 
L 1959 2747 
L 3244 4666 
L 3922 4666 
L 2272 2222 
L 2272 0 
L 1638 0 
L 1638 2222 
L -13 4666 
z
" id="DejaVuSans-59" transform="scale(0.015625)"/>
       <path d="M 3597 1894 
L 3597 1613 
L 953 1613 
Q 991 1019 1311 708 
Q 1631 397 2203 397 
Q 2534 397 2845 478 
Q 3156 559 3463 722 
L 3463 178 
Q 3153 47 2828 -22 
Q 2503 -91 2169 -91 
Q 1331 -91 842 396 
Q 353 884 353 1716 
Q 353 2575 817 3079 
Q 1281 3584 2069 3584 
Q 2775 3584 3186 3129 
Q 3597 2675 3597 1894 
z
M 3022 2063 
Q 3016 2534 2758 2815 
Q 2500 3097 2075 3097 
Q 1594 3097 1305 2825 
Q 1016 2553 972 2059 
L 3022 2063 
z
" id="DejaVuSans-65" transform="scale(0.015625)"/>
       <path d="M 2194 1759 
Q 1497 1759 1228 1600 
Q 959 1441 959 1056 
Q 959 750 1161 570 
Q 1363 391 1709 391 
Q 2188 391 2477 730 
Q 2766 1069 2766 1631 
L 2766 1759 
L 2194 1759 
z
M 3341 1997 
L 3341 0 
L 2766 0 
L 2766 531 
Q 2569 213 2275 61 
Q 1981 -91 1556 -91 
Q 1019 -91 701 211 
Q 384 513 384 1019 
Q 384 1609 779 1909 
Q 1175 2209 1959 2209 
L 2766 2209 
L 2766 2266 
Q 2766 2663 2505 2880 
Q 2244 3097 1772 3097 
Q 1472 3097 1187 3025 
Q 903 2953 641 2809 
L 641 3341 
Q 956 3463 1253 3523 
Q 1550 3584 1831 3584 
Q 2591 3584 2966 3190 
Q 3341 2797 3341 1997 
z
" id="DejaVuSans-61" transform="scale(0.015625)"/>
       <path d="M 2631 2963 
Q 2534 3019 2420 3045 
Q 2306 3072 2169 3072 
Q 1681 3072 1420 2755 
Q 1159 2438 1159 1844 
L 1159 0 
L 581 0 
L 581 3500 
L 1159 3500 
L 1159 2956 
Q 1341 3275 1631 3429 
Q 1922 3584 2338 3584 
Q 2397 3584 2469 3576 
Q 2541 3569 2628 3553 
L 2631 2963 
z
" id="DejaVuSans-72" transform="scale(0.015625)"/>
       <path d="M 3263 -1063 
L 3263 -1509 
L -63 -1509 
L -63 -1063 
L 3263 -1063 
z
" id="DejaVuSans-5f" transform="scale(0.015625)"/>
       <path d="M 1959 3097 
Q 1497 3097 1228 2736 
Q 959 2375 959 1747 
Q 959 1119 1226 758 
Q 1494 397 1959 397 
Q 2419 397 2687 759 
Q 2956 1122 2956 1747 
Q 2956 2369 2687 2733 
Q 2419 3097 1959 3097 
z
M 1959 3584 
Q 2709 3584 3137 3096 
Q 3566 2609 3566 1747 
Q 3566 888 3137 398 
Q 2709 -91 1959 -91 
Q 1206 -91 779 398 
Q 353 888 353 1747 
Q 353 2609 779 3096 
Q 1206 3584 1959 3584 
z
" id="DejaVuSans-6f" transform="scale(0.015625)"/>
       <path d="M 2375 4863 
L 2375 4384 
L 1825 4384 
Q 1516 4384 1395 4259 
Q 1275 4134 1275 3809 
L 1275 3500 
L 2222 3500 
L 2222 3053 
L 1275 3053 
L 1275 0 
L 697 0 
L 697 3053 
L 147 3053 
L 147 3500 
L 697 3500 
L 697 3744 
Q 697 4328 969 4595 
Q 1241 4863 1831 4863 
L 2375 4863 
z
" id="DejaVuSans-66" transform="scale(0.015625)"/>
       <path d="M 2841 2188 
Q 3044 2119 3236 1894 
Q 3428 1669 3622 1275 
L 4263 0 
L 3584 0 
L 2988 1197 
Q 2756 1666 2539 1819 
Q 2322 1972 1947 1972 
L 1259 1972 
L 1259 0 
L 628 0 
L 628 4666 
L 2053 4666 
Q 2853 4666 3247 4331 
Q 3641 3997 3641 3322 
Q 3641 2881 3436 2590 
Q 3231 2300 2841 2188 
z
M 1259 4147 
L 1259 2491 
L 2053 2491 
Q 2509 2491 2742 2702 
Q 2975 2913 2975 3322 
Q 2975 3731 2742 3939 
Q 2509 4147 2053 4147 
L 1259 4147 
z
" id="DejaVuSans-52" transform="scale(0.015625)"/>
       <path d="M 603 4863 
L 1178 4863 
L 1178 0 
L 603 0 
L 603 4863 
z
" id="DejaVuSans-6c" transform="scale(0.015625)"/>
       <path d="M 2834 3397 
L 2834 2853 
Q 2591 2978 2328 3040 
Q 2066 3103 1784 3103 
Q 1356 3103 1142 2972 
Q 928 2841 928 2578 
Q 928 2378 1081 2264 
Q 1234 2150 1697 2047 
L 1894 2003 
Q 2506 1872 2764 1633 
Q 3022 1394 3022 966 
Q 3022 478 2636 193 
Q 2250 -91 1575 -91 
Q 1294 -91 989 -36 
Q 684 19 347 128 
L 347 722 
Q 666 556 975 473 
Q 1284 391 1588 391 
Q 1994 391 2212 530 
Q 2431 669 2431 922 
Q 2431 1156 2273 1281 
Q 2116 1406 1581 1522 
L 1381 1569 
Q 847 1681 609 1914 
Q 372 2147 372 2553 
Q 372 3047 722 3315 
Q 1072 3584 1716 3584 
Q 2034 3584 2315 3537 
Q 2597 3491 2834 3397 
z
" id="DejaVuSans-73" transform="scale(0.015625)"/>
      </defs>
      <use xlink:href="#DejaVuSans-59"/>
      <use x="47.833984" xlink:href="#DejaVuSans-65"/>
      <use x="109.357422" xlink:href="#DejaVuSans-61"/>
      <use x="170.636719" xlink:href="#DejaVuSans-72"/>
      <use x="211.75" xlink:href="#DejaVuSans-5f"/>
      <use x="261.75" xlink:href="#DejaVuSans-6f"/>
      <use x="322.931641" xlink:href="#DejaVuSans-66"/>
      <use x="358.136719" xlink:href="#DejaVuSans-5f"/>
      <use x="408.136719" xlink:href="#DejaVuSans-52"/>
      <use x="473.119141" xlink:href="#DejaVuSans-65"/>
      <use x="534.642578" xlink:href="#DejaVuSans-6c"/>
      <use x="562.425781" xlink:href="#DejaVuSans-65"/>
      <use x="623.949219" xlink:href="#DejaVuSans-61"/>
      <use x="685.228516" xlink:href="#DejaVuSans-73"/>
      <use x="737.328125" xlink:href="#DejaVuSans-65"/>
     </g>
    </g>
   </g>
   <g id="matplotlib.axis_2">
    <g id="ytick_1">
     <g id="line2d_8">
      <defs>
       <path d="M 0 0 
L -3.5 0 
" id="md122185cf0" style="stroke:#000000;stroke-width:0.8;"/>
      </defs>
      <g>
       <use style="stroke:#000000;stroke-width:0.8;" x="33.2875" xlink:href="#md122185cf0" y="279"/>
      </g>
     </g>
     <g id="text_9">
      <!-- 0 -->
      <g transform="translate(19.925 282.799219)scale(0.1 -0.1)">
       <use xlink:href="#DejaVuSans-30"/>
      </g>
     </g>
    </g>
    <g id="ytick_2">
     <g id="line2d_9">
      <g>
       <use style="stroke:#000000;stroke-width:0.8;" x="33.2875" xlink:href="#md122185cf0" y="226.049902"/>
      </g>
     </g>
     <g id="text_10">
      <!-- 100 -->
      <g transform="translate(7.2 229.849121)scale(0.1 -0.1)">
       <use xlink:href="#DejaVuSans-31"/>
       <use x="63.623047" xlink:href="#DejaVuSans-30"/>
       <use x="127.246094" xlink:href="#DejaVuSans-30"/>
      </g>
     </g>
    </g>
    <g id="ytick_3">
     <g id="line2d_10">
      <g>
       <use style="stroke:#000000;stroke-width:0.8;" x="33.2875" xlink:href="#md122185cf0" y="173.099805"/>
      </g>
     </g>
     <g id="text_11">
      <!-- 200 -->
      <g transform="translate(7.2 176.899023)scale(0.1 -0.1)">
       <use xlink:href="#DejaVuSans-32"/>
       <use x="63.623047" xlink:href="#DejaVuSans-30"/>
       <use x="127.246094" xlink:href="#DejaVuSans-30"/>
      </g>
     </g>
    </g>
    <g id="ytick_4">
     <g id="line2d_11">
      <g>
       <use style="stroke:#000000;stroke-width:0.8;" x="33.2875" xlink:href="#md122185cf0" y="120.149707"/>
      </g>
     </g>
     <g id="text_12">
      <!-- 300 -->
      <g transform="translate(7.2 123.948926)scale(0.1 -0.1)">
       <defs>
        <path d="M 2597 2516 
Q 3050 2419 3304 2112 
Q 3559 1806 3559 1356 
Q 3559 666 3084 287 
Q 2609 -91 1734 -91 
Q 1441 -91 1130 -33 
Q 819 25 488 141 
L 488 750 
Q 750 597 1062 519 
Q 1375 441 1716 441 
Q 2309 441 2620 675 
Q 2931 909 2931 1356 
Q 2931 1769 2642 2001 
Q 2353 2234 1838 2234 
L 1294 2234 
L 1294 2753 
L 1863 2753 
Q 2328 2753 2575 2939 
Q 2822 3125 2822 3475 
Q 2822 3834 2567 4026 
Q 2313 4219 1838 4219 
Q 1578 4219 1281 4162 
Q 984 4106 628 3988 
L 628 4550 
Q 988 4650 1302 4700 
Q 1616 4750 1894 4750 
Q 2613 4750 3031 4423 
Q 3450 4097 3450 3541 
Q 3450 3153 3228 2886 
Q 3006 2619 2597 2516 
z
" id="DejaVuSans-33" transform="scale(0.015625)"/>
       </defs>
       <use xlink:href="#DejaVuSans-33"/>
       <use x="63.623047" xlink:href="#DejaVuSans-30"/>
       <use x="127.246094" xlink:href="#DejaVuSans-30"/>
      </g>
     </g>
    </g>
    <g id="ytick_5">
     <g id="line2d_12">
      <g>
       <use style="stroke:#000000;stroke-width:0.8;" x="33.2875" xlink:href="#md122185cf0" y="67.199609"/>
      </g>
     </g>
     <g id="text_13">
      <!-- 400 -->
      <g transform="translate(7.2 70.998828)scale(0.1 -0.1)">
       <defs>
        <path d="M 2419 4116 
L 825 1625 
L 2419 1625 
L 2419 4116 
z
M 2253 4666 
L 3047 4666 
L 3047 1625 
L 3713 1625 
L 3713 1100 
L 3047 1100 
L 3047 0 
L 2419 0 
L 2419 1100 
L 313 1100 
L 313 1709 
L 2253 4666 
z
" id="DejaVuSans-34" transform="scale(0.015625)"/>
       </defs>
       <use xlink:href="#DejaVuSans-34"/>
       <use x="63.623047" xlink:href="#DejaVuSans-30"/>
       <use x="127.246094" xlink:href="#DejaVuSans-30"/>
      </g>
     </g>
    </g>
    <g id="ytick_6">
     <g id="line2d_13">
      <g>
       <use style="stroke:#000000;stroke-width:0.8;" x="33.2875" xlink:href="#md122185cf0" y="14.249511"/>
      </g>
     </g>
     <g id="text_14">
      <!-- 500 -->
      <g transform="translate(7.2 18.04873)scale(0.1 -0.1)">
       <use xlink:href="#DejaVuSans-35"/>
       <use x="63.623047" xlink:href="#DejaVuSans-30"/>
       <use x="127.246094" xlink:href="#DejaVuSans-30"/>
      </g>
     </g>
    </g>
   </g>
   <g id="line2d_14">
    <path clip-path="url(#p8a2cfde8fc)" d="M 58.651136 279 
L 107.742045 279 
L 173.196591 278.98941 
L 205.923864 278.793495 
L 238.651136 274.811647 
L 255.014773 270.877455 
L 271.378409 269.400147 
L 287.742045 266.652037 
L 304.105682 258.169432 
L 320.469318 205.229924 
L 336.832955 192.28892 
L 353.196591 203.239 
L 369.560227 186.93037 
L 385.923864 184.669401 
L 402.2875 159.496924 
L 418.651136 154.244275 
L 435.014773 143.315375 
L 451.378409 156.304033 
L 467.742045 166.089212 
L 484.105682 178.066524 
L 500.469318 208.078639 
L 516.832955 214.988627 
L 533.196591 236.968212 
L 549.560227 243.073359 
L 565.923864 260.721626 
" style="fill:none;stroke:#1f77b4;stroke-linecap:square;stroke-width:1.5;"/>
   </g>
   <g id="line2d_15">
    <path clip-path="url(#p8a2cfde8fc)" d="M 58.651136 278.984115 
L 107.742045 278.98941 
L 173.196591 278.98941 
L 205.923864 278.655824 
L 238.651136 271.168681 
L 255.014773 266.286682 
L 271.378409 262.9773 
L 287.742045 258.344167 
L 304.105682 244.826007 
L 320.469318 166.655778 
L 336.832955 147.794953 
L 353.196591 163.441707 
L 369.560227 142.976494 
L 385.923864 138.761666 
L 402.2875 104.148187 
L 418.651136 88.210208 
L 435.014773 70.609595 
L 451.378409 80.288873 
L 467.742045 97.185249 
L 484.105682 110.364529 
L 500.469318 155.615682 
L 516.832955 164.400103 
L 533.196591 196.503748 
L 549.560227 211.033255 
L 565.923864 238.996201 
" style="fill:none;stroke:#ff7f0e;stroke-linecap:square;stroke-width:1.5;"/>
   </g>
   <g id="line2d_16">
    <path clip-path="url(#p8a2cfde8fc)" d="M 58.651136 278.984115 
L 107.742045 278.98941 
L 173.196591 278.98941 
L 205.923864 278.375189 
L 238.651136 269.018907 
L 255.014773 261.515878 
L 271.378409 257.253395 
L 287.742045 253.223892 
L 304.105682 238.858531 
L 320.469318 154.17544 
L 336.832955 137.94094 
L 353.196591 154.31311 
L 369.560227 130.935642 
L 385.923864 118.518844 
L 402.2875 82.740463 
L 418.651136 69.656494 
L 435.014773 50.795669 
L 451.378409 62.13758 
L 467.742045 83.84712 
L 484.105682 98.101286 
L 500.469318 141.128535 
L 516.832955 154.31311 
L 533.196591 189.080144 
L 549.560227 204.758668 
L 565.923864 236.698167 
" style="fill:none;stroke:#2ca02c;stroke-linecap:square;stroke-width:1.5;"/>
   </g>
   <g id="line2d_17">
    <path clip-path="url(#p8a2cfde8fc)" d="M 58.651136 278.97882 
L 107.742045 278.984115 
L 173.196591 278.98941 
L 205.923864 278.332829 
L 238.651136 268.362325 
L 255.014773 260.446286 
L 271.378409 256.120263 
L 287.742045 251.926615 
L 304.105682 235.951571 
L 320.469318 144.506752 
L 336.832955 126.133068 
L 353.196591 143.892531 
L 369.560227 108.62247 
L 385.923864 102.077838 
L 402.2875 58.436368 
L 418.651136 37.558144 
L 435.014773 20.142857 
L 451.378409 35.530156 
L 467.742045 60.421996 
L 484.105682 75.809295 
L 500.469318 124.41219 
L 516.832955 137.474979 
L 533.196591 177.124012 
L 549.560227 194.77228 
L 565.923864 230.561251 
" style="fill:none;stroke:#d62728;stroke-linecap:square;stroke-width:1.5;"/>
   </g>
   <g id="patch_3">
    <path d="M 33.2875 279 
L 33.2875 7.2 
" style="fill:none;stroke:#000000;stroke-linecap:square;stroke-linejoin:miter;stroke-width:0.8;"/>
   </g>
   <g id="patch_4">
    <path d="M 591.2875 279 
L 591.2875 7.2 
" style="fill:none;stroke:#000000;stroke-linecap:square;stroke-linejoin:miter;stroke-width:0.8;"/>
   </g>
   <g id="patch_5">
    <path d="M 33.2875 279 
L 591.2875 279 
" style="fill:none;stroke:#000000;stroke-linecap:square;stroke-linejoin:miter;stroke-width:0.8;"/>
   </g>
   <g id="patch_6">
    <path d="M 33.2875 7.2 
L 591.2875 7.2 
" style="fill:none;stroke:#000000;stroke-linecap:square;stroke-linejoin:miter;stroke-width:0.8;"/>
   </g>
   <g id="legend_1">
    <g id="patch_7">
     <path d="M 492.276563 75.025 
L 584.2875 75.025 
Q 586.2875 75.025 586.2875 73.025 
L 586.2875 14.2 
Q 586.2875 12.2 584.2875 12.2 
L 492.276563 12.2 
Q 490.276563 12.2 490.276563 14.2 
L 490.276563 73.025 
Q 490.276563 75.025 492.276563 75.025 
z
" style="fill:#ffffff;opacity:0.8;stroke:#cccccc;stroke-linejoin:miter;"/>
    </g>
    <g id="patch_8">
     <path d="M 494.276563 23.798437 
L 514.276562 23.798437 
L 514.276562 16.798437 
L 494.276563 16.798437 
z
" style="fill:#1f77b4;stroke:#1f77b4;stroke-linejoin:miter;"/>
    </g>
    <g id="text_15">
     <!-- NA_Sales -->
     <g transform="translate(522.276562 23.798437)scale(0.1 -0.1)">
      <defs>
       <path d="M 628 4666 
L 1478 4666 
L 3547 763 
L 3547 4666 
L 4159 4666 
L 4159 0 
L 3309 0 
L 1241 3903 
L 1241 0 
L 628 0 
L 628 4666 
z
" id="DejaVuSans-4e" transform="scale(0.015625)"/>
       <path d="M 2188 4044 
L 1331 1722 
L 3047 1722 
L 2188 4044 
z
M 1831 4666 
L 2547 4666 
L 4325 0 
L 3669 0 
L 3244 1197 
L 1141 1197 
L 716 0 
L 50 0 
L 1831 4666 
z
" id="DejaVuSans-41" transform="scale(0.015625)"/>
       <path d="M 3425 4513 
L 3425 3897 
Q 3066 4069 2747 4153 
Q 2428 4238 2131 4238 
Q 1616 4238 1336 4038 
Q 1056 3838 1056 3469 
Q 1056 3159 1242 3001 
Q 1428 2844 1947 2747 
L 2328 2669 
Q 3034 2534 3370 2195 
Q 3706 1856 3706 1288 
Q 3706 609 3251 259 
Q 2797 -91 1919 -91 
Q 1588 -91 1214 -16 
Q 841 59 441 206 
L 441 856 
Q 825 641 1194 531 
Q 1563 422 1919 422 
Q 2459 422 2753 634 
Q 3047 847 3047 1241 
Q 3047 1584 2836 1778 
Q 2625 1972 2144 2069 
L 1759 2144 
Q 1053 2284 737 2584 
Q 422 2884 422 3419 
Q 422 4038 858 4394 
Q 1294 4750 2059 4750 
Q 2388 4750 2728 4690 
Q 3069 4631 3425 4513 
z
" id="DejaVuSans-53" transform="scale(0.015625)"/>
      </defs>
      <use xlink:href="#DejaVuSans-4e"/>
      <use x="74.804688" xlink:href="#DejaVuSans-41"/>
      <use x="143.212891" xlink:href="#DejaVuSans-5f"/>
      <use x="193.212891" xlink:href="#DejaVuSans-53"/>
      <use x="256.689453" xlink:href="#DejaVuSans-61"/>
      <use x="317.96875" xlink:href="#DejaVuSans-6c"/>
      <use x="345.751953" xlink:href="#DejaVuSans-65"/>
      <use x="407.275391" xlink:href="#DejaVuSans-73"/>
     </g>
    </g>
    <g id="patch_9">
     <path d="M 494.276563 38.754687 
L 514.276562 38.754687 
L 514.276562 31.754687 
L 494.276563 31.754687 
z
" style="fill:#ff7f0e;stroke:#ff7f0e;stroke-linejoin:miter;"/>
    </g>
    <g id="text_16">
     <!-- EU_Sales -->
     <g transform="translate(522.276562 38.754687)scale(0.1 -0.1)">
      <defs>
       <path d="M 628 4666 
L 3578 4666 
L 3578 4134 
L 1259 4134 
L 1259 2753 
L 3481 2753 
L 3481 2222 
L 1259 2222 
L 1259 531 
L 3634 531 
L 3634 0 
L 628 0 
L 628 4666 
z
" id="DejaVuSans-45" transform="scale(0.015625)"/>
       <path d="M 556 4666 
L 1191 4666 
L 1191 1831 
Q 1191 1081 1462 751 
Q 1734 422 2344 422 
Q 2950 422 3222 751 
Q 3494 1081 3494 1831 
L 3494 4666 
L 4128 4666 
L 4128 1753 
Q 4128 841 3676 375 
Q 3225 -91 2344 -91 
Q 1459 -91 1007 375 
Q 556 841 556 1753 
L 556 4666 
z
" id="DejaVuSans-55" transform="scale(0.015625)"/>
      </defs>
      <use xlink:href="#DejaVuSans-45"/>
      <use x="63.183594" xlink:href="#DejaVuSans-55"/>
      <use x="136.376953" xlink:href="#DejaVuSans-5f"/>
      <use x="186.376953" xlink:href="#DejaVuSans-53"/>
      <use x="249.853516" xlink:href="#DejaVuSans-61"/>
      <use x="311.132812" xlink:href="#DejaVuSans-6c"/>
      <use x="338.916016" xlink:href="#DejaVuSans-65"/>
      <use x="400.439453" xlink:href="#DejaVuSans-73"/>
     </g>
    </g>
    <g id="patch_10">
     <path d="M 494.276563 53.710938 
L 514.276562 53.710938 
L 514.276562 46.710938 
L 494.276563 46.710938 
z
" style="fill:#2ca02c;stroke:#2ca02c;stroke-linejoin:miter;"/>
    </g>
    <g id="text_17">
     <!-- JP_Sales -->
     <g transform="translate(522.276562 53.710938)scale(0.1 -0.1)">
      <defs>
       <path d="M 628 4666 
L 1259 4666 
L 1259 325 
Q 1259 -519 939 -900 
Q 619 -1281 -91 -1281 
L -331 -1281 
L -331 -750 
L -134 -750 
Q 284 -750 456 -515 
Q 628 -281 628 325 
L 628 4666 
z
" id="DejaVuSans-4a" transform="scale(0.015625)"/>
       <path d="M 1259 4147 
L 1259 2394 
L 2053 2394 
Q 2494 2394 2734 2622 
Q 2975 2850 2975 3272 
Q 2975 3691 2734 3919 
Q 2494 4147 2053 4147 
L 1259 4147 
z
M 628 4666 
L 2053 4666 
Q 2838 4666 3239 4311 
Q 3641 3956 3641 3272 
Q 3641 2581 3239 2228 
Q 2838 1875 2053 1875 
L 1259 1875 
L 1259 0 
L 628 0 
L 628 4666 
z
" id="DejaVuSans-50" transform="scale(0.015625)"/>
      </defs>
      <use xlink:href="#DejaVuSans-4a"/>
      <use x="29.492188" xlink:href="#DejaVuSans-50"/>
      <use x="89.794922" xlink:href="#DejaVuSans-5f"/>
      <use x="139.794922" xlink:href="#DejaVuSans-53"/>
      <use x="203.271484" xlink:href="#DejaVuSans-61"/>
      <use x="264.550781" xlink:href="#DejaVuSans-6c"/>
      <use x="292.333984" xlink:href="#DejaVuSans-65"/>
      <use x="353.857422" xlink:href="#DejaVuSans-73"/>
     </g>
    </g>
    <g id="patch_11">
     <path d="M 494.276563 68.667187 
L 514.276562 68.667187 
L 514.276562 61.667187 
L 494.276563 61.667187 
z
" style="fill:#d62728;stroke:#d62728;stroke-linejoin:miter;"/>
    </g>
    <g id="text_18">
     <!-- Other_Sales -->
     <g transform="translate(522.276562 68.667187)scale(0.1 -0.1)">
      <defs>
       <path d="M 2522 4238 
Q 1834 4238 1429 3725 
Q 1025 3213 1025 2328 
Q 1025 1447 1429 934 
Q 1834 422 2522 422 
Q 3209 422 3611 934 
Q 4013 1447 4013 2328 
Q 4013 3213 3611 3725 
Q 3209 4238 2522 4238 
z
M 2522 4750 
Q 3503 4750 4090 4092 
Q 4678 3434 4678 2328 
Q 4678 1225 4090 567 
Q 3503 -91 2522 -91 
Q 1538 -91 948 565 
Q 359 1222 359 2328 
Q 359 3434 948 4092 
Q 1538 4750 2522 4750 
z
" id="DejaVuSans-4f" transform="scale(0.015625)"/>
       <path d="M 1172 4494 
L 1172 3500 
L 2356 3500 
L 2356 3053 
L 1172 3053 
L 1172 1153 
Q 1172 725 1289 603 
Q 1406 481 1766 481 
L 2356 481 
L 2356 0 
L 1766 0 
Q 1100 0 847 248 
Q 594 497 594 1153 
L 594 3053 
L 172 3053 
L 172 3500 
L 594 3500 
L 594 4494 
L 1172 4494 
z
" id="DejaVuSans-74" transform="scale(0.015625)"/>
       <path d="M 3513 2113 
L 3513 0 
L 2938 0 
L 2938 2094 
Q 2938 2591 2744 2837 
Q 2550 3084 2163 3084 
Q 1697 3084 1428 2787 
Q 1159 2491 1159 1978 
L 1159 0 
L 581 0 
L 581 4863 
L 1159 4863 
L 1159 2956 
Q 1366 3272 1645 3428 
Q 1925 3584 2291 3584 
Q 2894 3584 3203 3211 
Q 3513 2838 3513 2113 
z
" id="DejaVuSans-68" transform="scale(0.015625)"/>
      </defs>
      <use xlink:href="#DejaVuSans-4f"/>
      <use x="78.710938" xlink:href="#DejaVuSans-74"/>
      <use x="117.919922" xlink:href="#DejaVuSans-68"/>
      <use x="181.298828" xlink:href="#DejaVuSans-65"/>
      <use x="242.822266" xlink:href="#DejaVuSans-72"/>
      <use x="283.935547" xlink:href="#DejaVuSans-5f"/>
      <use x="333.935547" xlink:href="#DejaVuSans-53"/>
      <use x="397.412109" xlink:href="#DejaVuSans-61"/>
      <use x="458.691406" xlink:href="#DejaVuSans-6c"/>
      <use x="486.474609" xlink:href="#DejaVuSans-65"/>
      <use x="547.998047" xlink:href="#DejaVuSans-73"/>
     </g>
    </g>
   </g>
  </g>
 </g>
 <defs>
  <clipPath id="p8a2cfde8fc">
   <rect height="271.8" width="558" x="33.2875" y="7.2"/>
  </clipPath>
 </defs>
</svg>